<svg xmlns="http://www.w3.org/2000/svg" xmlns:xlink="http://www.w3.org/1999/xlink" width="231" zoomAndPan="magnify" viewBox="0 0 173.25 161.999997" height="216" preserveAspectRatio="xMidYMid meet" version="1.0"><defs><clipPath id="09808c12a0"><path d="M 39 35.535156 L 133.445312 35.535156 L 133.445312 125.894531 L 39 125.894531 Z M 39 35.535156 " clip-rule="nonzero"/></clipPath><clipPath id="028f5cfa30"><path d="M 0 0.347656 L 172 0.347656 L 172 160.902344 L 0 160.902344 Z M 0 0.347656 " clip-rule="nonzero"/></clipPath></defs><g clip-path="url(#09808c12a0)"><path fill="#f5c400" d="M 111.105469 92.457031 C 110.722656 92.828125 110.546875 93.367188 110.636719 93.894531 L 115.699219 123.402344 C 115.925781 124.730469 114.53125 125.746094 113.335938 125.117188 L 86.839844 111.1875 C 86.367188 110.9375 85.800781 110.9375 85.324219 111.1875 L 58.828125 125.117188 C 57.632812 125.746094 56.238281 124.730469 56.46875 123.402344 L 61.527344 93.894531 C 61.617188 93.367188 61.441406 92.828125 61.058594 92.457031 L 39.621094 71.558594 C 38.65625 70.617188 39.191406 68.976562 40.523438 68.785156 L 70.148438 64.480469 C 70.679688 64.402344 71.136719 64.070312 71.375 63.589844 L 84.625 36.746094 C 85.21875 35.535156 86.945312 35.535156 87.542969 36.746094 L 100.792969 63.589844 C 101.027344 64.070312 101.488281 64.402344 102.015625 64.480469 L 131.640625 68.785156 C 132.976562 68.976562 133.507812 70.617188 132.542969 71.558594 Z M 111.105469 92.457031 " fill-opacity="1" fill-rule="nonzero"/></g><path fill="#ffcd25" d="M 161.105469 135.148438 L 3.367188 158.042969 L 3.367188 9.019531 C 3.398438 8.625 3.464844 8.242188 3.574219 7.863281 C 3.679688 7.484375 3.824219 7.121094 4 6.769531 C 4.179688 6.417969 4.390625 6.089844 4.632812 5.78125 C 4.875 5.472656 5.148438 5.1875 5.445312 4.933594 C 5.746094 4.675781 6.066406 4.453125 6.40625 4.257812 C 6.75 4.066406 7.109375 3.90625 7.484375 3.785156 C 7.855469 3.660156 8.238281 3.574219 8.628906 3.527344 C 9.019531 3.480469 9.414062 3.46875 9.804688 3.496094 L 64.53125 3.496094 C 64.925781 3.46875 65.316406 3.480469 65.707031 3.527344 C 66.097656 3.578125 66.480469 3.660156 66.855469 3.785156 C 67.226562 3.910156 67.585938 4.066406 67.929688 4.261719 C 68.269531 4.453125 68.589844 4.679688 68.890625 4.933594 C 69.1875 5.191406 69.460938 5.472656 69.703125 5.78125 C 69.945312 6.089844 70.15625 6.421875 70.335938 6.769531 C 70.511719 7.121094 70.65625 7.484375 70.761719 7.863281 C 70.867188 8.242188 70.9375 8.625 70.96875 9.019531 L 70.96875 20.054688 L 157.820312 20.054688 C 158.21875 20.027344 158.613281 20.078125 158.992188 20.207031 C 159.375 20.332031 159.714844 20.527344 160.019531 20.792969 C 160.320312 21.058594 160.5625 21.371094 160.738281 21.730469 C 160.914062 22.089844 161.015625 22.472656 161.039062 22.871094 Z M 161.105469 135.148438 " fill-opacity="1" fill-rule="nonzero"/><path fill="#f36256" d="M 123.820312 152.316406 L 20.574219 152.316406 C 20.199219 152.316406 19.824219 152.28125 19.457031 152.207031 C 19.085938 152.136719 18.726562 152.027344 18.378906 151.882812 C 18.03125 151.738281 17.703125 151.5625 17.386719 151.355469 C 17.074219 151.144531 16.785156 150.90625 16.519531 150.640625 C 16.253906 150.375 16.015625 150.085938 15.804688 149.773438 C 15.597656 149.460938 15.417969 149.132812 15.277344 148.785156 C 15.132812 148.4375 15.023438 148.078125 14.949219 147.710938 C 14.875 147.34375 14.839844 146.96875 14.839844 146.59375 L 14.839844 55.011719 L 40.652344 32.117188 L 118.085938 32.117188 C 118.460938 32.117188 118.835938 32.152344 119.207031 32.226562 C 119.574219 32.300781 119.933594 32.410156 120.28125 32.550781 C 120.628906 32.695312 120.960938 32.871094 121.273438 33.082031 C 121.585938 33.289062 121.875 33.527344 122.140625 33.792969 C 122.410156 34.058594 122.644531 34.347656 122.855469 34.660156 C 123.066406 34.972656 123.242188 35.304688 123.386719 35.648438 C 123.53125 35.996094 123.636719 36.355469 123.710938 36.722656 C 123.785156 37.09375 123.820312 37.464844 123.820312 37.839844 Z M 123.820312 152.316406 " fill-opacity="1" fill-rule="nonzero"/><path fill="#c84645" d="M 40.652344 32.117188 L 40.652344 49.289062 C 40.652344 49.664062 40.613281 50.035156 40.539062 50.40625 C 40.46875 50.773438 40.359375 51.132812 40.214844 51.480469 C 40.070312 51.824219 39.894531 52.15625 39.683594 52.46875 C 39.476562 52.78125 39.238281 53.070312 38.96875 53.335938 C 38.703125 53.601562 38.414062 53.839844 38.101562 54.046875 C 37.789062 54.257812 37.457031 54.433594 37.109375 54.578125 C 36.761719 54.71875 36.402344 54.828125 36.035156 54.902344 C 35.664062 54.976562 35.292969 55.011719 34.914062 55.011719 L 14.839844 55.011719 Z M 40.652344 32.117188 " fill-opacity="1" fill-rule="nonzero"/><path fill="#5bcbfa" d="M 40.652344 143.734375 L 40.652344 69.320312 L 66.460938 46.425781 L 143.898438 46.425781 C 144.273438 46.425781 144.648438 46.464844 145.015625 46.535156 C 145.386719 46.609375 145.746094 46.71875 146.09375 46.863281 C 146.441406 47.007812 146.773438 47.183594 147.085938 47.390625 C 147.398438 47.601562 147.6875 47.835938 147.953125 48.101562 C 148.21875 48.367188 148.457031 48.65625 148.667969 48.96875 C 148.875 49.28125 149.054688 49.613281 149.199219 49.960938 C 149.339844 50.308594 149.449219 50.664062 149.523438 51.035156 C 149.597656 51.402344 149.632812 51.773438 149.632812 52.148438 L 149.632812 138.007812 Z M 40.652344 143.734375 " fill-opacity="1" fill-rule="nonzero"/><path fill="#3780ea" d="M 66.460938 46.425781 L 66.460938 63.597656 C 66.460938 63.972656 66.425781 64.347656 66.351562 64.714844 C 66.277344 65.082031 66.171875 65.441406 66.027344 65.789062 C 65.882812 66.136719 65.703125 66.464844 65.496094 66.777344 C 65.285156 67.089844 65.046875 67.378906 64.78125 67.644531 C 64.515625 67.910156 64.226562 68.148438 63.914062 68.355469 C 63.601562 68.566406 63.269531 68.742188 62.921875 68.886719 C 62.574219 69.03125 62.214844 69.136719 61.84375 69.210938 C 61.476562 69.285156 61.101562 69.320312 60.726562 69.320312 L 40.652344 69.320312 Z M 66.460938 46.425781 " fill-opacity="1" fill-rule="nonzero"/><path fill="#ffe464" d="M 158.996094 158.042969 L 3.367188 158.042969 L 16.375 91.535156 C 16.480469 91.152344 16.617188 90.777344 16.789062 90.417969 C 16.957031 90.054688 17.15625 89.710938 17.386719 89.386719 C 17.617188 89.058594 17.875 88.757812 18.15625 88.476562 C 18.441406 88.191406 18.746094 87.9375 19.074219 87.710938 C 19.402344 87.480469 19.746094 87.28125 20.109375 87.113281 C 20.46875 86.945312 20.84375 86.808594 21.230469 86.703125 C 21.617188 86.601562 22.007812 86.53125 22.40625 86.496094 C 22.804688 86.460938 23.203125 86.460938 23.601562 86.492188 L 161.707031 86.492188 C 166.066406 86.492188 169.449219 89.492188 168.929688 92.898438 Z M 158.996094 158.042969 " fill-opacity="1" fill-rule="nonzero"/><g clip-path="url(#028f5cfa30)"><path fill="#000000" d="M 138.164062 63.597656 L 77.933594 63.597656 L 77.933594 69.320312 L 138.164062 69.320312 Z M 171.773438 93.332031 L 161.824219 158.472656 C 161.769531 158.808594 161.660156 159.128906 161.492188 159.425781 C 161.324219 159.722656 161.109375 159.984375 160.851562 160.207031 C 160.589844 160.429688 160.300781 160.601562 159.980469 160.722656 C 159.660156 160.839844 159.328125 160.902344 158.984375 160.902344 L 9.101562 160.902344 C 8.539062 160.902344 7.976562 160.847656 7.425781 160.738281 C 6.871094 160.628906 6.332031 160.464844 5.808594 160.25 C 5.289062 160.035156 4.792969 159.769531 4.324219 159.457031 C 3.851562 159.144531 3.417969 158.789062 3.019531 158.390625 C 2.621094 157.992188 2.261719 157.558594 1.949219 157.089844 C 1.636719 156.621094 1.371094 156.125 1.152344 155.605469 C 0.9375 155.082031 0.773438 154.546875 0.664062 153.992188 C 0.554688 153.441406 0.5 152.882812 0.5 152.316406 L 0.5 9.019531 C 0.53125 8.441406 0.617188 7.871094 0.761719 7.308594 C 0.902344 6.746094 1.101562 6.203125 1.351562 5.679688 C 1.601562 5.15625 1.898438 4.664062 2.246094 4.199219 C 2.59375 3.734375 2.984375 3.304688 3.414062 2.917969 C 3.84375 2.527344 4.308594 2.183594 4.808594 1.886719 C 5.304688 1.589844 5.828125 1.34375 6.375 1.144531 C 6.921875 0.949219 7.484375 0.808594 8.058594 0.722656 C 8.632812 0.636719 9.210938 0.609375 9.792969 0.636719 L 64.539062 0.636719 C 65.121094 0.609375 65.699219 0.636719 66.273438 0.722656 C 66.847656 0.808594 67.410156 0.949219 67.957031 1.144531 C 68.503906 1.34375 69.027344 1.589844 69.523438 1.886719 C 70.023438 2.183594 70.488281 2.527344 70.917969 2.917969 C 71.351562 3.304688 71.738281 3.734375 72.085938 4.199219 C 72.433594 4.664062 72.730469 5.15625 72.980469 5.679688 C 73.230469 6.203125 73.429688 6.746094 73.570312 7.308594 C 73.714844 7.871094 73.800781 8.441406 73.832031 9.019531 L 73.832031 17.207031 L 157.808594 17.207031 C 158.65625 17.195312 159.472656 17.351562 160.257812 17.667969 C 161.042969 17.988281 161.738281 18.441406 162.339844 19.039062 C 162.851562 19.558594 163.242188 20.152344 163.515625 20.828125 C 163.789062 21.5 163.921875 22.203125 163.917969 22.929688 L 163.945312 83.859375 C 165.097656 84.0625 166.183594 84.441406 167.203125 85.007812 C 168.226562 85.570312 169.128906 86.285156 169.910156 87.152344 C 170.664062 87.996094 171.203125 88.957031 171.527344 90.035156 C 171.855469 91.117188 171.9375 92.214844 171.773438 93.332031 Z M 6.234375 128.535156 L 11.972656 99.171875 L 11.972656 55.011719 C 11.964844 54.148438 12.289062 53.429688 12.945312 52.867188 L 38.757812 29.96875 C 39.296875 29.488281 39.929688 29.25 40.652344 29.253906 L 118.085938 29.253906 C 118.652344 29.257812 119.210938 29.3125 119.761719 29.425781 C 120.316406 29.535156 120.855469 29.699219 121.375 29.914062 C 121.894531 30.132812 122.390625 30.394531 122.859375 30.710938 C 123.328125 31.023438 123.761719 31.378906 124.164062 31.777344 C 124.5625 32.175781 124.917969 32.609375 125.230469 33.078125 C 125.546875 33.542969 125.8125 34.039062 126.027344 34.558594 C 126.246094 35.078125 126.410156 35.613281 126.519531 36.167969 C 126.632812 36.71875 126.6875 37.277344 126.691406 37.839844 L 126.691406 43.566406 L 143.898438 43.566406 C 144.460938 43.566406 145.019531 43.621094 145.574219 43.734375 C 146.128906 43.84375 146.664062 44.007812 147.1875 44.226562 C 147.707031 44.441406 148.203125 44.707031 148.671875 45.019531 C 149.140625 45.332031 149.574219 45.6875 149.972656 46.085938 C 150.375 46.484375 150.730469 46.917969 151.042969 47.386719 C 151.359375 47.855469 151.625 48.347656 151.839844 48.867188 C 152.058594 49.390625 152.222656 49.925781 152.332031 50.476562 C 152.445312 51.027344 152.5 51.585938 152.503906 52.148438 L 152.503906 83.632812 L 158.210938 83.632812 L 158.179688 22.957031 C 158.152344 22.988281 158.007812 22.929688 157.808594 22.929688 L 70.964844 22.929688 C 70.585938 22.929688 70.21875 22.855469 69.867188 22.710938 C 69.515625 22.566406 69.207031 22.359375 68.9375 22.089844 C 68.667969 21.824219 68.460938 21.515625 68.316406 21.164062 C 68.171875 20.8125 68.097656 20.449219 68.097656 20.066406 L 68.097656 9.019531 C 68.097656 7.589844 66.460938 6.359375 64.539062 6.359375 L 9.792969 6.359375 C 7.871094 6.359375 6.234375 7.589844 6.234375 9.019531 Z M 17.707031 57.875 L 17.707031 85.261719 C 19.515625 84.175781 21.476562 83.632812 23.585938 83.632812 L 37.78125 83.632812 L 37.78125 69.320312 C 37.777344 68.457031 38.101562 67.742188 38.757812 67.175781 L 64.570312 44.28125 C 65.109375 43.800781 65.738281 43.5625 66.460938 43.566406 L 120.953125 43.566406 L 120.953125 37.839844 C 120.953125 37.460938 120.882812 37.097656 120.734375 36.746094 C 120.589844 36.394531 120.382812 36.085938 120.113281 35.816406 C 119.84375 35.546875 119.535156 35.339844 119.183594 35.195312 C 118.832031 35.050781 118.464844 34.980469 118.085938 34.980469 L 43.519531 34.980469 L 43.519531 49.289062 C 43.515625 49.851562 43.460938 50.410156 43.347656 50.960938 C 43.238281 51.515625 43.074219 52.050781 42.855469 52.570312 C 42.640625 53.089844 42.375 53.585938 42.0625 54.050781 C 41.746094 54.519531 41.390625 54.953125 40.992188 55.351562 C 40.59375 55.75 40.15625 56.105469 39.6875 56.417969 C 39.21875 56.734375 38.722656 56.996094 38.203125 57.214844 C 37.683594 57.429688 37.144531 57.59375 36.589844 57.703125 C 36.039062 57.816406 35.480469 57.871094 34.914062 57.875 Z M 34.914062 52.148438 C 35.296875 52.148438 35.660156 52.078125 36.011719 51.933594 C 36.363281 51.789062 36.671875 51.582031 36.941406 51.3125 C 37.210938 51.042969 37.417969 50.734375 37.5625 50.382812 C 37.710938 50.03125 37.78125 49.667969 37.78125 49.289062 L 37.78125 38.5 L 22.382812 52.148438 Z M 48.195312 66.460938 L 60.726562 66.460938 C 61.105469 66.460938 61.472656 66.386719 61.824219 66.242188 C 62.175781 66.097656 62.484375 65.890625 62.753906 65.621094 C 63.023438 65.351562 63.230469 65.042969 63.375 64.691406 C 63.523438 64.34375 63.59375 63.976562 63.59375 63.597656 L 63.59375 52.808594 Z M 43.519531 83.632812 L 146.765625 83.632812 L 146.765625 52.148438 C 146.765625 51.769531 146.691406 51.40625 146.546875 51.054688 C 146.402344 50.703125 146.195312 50.394531 145.925781 50.125 C 145.65625 49.859375 145.347656 49.652344 144.996094 49.507812 C 144.644531 49.359375 144.277344 49.289062 143.898438 49.289062 L 69.332031 49.289062 L 69.332031 63.597656 C 69.328125 64.160156 69.273438 64.71875 69.160156 65.269531 C 69.050781 65.824219 68.886719 66.359375 68.667969 66.878906 C 68.453125 67.398438 68.1875 67.894531 67.871094 68.363281 C 67.558594 68.832031 67.203125 69.261719 66.804688 69.660156 C 66.402344 70.058594 65.96875 70.414062 65.5 70.730469 C 65.03125 71.042969 64.535156 71.308594 64.015625 71.523438 C 63.492188 71.738281 62.957031 71.902344 62.402344 72.015625 C 61.851562 72.125 61.292969 72.183594 60.726562 72.183594 L 43.519531 72.183594 Z M 166.097656 92.476562 C 166.179688 91.851562 165.996094 91.316406 165.550781 90.871094 C 165.046875 90.359375 164.460938 89.972656 163.792969 89.707031 C 163.121094 89.441406 162.425781 89.324219 161.707031 89.355469 L 23.585938 89.355469 C 21.121094 89.355469 19.398438 90.699219 19.226562 91.960938 L 7.039062 154.292969 C 7.601562 154.882812 8.289062 155.175781 9.101562 155.179688 L 156.515625 155.179688 Z M 166.097656 92.476562 " fill-opacity="1" fill-rule="nonzero"/></g></svg>
