<svg viewBox="0 0 200 200" xmlns="http://www.w3.org/2000/svg">
  <defs>
    <linearGradient id="g" x1="0" y1="0" x2="0" y2="1">
      <stop offset="0" stop-color="#fef2f2"/>
      <stop offset="1" stop-color="#fde68a"/>
    </linearGradient>
  </defs>
  <g transform="translate(10,10)">
    <path d="M60 30c-18 0-30 14-30 32 0 8 2 13 6 19-8 2-14 10-14 19 0 10 8 18 18 18h18v-88z" fill="url(#g)" stroke="#111827" stroke-width="4" stroke-linejoin="round"/>
    <path d="M120 30c18 0 30 14 30 32 0 8-2 13-6 19 8 2 14 10 14 19 0 10-8 18-18 18h-18v-88z" fill="url(#g)" stroke="#111827" stroke-width="4" stroke-linejoin="round"/>
    <rect x="60" y="30" width="60" height="88" rx="30" fill="url(#g)" stroke="#111827" stroke-width="4"/>
    <path d="M90 30v88M60 60h60M60 90h60" stroke="#111827" stroke-width="4" stroke-linecap="round"/>
  </g>
</svg>
