<svg xmlns="http://www.w3.org/2000/svg" xmlns:xlink="http://www.w3.org/1999/xlink" width="187" zoomAndPan="magnify" viewBox="0 0 140.25 132.750001" height="177" preserveAspectRatio="xMidYMid meet" version="1.0"><defs><clipPath id="4cfe9d9fed"><path d="M 49.191406 0.230469 L 89.476562 0.230469 L 89.476562 39 L 49.191406 39 Z M 49.191406 0.230469 " clip-rule="nonzero"/></clipPath><clipPath id="c09eb84a37"><path d="M 0 1 L 138.757812 1 L 138.757812 131 L 0 131 Z M 0 1 " clip-rule="nonzero"/></clipPath></defs><g clip-path="url(#4cfe9d9fed)"><path fill="#000000" d="M 79.949219 24.707031 C 79.785156 24.867188 79.710938 25.097656 79.75 25.324219 L 81.898438 38.015625 C 81.992188 38.585938 81.402344 39.023438 80.894531 38.75 L 69.65625 32.761719 C 69.457031 32.652344 69.214844 32.652344 69.015625 32.761719 L 57.773438 38.75 C 57.269531 39.023438 56.675781 38.585938 56.773438 38.015625 L 58.921875 25.324219 C 58.957031 25.097656 58.882812 24.867188 58.722656 24.707031 L 49.628906 15.71875 C 49.21875 15.316406 49.445312 14.609375 50.011719 14.527344 L 62.578125 12.675781 C 62.800781 12.640625 62.996094 12.5 63.097656 12.292969 L 68.714844 0.75 C 68.96875 0.226562 69.699219 0.226562 69.953125 0.75 L 75.574219 12.292969 C 75.675781 12.5 75.867188 12.640625 76.09375 12.675781 L 88.660156 14.527344 C 89.222656 14.609375 89.449219 15.316406 89.039062 15.71875 Z M 79.949219 24.707031 " fill-opacity="1" fill-rule="nonzero"/></g><g clip-path="url(#c09eb84a37)"><path fill="#236dc0" d="M 77.277344 2.886719 C 78.074219 3.078125 78.871094 3.269531 79.667969 3.460938 C 81.5 3.898438 83.332031 4.34375 85.164062 4.785156 C 85.402344 4.84375 85.640625 4.902344 85.878906 4.960938 C 87.554688 5.367188 89.230469 5.773438 90.90625 6.183594 C 94.667969 7.101562 98.4375 7.996094 102.207031 8.890625 C 103.730469 9.253906 105.25 9.617188 106.773438 9.976562 C 110.761719 10.929688 114.75 11.878906 118.746094 12.808594 C 120.40625 13.195312 122.066406 13.582031 123.726562 13.976562 C 123.925781 14.023438 124.125 14.070312 124.324219 14.117188 C 125.316406 14.355469 126.308594 14.589844 127.300781 14.828125 C 128.960938 15.222656 130.613281 15.613281 132.28125 15.960938 C 132.527344 16.011719 132.773438 16.0625 133.027344 16.117188 C 133.464844 16.207031 133.898438 16.292969 134.335938 16.375 C 135.5625 16.632812 136.277344 16.949219 137.058594 18 C 137.332031 19.089844 137.222656 20.09375 136.695312 21.078125 C 135.351562 22.253906 133.914062 22.964844 132.222656 23.496094 C 132.046875 23.550781 131.867188 23.609375 131.6875 23.664062 C 130.699219 23.980469 129.707031 24.292969 128.714844 24.597656 C 125.046875 25.730469 121.445312 27.035156 117.84375 28.363281 C 117.011719 28.667969 116.179688 28.972656 115.347656 29.277344 C 113.683594 29.886719 112.019531 30.5 110.355469 31.113281 C 109.488281 31.433594 108.621094 31.75 107.75 32.070312 C 103.199219 33.742188 98.648438 35.421875 94.125 37.175781 C 92.5 37.804688 90.871094 38.394531 89.222656 38.960938 C 87.367188 39.601562 85.523438 40.28125 83.679688 40.957031 C 81.136719 41.894531 78.59375 42.824219 76.035156 43.707031 C 75.808594 43.789062 75.578125 43.871094 75.347656 43.957031 C 72.28125 44.894531 69.121094 43.648438 66.171875 42.804688 C 65.660156 42.664062 65.148438 42.519531 64.636719 42.378906 C 63.585938 42.085938 62.535156 41.792969 61.484375 41.496094 C 59.363281 40.902344 57.234375 40.320312 55.105469 39.742188 C 54.441406 39.5625 53.78125 39.382812 53.117188 39.199219 C 50.328125 38.4375 47.53125 37.691406 44.730469 36.957031 C 41.554688 36.121094 38.386719 35.25 35.21875 34.375 C 32.527344 33.632812 29.839844 32.902344 27.144531 32.175781 C 24.140625 31.363281 21.132812 30.546875 18.128906 29.722656 C 17.710938 29.609375 17.289062 29.492188 16.871094 29.378906 C 16.285156 29.214844 15.703125 29.054688 15.117188 28.894531 C 14.933594 28.84375 14.753906 28.796875 14.566406 28.746094 C 13.414062 28.425781 12.273438 28.085938 11.136719 27.707031 C 10.800781 27.613281 10.386719 27.640625 9.894531 27.789062 C 8.667969 28.816406 8.070312 30.140625 7.804688 31.695312 C 7.785156 32.074219 7.769531 32.457031 7.769531 32.835938 C 7.765625 33.054688 7.761719 33.277344 7.761719 33.503906 C 7.761719 33.738281 7.757812 33.976562 7.757812 34.214844 C 7.757812 34.457031 7.753906 34.707031 7.753906 34.953125 C 7.75 35.472656 7.75 35.988281 7.75 36.503906 C 7.746094 37.289062 7.738281 38.074219 7.730469 38.863281 C 7.730469 39.363281 7.730469 39.867188 7.726562 40.371094 C 7.726562 40.605469 7.722656 40.835938 7.71875 41.078125 C 7.726562 43.179688 8.320312 44.839844 9.488281 46.589844 C 10.378906 47.21875 11.28125 47.535156 12.320312 47.847656 C 12.480469 47.894531 12.640625 47.945312 12.804688 47.992188 C 13.144531 48.097656 13.484375 48.199219 13.824219 48.296875 C 14.320312 48.445312 14.816406 48.59375 15.308594 48.746094 C 17.644531 49.449219 20 50.089844 22.359375 50.71875 C 25.59375 51.585938 28.816406 52.503906 32.042969 53.421875 C 32.648438 53.59375 33.257812 53.765625 33.867188 53.9375 C 39.421875 55.515625 44.972656 57.097656 50.515625 58.703125 C 55.5625 60.164062 60.617188 61.609375 65.683594 63.003906 C 65.886719 63.058594 66.09375 63.117188 66.304688 63.171875 C 66.679688 63.277344 67.058594 63.382812 67.4375 63.484375 C 68.136719 63.679688 68.816406 63.882812 69.492188 64.152344 C 70.71875 64.640625 71.738281 64.539062 72.941406 64.082031 C 73.386719 63.882812 73.835938 63.679688 74.28125 63.472656 C 76.070312 62.640625 77.914062 61.953125 79.757812 61.257812 C 80.078125 61.136719 80.398438 61.019531 80.71875 60.898438 C 81.480469 60.613281 82.242188 60.328125 83.003906 60.042969 C 83.546875 60.855469 83.542969 61.148438 83.546875 62.105469 C 83.546875 62.367188 83.546875 62.632812 83.546875 62.902344 C 83.546875 63.179688 83.546875 63.453125 83.542969 63.734375 C 83.546875 64.007812 83.546875 64.28125 83.546875 64.5625 C 83.546875 64.828125 83.546875 65.09375 83.546875 65.363281 C 83.546875 65.605469 83.546875 65.84375 83.546875 66.09375 C 83.476562 66.828125 83.359375 67.324219 83.003906 67.96875 C 82.683594 68.199219 82.328125 68.402344 81.933594 68.578125 C 81.71875 68.675781 81.503906 68.777344 81.28125 68.878906 C 81.058594 68.976562 80.832031 69.070312 80.601562 69.171875 C 80.386719 69.265625 80.171875 69.359375 79.949219 69.453125 C 79.292969 69.730469 78.632812 70 77.972656 70.269531 C 77.753906 70.355469 77.53125 70.449219 77.308594 70.539062 C 76.867188 70.71875 76.421875 70.898438 75.976562 71.070312 C 75.539062 71.242188 75.109375 71.425781 74.679688 71.613281 C 71.296875 73.019531 68.394531 72.152344 65.085938 71.054688 C 64.1875 70.757812 63.285156 70.472656 62.386719 70.183594 C 61.9375 70.039062 61.492188 69.898438 61.042969 69.753906 C 59.425781 69.230469 57.796875 68.746094 56.15625 68.300781 C 53.847656 67.667969 51.550781 67.011719 49.253906 66.34375 C 45.824219 65.347656 42.390625 64.359375 38.949219 63.40625 C 38.292969 63.226562 37.636719 63.042969 36.984375 62.859375 C 32.996094 61.746094 28.996094 60.683594 24.980469 59.664062 C 23.363281 59.269531 21.765625 58.8125 20.167969 58.34375 C 19.941406 58.28125 19.714844 58.214844 19.484375 58.144531 C 18.339844 57.8125 17.195312 57.472656 16.054688 57.128906 C 15.628906 57.003906 15.203125 56.878906 14.78125 56.753906 C 14.585938 56.695312 14.394531 56.636719 14.195312 56.574219 C 12.878906 56.191406 11.71875 56.042969 10.441406 56.683594 C 8.367188 58.449219 7.851562 60.839844 7.632812 63.449219 C 7.273438 67.214844 7.675781 70.820312 8.84375 74.265625 C 10.363281 75.878906 12.992188 76.371094 15.054688 76.996094 C 15.992188 77.277344 16.929688 77.570312 17.867188 77.859375 C 18.054688 77.917969 18.246094 77.976562 18.4375 78.035156 C 20.101562 78.550781 21.757812 79.09375 23.40625 79.652344 C 26.417969 80.664062 29.441406 81.640625 32.464844 82.609375 C 33.230469 82.851562 33.996094 83.097656 34.761719 83.34375 C 37.351562 84.175781 39.945312 84.996094 42.542969 85.804688 C 45.484375 86.722656 48.421875 87.652344 51.351562 88.601562 C 53.332031 89.242188 55.308594 89.878906 57.292969 90.511719 C 57.542969 90.589844 57.792969 90.671875 58.054688 90.753906 C 59.308594 91.152344 60.5625 91.550781 61.816406 91.953125 C 62.050781 92.027344 62.285156 92.101562 62.523438 92.179688 C 62.980469 92.324219 63.433594 92.46875 63.890625 92.613281 C 64.800781 92.902344 65.710938 93.191406 66.613281 93.515625 C 68.660156 94.246094 69.859375 94.484375 71.890625 93.601562 C 72.429688 93.34375 72.964844 93.082031 73.496094 92.820312 C 73.941406 92.605469 74.386719 92.394531 74.832031 92.183594 C 75.144531 92.035156 75.457031 91.882812 75.769531 91.734375 C 77.457031 90.921875 79.164062 90.144531 80.871094 89.371094 C 81.363281 89.148438 81.855469 88.925781 82.347656 88.699219 C 84.125 87.894531 85.902344 87.101562 87.691406 86.324219 C 88.980469 85.765625 90.257812 85.175781 91.527344 84.574219 C 91.695312 84.496094 91.863281 84.417969 92.035156 84.335938 C 92.457031 84.140625 92.878906 83.941406 93.300781 83.742188 C 97.417969 81.808594 101.566406 79.957031 105.734375 78.144531 C 108.417969 76.976562 111.082031 75.761719 113.738281 74.542969 C 114.453125 74.210938 115.171875 73.882812 115.886719 73.554688 C 116.066406 73.472656 116.246094 73.390625 116.429688 73.304688 C 120.078125 71.632812 123.757812 70.027344 127.449219 68.449219 C 127.792969 68.300781 128.140625 68.152344 128.488281 68.003906 C 128.699219 67.914062 128.910156 67.824219 129.128906 67.730469 C 129.054688 67.457031 128.980469 67.183594 128.902344 66.902344 C 128.425781 65.15625 128.371094 63.332031 128.359375 61.53125 C 128.359375 61.339844 128.355469 61.148438 128.355469 60.953125 C 128.351562 60.550781 128.351562 60.152344 128.351562 59.75 C 128.347656 59.140625 128.339844 58.527344 128.332031 57.917969 C 128.332031 57.527344 128.332031 57.132812 128.328125 56.742188 C 128.328125 56.5625 128.324219 56.378906 128.320312 56.191406 C 128.324219 55.105469 128.457031 54.417969 129.128906 53.554688 C 130.113281 52.746094 130.738281 52.472656 132.011719 52.59375 C 132.507812 53.609375 132.550781 54.507812 132.523438 55.617188 C 132.519531 55.789062 132.519531 55.964844 132.515625 56.144531 C 132.507812 56.882812 132.496094 57.621094 132.484375 58.359375 C 132.324219 60.835938 132.730469 63.160156 133.695312 65.328125 C 134.214844 65.554688 134.769531 65.753906 135.359375 65.929688 C 136.5 66.28125 137.257812 66.550781 138.019531 67.488281 C 138.601562 68.804688 138.699219 69.988281 138.257812 71.363281 C 137.113281 73.011719 134.949219 73.699219 133.167969 74.472656 C 132.742188 74.660156 132.316406 74.847656 131.890625 75.035156 C 131.410156 75.246094 130.925781 75.457031 130.445312 75.667969 C 128.347656 76.585938 126.253906 77.519531 124.160156 78.449219 C 123.929688 78.554688 123.695312 78.65625 123.460938 78.761719 C 118.617188 80.914062 113.78125 83.085938 108.949219 85.269531 C 108.773438 85.347656 108.59375 85.425781 108.414062 85.507812 C 106.792969 86.242188 105.171875 86.972656 103.550781 87.707031 C 100.0625 89.28125 96.570312 90.851562 93.078125 92.414062 C 91.003906 93.34375 88.925781 94.277344 86.855469 95.210938 C 85.839844 95.667969 84.824219 96.125 83.808594 96.582031 C 83.398438 96.765625 82.988281 96.949219 82.578125 97.132812 C 82.375 97.222656 82.171875 97.316406 81.964844 97.410156 C 80.730469 97.960938 79.5 98.523438 78.273438 99.09375 C 77.484375 99.457031 76.695312 99.816406 75.90625 100.175781 C 75.539062 100.34375 75.167969 100.515625 74.800781 100.6875 C 74.289062 100.929688 73.773438 101.164062 73.261719 101.394531 C 73.113281 101.464844 72.96875 101.535156 72.816406 101.609375 C 70.484375 102.644531 68.339844 101.964844 66.03125 101.214844 C 65.742188 101.125 65.453125 101.03125 65.152344 100.9375 C 64.386719 100.699219 63.617188 100.453125 62.851562 100.207031 C 62.09375 99.964844 61.339844 99.726562 60.582031 99.488281 C 59.375 99.105469 58.167969 98.722656 56.960938 98.339844 C 55.136719 97.757812 53.3125 97.191406 51.484375 96.625 C 49.023438 95.863281 46.566406 95.097656 44.109375 94.320312 C 43.585938 94.15625 43.058594 93.992188 42.535156 93.824219 C 40.855469 93.292969 39.179688 92.761719 37.503906 92.222656 C 33.429688 90.90625 29.34375 89.625 25.253906 88.359375 C 24.363281 88.085938 23.472656 87.808594 22.582031 87.535156 C 22.003906 87.355469 21.425781 87.175781 20.847656 87 C 19.503906 86.582031 18.164062 86.160156 16.832031 85.722656 C 16.589844 85.644531 16.347656 85.5625 16.101562 85.484375 C 15.65625 85.335938 15.210938 85.1875 14.769531 85.035156 C 13.453125 84.605469 12.242188 84.304688 10.867188 84.707031 C 9.445312 85.441406 8.402344 86.378906 7.808594 87.910156 C 7.734375 88.582031 7.683594 89.234375 7.65625 89.90625 C 7.648438 90.101562 7.640625 90.292969 7.628906 90.492188 C 7.550781 92.273438 7.527344 94.054688 7.566406 95.839844 C 7.570312 96 7.574219 96.164062 7.574219 96.332031 C 7.628906 98.679688 7.832031 100.558594 9.25 102.503906 C 11.164062 103.941406 13.699219 104.550781 15.960938 105.253906 C 19.21875 106.285156 22.449219 107.386719 25.675781 108.507812 C 26.53125 108.808594 27.390625 109.101562 28.246094 109.394531 C 31.203125 110.410156 34.15625 111.4375 37.101562 112.484375 C 39.65625 113.390625 42.214844 114.285156 44.789062 115.132812 C 47.382812 115.988281 49.964844 116.878906 52.542969 117.78125 C 53.210938 118.015625 53.878906 118.246094 54.550781 118.480469 C 56.480469 119.148438 58.40625 119.820312 60.3125 120.546875 C 61.066406 120.835938 61.820312 121.113281 62.578125 121.390625 C 62.925781 121.519531 63.269531 121.65625 63.613281 121.792969 C 66.507812 122.949219 68.5 122.707031 71.328125 121.546875 C 71.773438 121.332031 72.1875 121.09375 72.613281 120.839844 C 74.382812 119.839844 76.199219 118.96875 78.046875 118.121094 C 78.632812 117.851562 79.21875 117.582031 79.800781 117.3125 C 79.949219 117.246094 80.09375 117.179688 80.246094 117.109375 C 81.773438 116.40625 83.289062 115.671875 84.804688 114.9375 C 87.214844 113.769531 89.636719 112.632812 92.070312 111.507812 C 94.5 110.386719 96.921875 109.238281 99.339844 108.089844 C 102.265625 106.703125 105.191406 105.324219 108.132812 103.964844 C 110.300781 102.960938 112.460938 101.945312 114.625 100.929688 C 114.792969 100.847656 114.960938 100.769531 115.136719 100.6875 C 116.730469 99.9375 118.328125 99.183594 119.921875 98.433594 C 120.855469 97.992188 121.789062 97.550781 122.722656 97.113281 C 123.242188 96.867188 123.765625 96.621094 124.289062 96.375 C 127.421875 94.894531 129.195312 94.15625 129.609375 94.15625 C 129.542969 94.027344 129.476562 93.898438 129.40625 93.765625 C 128.523438 91.851562 128.441406 89.980469 128.40625 87.910156 C 128.402344 87.667969 128.398438 87.425781 128.394531 87.175781 C 128.378906 86.375 128.371094 85.574219 128.363281 84.773438 C 128.359375 84.515625 128.355469 84.253906 128.355469 83.992188 C 128.351562 82.410156 128.367188 81.011719 129.265625 79.652344 C 130.125 79.078125 130.992188 79.066406 132.011719 79.023438 C 132.542969 80.089844 132.566406 81.09375 132.574219 82.261719 C 132.578125 82.457031 132.582031 82.652344 132.585938 82.855469 C 132.597656 83.480469 132.605469 84.101562 132.613281 84.726562 C 132.621094 85.546875 132.636719 86.367188 132.648438 87.1875 C 132.652344 87.371094 132.652344 87.554688 132.652344 87.746094 C 132.675781 89.050781 132.886719 90.25 133.214844 91.515625 C 133.441406 91.558594 133.671875 91.601562 133.90625 91.648438 C 134.207031 91.707031 134.507812 91.769531 134.820312 91.828125 C 135.117188 91.886719 135.417969 91.945312 135.722656 92.007812 C 136.691406 92.265625 137.480469 92.519531 138.0625 93.371094 C 138.511719 94.601562 138.707031 95.78125 138.257812 97.039062 C 137.285156 98.570312 135.941406 99.117188 134.324219 99.847656 C 133.78125 100.101562 133.234375 100.355469 132.691406 100.609375 C 132.417969 100.734375 132.144531 100.859375 131.859375 100.992188 C 130.648438 101.550781 129.445312 102.125 128.242188 102.699219 C 128.015625 102.808594 127.789062 102.917969 127.558594 103.027344 C 125.769531 103.882812 124 104.765625 122.226562 105.65625 C 119.335938 107.109375 116.414062 108.492188 113.488281 109.871094 C 111.785156 110.671875 110.085938 111.476562 108.410156 112.324219 C 105.390625 113.847656 102.34375 115.300781 99.296875 116.769531 C 98.894531 116.964844 98.488281 117.160156 98.082031 117.355469 C 95.433594 118.632812 92.777344 119.882812 90.105469 121.109375 C 88.324219 121.925781 86.558594 122.753906 84.8125 123.640625 C 82.136719 124.992188 79.433594 126.289062 76.726562 127.582031 C 76.128906 127.871094 75.527344 128.160156 74.929688 128.453125 C 74.148438 128.832031 73.367188 129.207031 72.582031 129.578125 C 72.355469 129.691406 72.125 129.804688 71.890625 129.917969 C 68.0625 131.710938 64.078125 129.617188 60.355469 128.273438 C 59.46875 127.953125 58.585938 127.640625 57.699219 127.324219 C 57.519531 127.261719 57.34375 127.199219 57.160156 127.132812 C 55.527344 126.554688 53.882812 126.003906 52.238281 125.464844 C 49.949219 124.707031 47.675781 123.914062 45.410156 123.089844 C 41.640625 121.722656 37.84375 120.4375 34.046875 119.144531 C 33.296875 118.886719 32.550781 118.632812 31.800781 118.375 C 31.613281 118.3125 31.421875 118.246094 31.226562 118.179688 C 27.617188 116.945312 24.011719 115.695312 20.414062 114.433594 C 18.472656 113.753906 16.535156 113.078125 14.585938 112.425781 C 14.265625 112.316406 13.945312 112.207031 13.625 112.101562 C 13.054688 111.910156 12.484375 111.71875 11.914062 111.53125 C 8.046875 110.226562 4.550781 108.011719 2.648438 104.273438 C 0.402344 99.167969 0.0664062 91.351562 1.742188 86.011719 C 2.675781 83.699219 4.066406 82.152344 5.886719 80.460938 C 5.550781 79.683594 5.171875 79.265625 4.535156 78.722656 C 3.601562 77.8125 3.015625 76.851562 2.433594 75.703125 C 2.351562 75.550781 2.269531 75.394531 2.1875 75.238281 C 0.988281 72.761719 0.996094 70.105469 1.003906 67.410156 C 1.003906 66.847656 1 66.289062 0.992188 65.726562 C 0.972656 60.875 1.800781 56.773438 5.238281 53.179688 C 5.671875 52.789062 6.046875 52.59375 6.367188 52.59375 C 6.265625 52.484375 6.160156 52.371094 6.058594 52.257812 C 2.675781 48.496094 1.019531 44.726562 1.050781 39.621094 C 1.050781 39.414062 1.050781 39.210938 1.054688 38.996094 C 1.066406 37.359375 1.109375 35.71875 1.171875 34.082031 C 1.179688 33.859375 1.1875 33.636719 1.191406 33.40625 C 1.375 29.230469 2.519531 25.691406 5.644531 22.804688 C 6.621094 21.917969 7.550781 21.523438 8.777344 21.113281 C 8.96875 21.050781 9.15625 20.984375 9.351562 20.917969 C 9.972656 20.703125 10.59375 20.492188 11.214844 20.28125 C 11.648438 20.132812 12.085938 19.984375 12.519531 19.832031 C 13.40625 19.527344 14.289062 19.222656 15.175781 18.921875 C 16.855469 18.34375 18.527344 17.75 20.203125 17.15625 C 23.097656 16.128906 26 15.117188 28.910156 14.121094 C 31.070312 13.378906 33.222656 12.621094 35.378906 11.863281 C 41.472656 9.714844 47.582031 7.617188 53.714844 5.585938 C 57.03125 4.488281 60.328125 3.335938 63.621094 2.167969 C 63.800781 2.101562 63.984375 2.039062 64.171875 1.972656 C 64.507812 1.851562 64.84375 1.734375 65.183594 1.613281 C 69.085938 0.230469 73.394531 1.945312 77.277344 2.886719 Z M 132.011719 27.371094 C 132.585938 28.230469 132.566406 28.867188 132.574219 29.863281 C 132.578125 30.039062 132.582031 30.210938 132.585938 30.390625 C 132.597656 30.949219 132.605469 31.511719 132.613281 32.070312 C 132.566406 34.304688 132.765625 36.5 133.210938 38.660156 C 133.613281 38.996094 134.09375 39.234375 134.652344 39.382812 C 136.429688 40.007812 137.550781 40.730469 138.019531 41.542969 C 138.378906 42.757812 138.527344 43.980469 138.054688 45.183594 C 137.097656 46.707031 135.617188 47.21875 134 47.824219 C 133.183594 48.132812 132.371094 48.464844 131.558594 48.792969 C 130.800781 49.097656 130.042969 49.398438 129.285156 49.699219 C 128.09375 50.171875 126.902344 50.652344 125.714844 51.132812 C 119.871094 53.5 115.726562 55.058594 113.277344 55.808594 C 112.792969 55.957031 112.308594 56.113281 111.824219 56.269531 C 110.460938 56.703125 109.503906 56.917969 108.949219 56.917969 C 108.78125 54.429688 108.679688 51.964844 108.707031 49.472656 C 111.554688 47.910156 114.542969 46.84375 117.597656 45.761719 C 118.082031 45.589844 118.566406 45.417969 119.046875 45.242188 C 119.769531 44.988281 120.488281 44.730469 121.210938 44.472656 C 123.136719 43.789062 125.058594 43.089844 126.976562 42.382812 C 127.183594 42.308594 127.390625 42.234375 127.601562 42.15625 C 127.78125 42.089844 127.960938 42.023438 128.144531 41.953125 C 128.628906 41.789062 129.113281 41.660156 129.609375 41.542969 C 129.496094 41.261719 129.382812 40.976562 129.265625 40.6875 C 128.644531 39.152344 128.609375 37.554688 128.609375 35.925781 C 128.605469 35.738281 128.605469 35.550781 128.605469 35.359375 C 128.605469 34.96875 128.605469 34.574219 128.605469 34.183594 C 128.601562 33.585938 128.597656 32.988281 128.59375 32.390625 C 128.59375 32.007812 128.59375 31.625 128.59375 31.242188 C 128.589844 31.0625 128.589844 30.886719 128.585938 30.703125 C 128.59375 29.726562 128.671875 28.960938 129.128906 28.089844 C 130.058594 27.25 130.800781 26.996094 132.011719 27.371094 Z M 16.457031 35.777344 C 18.015625 35.855469 19.390625 36.226562 20.878906 36.675781 C 22.191406 37.050781 23.519531 37.332031 24.847656 37.628906 C 27.746094 38.289062 30.605469 39.050781 33.460938 39.863281 C 39.007812 41.4375 44.574219 42.929688 50.15625 44.382812 C 50.691406 44.523438 51.230469 44.660156 51.769531 44.800781 C 52.027344 44.871094 52.289062 44.9375 52.558594 45.007812 C 54.398438 45.492188 56.230469 46 58.058594 46.515625 C 60.261719 47.140625 62.46875 47.710938 64.699219 48.226562 C 65.285156 48.359375 65.875 48.496094 66.460938 48.636719 C 66.707031 48.691406 66.960938 48.75 67.214844 48.808594 C 67.8125 48.976562 68.304688 49.132812 68.828125 49.472656 C 68.96875 49.941406 69.046875 50.421875 69.066406 50.914062 C 68.910156 51.152344 68.75 51.390625 68.585938 51.632812 C 67.125 51.765625 65.851562 51.496094 64.445312 51.132812 C 64.234375 51.078125 64.023438 51.027344 63.808594 50.972656 C 63.121094 50.800781 62.4375 50.625 61.757812 50.449219 C 61.277344 50.324219 60.796875 50.203125 60.316406 50.082031 C 57.257812 49.304688 54.203125 48.492188 51.160156 47.648438 C 48.699219 46.96875 46.230469 46.320312 43.761719 45.675781 C 40.457031 44.820312 37.15625 43.945312 33.871094 43.015625 C 33.714844 42.96875 33.554688 42.925781 33.390625 42.878906 C 32.390625 42.59375 31.390625 42.308594 30.390625 42.023438 C 28.117188 41.375 25.84375 40.761719 23.542969 40.222656 C 21.886719 39.832031 20.234375 39.4375 18.585938 39.007812 C 18.40625 38.960938 18.222656 38.917969 18.039062 38.871094 C 17.292969 38.671875 16.773438 38.496094 16.214844 37.953125 C 15.871094 37.242188 16.015625 36.761719 16.214844 36.019531 Z M 105.34375 40.101562 C 105.859375 40.890625 105.882812 41.542969 105.882812 42.472656 C 105.882812 42.757812 105.886719 43.050781 105.886719 43.34375 C 105.882812 43.65625 105.882812 43.976562 105.878906 44.296875 C 105.878906 44.632812 105.878906 44.96875 105.878906 45.304688 C 105.878906 46.210938 105.875 47.121094 105.871094 48.03125 C 105.871094 48.601562 105.867188 49.167969 105.867188 49.738281 C 105.859375 51.917969 105.847656 54.101562 105.835938 56.28125 C 105.828125 57.707031 105.820312 59.128906 105.820312 60.550781 C 105.816406 62.308594 105.804688 64.070312 105.792969 65.828125 C 105.785156 66.757812 105.777344 67.683594 105.777344 68.613281 C 105.777344 69.484375 105.769531 70.359375 105.757812 71.230469 C 105.753906 71.703125 105.753906 72.175781 105.757812 72.644531 C 105.730469 74.183594 105.484375 75.253906 105.015625 75.851562 C 104.59375 76.203125 104.152344 76.425781 103.695312 76.523438 C 102.769531 76.34375 102.042969 75.972656 101.246094 75.492188 C 101.101562 75.410156 100.957031 75.328125 100.808594 75.246094 C 99.222656 74.316406 98.203125 73.074219 97.175781 71.574219 C 96.003906 71.917969 95.277344 72.554688 94.535156 73.496094 C 94.28125 73.964844 94.0625 74.441406 93.839844 74.921875 C 93.445312 75.652344 92.914062 76.214844 92.355469 76.824219 C 91.671875 77.582031 91.050781 78.386719 90.425781 79.191406 C 89.632812 80.148438 88.921875 80.730469 88.285156 80.945312 C 87.214844 79.90625 87.054688 79.445312 87.011719 77.949219 C 87.007812 77.789062 87.003906 77.625 86.996094 77.460938 C 86.980469 76.910156 86.96875 76.359375 86.957031 75.808594 C 86.949219 75.617188 86.945312 75.425781 86.941406 75.226562 C 86.808594 70.058594 86.785156 64.886719 86.773438 59.71875 C 86.773438 58.617188 86.765625 57.519531 86.761719 56.417969 C 86.75 55.070312 86.746094 53.71875 86.746094 52.371094 C 86.742188 51.859375 86.742188 51.351562 86.738281 50.84375 C 86.730469 50.140625 86.730469 49.4375 86.734375 48.734375 C 86.730469 48.527344 86.726562 48.320312 86.722656 48.105469 C 86.730469 47.171875 86.925781 46.503906 87.304688 46.101562 C 87.8125 45.867188 88.238281 45.738281 88.789062 45.648438 C 90.101562 45.386719 91.269531 44.890625 92.492188 44.367188 C 94.25 43.628906 96.003906 42.9375 97.808594 42.324219 C 98.757812 42 99.6875 41.644531 100.617188 41.261719 C 100.832031 41.171875 101.050781 41.082031 101.273438 40.988281 C 101.695312 40.8125 102.117188 40.632812 102.539062 40.453125 C 103.792969 39.925781 104.730469 39.8125 105.34375 40.101562 Z M 19.097656 43.464844 C 20.144531 43.703125 21.15625 44.019531 22.175781 44.351562 C 24.109375 44.96875 26.035156 45.507812 28.011719 45.964844 C 30.554688 46.558594 33.0625 47.257812 35.570312 47.984375 C 36.011719 48.113281 36.457031 48.242188 36.898438 48.367188 C 38.171875 48.734375 39.445312 49.101562 40.71875 49.472656 C 44.300781 50.507812 47.886719 51.519531 51.5 52.441406 C 53.695312 53.003906 55.867188 53.625 58.042969 54.261719 C 59.609375 54.714844 61.183594 55.136719 62.765625 55.519531 C 62.945312 55.5625 63.121094 55.605469 63.300781 55.652344 C 64.164062 55.863281 65.027344 56.070312 65.890625 56.269531 C 66.207031 56.34375 66.519531 56.421875 66.832031 56.496094 C 67.105469 56.5625 67.382812 56.625 67.667969 56.691406 C 68.34375 56.917969 68.664062 57.058594 69.066406 57.640625 C 69.046875 58.128906 68.96875 58.609375 68.828125 59.082031 C 67.808594 59.761719 67.199219 59.472656 66.035156 59.25 C 64.714844 58.972656 63.40625 58.664062 62.101562 58.332031 C 61.808594 58.257812 61.519531 58.183594 61.21875 58.109375 C 58.914062 57.519531 56.625 56.875 54.339844 56.210938 C 52.289062 55.617188 50.222656 55.070312 48.152344 54.546875 C 45.425781 53.855469 42.714844 53.117188 40.011719 52.339844 C 39.835938 52.289062 39.65625 52.238281 39.472656 52.183594 C 37.769531 51.695312 36.070312 51.199219 34.371094 50.695312 C 31.496094 49.839844 28.609375 49.074219 25.695312 48.355469 C 22.496094 47.566406 19.332031 46.707031 16.214844 45.628906 C 16.105469 45.175781 16.023438 44.695312 15.972656 44.1875 C 16.761719 43.097656 17.882812 43.328125 19.097656 43.464844 Z M 18.859375 63.644531 C 19.535156 63.792969 20.179688 64.007812 20.832031 64.238281 C 21.023438 64.300781 21.210938 64.363281 21.40625 64.429688 C 21.820312 64.570312 22.234375 64.710938 22.648438 64.851562 C 23.792969 65.238281 24.941406 65.617188 26.085938 65.996094 C 26.332031 66.078125 26.578125 66.160156 26.832031 66.242188 C 29.929688 67.261719 33.046875 68.199219 36.171875 69.140625 C 36.445312 69.226562 36.726562 69.308594 37.007812 69.394531 C 38.089844 69.71875 39.167969 70.046875 40.246094 70.371094 C 42.4375 71.03125 44.628906 71.703125 46.816406 72.378906 C 48.1875 72.800781 49.5625 73.21875 50.945312 73.617188 C 52.796875 74.152344 54.632812 74.75 56.464844 75.34375 C 58.011719 75.839844 59.5625 76.316406 61.121094 76.769531 C 61.304688 76.824219 61.488281 76.878906 61.675781 76.933594 C 62.582031 77.199219 63.492188 77.460938 64.398438 77.722656 C 64.734375 77.816406 65.070312 77.914062 65.40625 78.011719 C 65.703125 78.097656 65.996094 78.183594 66.300781 78.269531 C 67.808594 78.753906 68.730469 79.164062 69.070312 79.503906 C 69.019531 80.0625 68.9375 80.625 68.828125 81.183594 C 67.515625 81.839844 65.910156 81.347656 64.589844 80.921875 C 64.421875 80.867188 64.25 80.816406 64.074219 80.761719 C 63.519531 80.589844 62.96875 80.414062 62.417969 80.238281 C 62.03125 80.117188 61.644531 79.996094 61.257812 79.875 C 60.472656 79.628906 59.6875 79.382812 58.90625 79.136719 C 57.878906 78.8125 56.847656 78.492188 55.820312 78.175781 C 53.054688 77.320312 51.070312 76.703125 49.867188 76.320312 C 47.441406 75.542969 45.007812 74.796875 42.566406 74.0625 C 42.402344 74.011719 42.238281 73.960938 42.066406 73.910156 C 40.519531 73.441406 38.96875 72.976562 37.421875 72.507812 C 33.066406 71.199219 28.726562 69.855469 24.402344 68.449219 C 23.175781 68.050781 21.949219 67.660156 20.71875 67.265625 C 20.5 67.195312 20.28125 67.121094 20.050781 67.050781 C 19.140625 66.757812 18.234375 66.488281 17.300781 66.273438 C 16.738281 66.121094 16.296875 65.886719 15.976562 65.566406 C 16.003906 65.085938 16.085938 64.605469 16.214844 64.125 C 17.117188 63.523438 17.816406 63.539062 18.859375 63.644531 Z M 17.640625 71.453125 C 18.832031 71.484375 19.875 71.78125 20.992188 72.15625 C 21.402344 72.289062 21.808594 72.417969 22.21875 72.550781 C 22.449219 72.625 22.675781 72.699219 22.910156 72.773438 C 24.363281 73.238281 25.820312 73.683594 27.277344 74.132812 C 27.609375 74.230469 27.9375 74.332031 28.265625 74.433594 C 29.113281 74.695312 29.960938 74.957031 30.808594 75.214844 C 32.320312 75.679688 33.832031 76.144531 35.34375 76.609375 C 35.507812 76.660156 35.671875 76.710938 35.84375 76.761719 C 39.027344 77.742188 42.207031 78.726562 45.382812 79.714844 C 46.554688 80.078125 47.726562 80.441406 48.898438 80.804688 C 50.078125 81.167969 51.253906 81.535156 52.433594 81.898438 C 53.027344 82.082031 53.617188 82.265625 54.210938 82.449219 C 57.402344 83.4375 60.589844 84.429688 63.769531 85.449219 C 65.191406 85.902344 66.613281 86.335938 68.042969 86.75 C 68.40625 86.882812 68.75 87.109375 69.070312 87.429688 C 69.027344 88 68.949219 88.558594 68.828125 89.109375 C 67.332031 89.859375 65.59375 89.078125 64.128906 88.601562 C 63.570312 88.425781 63.015625 88.246094 62.457031 88.070312 C 62.304688 88.023438 62.148438 87.972656 61.992188 87.925781 C 59.886719 87.257812 57.777344 86.621094 55.664062 85.984375 C 51.503906 84.722656 47.347656 83.445312 43.195312 82.152344 C 42.382812 81.898438 41.566406 81.644531 40.75 81.394531 C 38.265625 80.625 35.777344 79.851562 33.296875 79.066406 C 33.109375 79.007812 32.925781 78.949219 32.734375 78.890625 C 31.972656 78.648438 31.210938 78.40625 30.449219 78.164062 C 28.191406 77.449219 25.929688 76.742188 23.664062 76.050781 C 23.449219 75.984375 23.234375 75.917969 23.011719 75.851562 C 21.964844 75.53125 20.914062 75.210938 19.867188 74.898438 C 19.488281 74.78125 19.113281 74.667969 18.734375 74.550781 C 18.5625 74.5 18.390625 74.449219 18.214844 74.394531 C 17.453125 74.164062 16.882812 73.9375 16.214844 73.496094 C 16.164062 73.015625 16.164062 72.535156 16.214844 72.054688 C 16.535156 71.734375 17.011719 71.535156 17.640625 71.453125 Z M 17.367188 91.914062 C 18.882812 91.933594 20.167969 92.492188 21.558594 93.046875 C 22.140625 93.269531 22.722656 93.492188 23.304688 93.710938 C 23.453125 93.769531 23.601562 93.828125 23.753906 93.886719 C 25.324219 94.488281 26.90625 95.039062 28.496094 95.582031 C 28.785156 95.683594 29.070312 95.78125 29.367188 95.882812 C 32.90625 97.089844 36.453125 98.265625 40 99.441406 C 45.121094 101.140625 50.238281 102.851562 55.339844 104.617188 C 56.597656 105.050781 57.855469 105.480469 59.113281 105.910156 C 60.0625 106.234375 61.011719 106.5625 61.957031 106.890625 C 62.421875 107.046875 62.882812 107.207031 63.34375 107.363281 C 63.988281 107.582031 64.636719 107.808594 65.28125 108.03125 C 65.472656 108.09375 65.664062 108.160156 65.863281 108.226562 C 66.976562 108.617188 67.898438 109.039062 68.828125 109.773438 C 68.90625 110.011719 68.984375 110.246094 69.066406 110.492188 C 68.835938 110.921875 68.597656 111.324219 68.347656 111.695312 C 67.046875 111.566406 65.9375 111.335938 64.703125 110.882812 C 64.546875 110.828125 64.386719 110.769531 64.222656 110.710938 C 63.882812 110.589844 63.542969 110.464844 63.203125 110.339844 C 62.289062 110.007812 61.371094 109.679688 60.453125 109.351562 C 60.265625 109.285156 60.082031 109.21875 59.890625 109.152344 C 58.160156 108.535156 56.425781 107.945312 54.683594 107.371094 C 54.390625 107.273438 54.101562 107.175781 53.800781 107.078125 C 53.199219 106.878906 52.597656 106.679688 51.996094 106.480469 C 50.449219 105.972656 48.90625 105.457031 47.363281 104.941406 C 46.449219 104.632812 45.53125 104.332031 44.617188 104.027344 C 44.25 103.902344 43.878906 103.777344 43.511719 103.65625 C 43.328125 103.59375 43.144531 103.535156 42.957031 103.472656 C 41.84375 103.101562 41.105469 102.855469 40.734375 102.730469 C 40.367188 102.609375 40 102.484375 39.632812 102.363281 C 38.71875 102.058594 37.804688 101.753906 36.894531 101.449219 C 35.242188 100.898438 33.589844 100.347656 31.9375 99.804688 C 28.652344 98.726562 25.382812 97.613281 22.121094 96.46875 C 21.699219 96.320312 21.277344 96.171875 20.855469 96.027344 C 20.265625 95.824219 19.675781 95.617188 19.089844 95.40625 C 18.914062 95.347656 18.734375 95.285156 18.554688 95.226562 C 17.453125 94.824219 16.730469 94.371094 15.972656 93.4375 C 16.027344 92.238281 16.167969 92.019531 17.367188 91.914062 Z M 16.695312 99.441406 C 18.378906 99.503906 19.867188 100.0625 21.441406 100.628906 C 21.710938 100.722656 21.988281 100.820312 22.261719 100.917969 C 23.695312 101.425781 25.128906 101.9375 26.558594 102.453125 C 27.117188 102.65625 27.679688 102.859375 28.242188 103.0625 C 28.523438 103.160156 28.800781 103.261719 29.089844 103.367188 C 31.675781 104.289062 34.289062 105.125 36.910156 105.949219 C 40.320312 107.03125 43.695312 108.214844 47.066406 109.417969 C 48.839844 110.050781 50.613281 110.679688 52.390625 111.296875 C 52.785156 111.4375 53.175781 111.574219 53.570312 111.710938 C 54.140625 111.910156 54.707031 112.109375 55.277344 112.304688 C 57.277344 113 59.261719 113.722656 61.234375 114.5 C 62.824219 115.128906 64.410156 115.671875 66.066406 116.109375 C 66.492188 116.226562 66.921875 116.34375 67.347656 116.460938 C 67.53125 116.507812 67.710938 116.558594 67.898438 116.605469 C 68.199219 116.695312 68.507812 116.820312 68.828125 116.980469 C 69.078125 117.582031 69.101562 117.847656 68.871094 118.464844 C 68.683594 118.757812 68.425781 118.980469 68.105469 119.140625 C 66.65625 119.226562 65.492188 119.023438 64.113281 118.585938 C 63.90625 118.523438 63.703125 118.460938 63.488281 118.394531 C 61.046875 117.621094 58.648438 116.714844 56.246094 115.824219 C 49 113.132812 41.699219 110.625 34.355469 108.21875 C 29.253906 106.546875 24.199219 104.777344 19.183594 102.867188 C 18.527344 102.621094 17.871094 102.390625 17.210938 102.160156 C 16.707031 101.949219 16.292969 101.605469 15.972656 101.125 C 16.050781 100.324219 16.121094 100.015625 16.695312 99.441406 Z M 16.695312 99.441406 " fill-opacity="1" fill-rule="nonzero"/></g></svg>
