<svg xmlns="http://www.w3.org/2000/svg" xmlns:xlink="http://www.w3.org/1999/xlink" width="432" zoomAndPan="magnify" viewBox="0 0 324 318.749988" height="425" preserveAspectRatio="xMidYMid meet" version="1.0"><defs><clipPath id="15322e9b54"><path d="M 131.855469 110.722656 L 221.785156 110.722656 L 221.785156 200.652344 L 131.855469 200.652344 Z M 131.855469 110.722656 " clip-rule="nonzero"/></clipPath><clipPath id="74b115f268"><path d="M 150 298 L 186 298 L 186 317.75 L 150 317.75 Z M 150 298 " clip-rule="nonzero"/></clipPath><clipPath id="5116955221"><path d="M 0.128906 161 L 40 161 L 40 169 L 0.128906 169 Z M 0.128906 161 " clip-rule="nonzero"/></clipPath><clipPath id="780b22d673"><path d="M 282 164 L 323.871094 164 L 323.871094 174 L 282 174 Z M 282 164 " clip-rule="nonzero"/></clipPath></defs><g clip-path="url(#15322e9b54)"><path fill="#009900" d="M 176.839844 200.675781 C 152.003906 200.675781 131.871094 180.542969 131.871094 155.707031 C 131.871094 130.871094 152.003906 110.738281 176.839844 110.738281 C 201.675781 110.738281 221.808594 130.871094 221.808594 155.707031 C 221.808594 180.542969 201.675781 200.675781 176.839844 200.675781 " fill-opacity="1" fill-rule="nonzero"/></g><path fill="#ffffff" d="M 188.847656 142.109375 L 172.660156 158.296875 C 172.296875 158.660156 171.710938 158.660156 171.347656 158.296875 L 164.992188 151.941406 C 162.484375 149.433594 158.421875 149.433594 155.914062 151.941406 C 153.410156 154.449219 153.410156 158.511719 155.914062 161.019531 L 167.464844 172.570312 C 169.972656 175.074219 174.035156 175.074219 176.542969 172.570312 L 181.078125 168.03125 L 197.925781 151.1875 C 200.429688 148.679688 200.429688 144.617188 197.925781 142.109375 C 195.417969 139.601562 191.351562 139.601562 188.847656 142.109375 " fill-opacity="1" fill-rule="nonzero"/><path fill="#c0b7bc" d="M 145.46875 266.5625 C 151.375 268.449219 157.917969 268.941406 164.015625 270.121094 C 170.3125 271.3125 176.507812 272.890625 182.605469 274.859375 L 185.015625 257.058594 C 173.945312 258.394531 163.070312 260.285156 151.886719 260.328125 C 151.265625 260.335938 150.652344 260.40625 150.042969 260.53125 C 149.4375 260.660156 148.847656 260.84375 148.277344 261.085938 C 147.703125 261.328125 147.160156 261.621094 146.648438 261.96875 C 146.132812 262.316406 145.65625 262.707031 145.21875 263.144531 C 144.777344 263.582031 144.386719 264.058594 144.039062 264.574219 C 143.691406 265.085938 143.394531 265.628906 143.152344 266.199219 C 142.910156 266.769531 142.726562 267.359375 142.597656 267.964844 C 142.46875 268.570312 142.398438 269.183594 142.390625 269.804688 C 142.390625 275.488281 146.773438 278.613281 151.886719 279.289062 L 190.210938 284.304688 L 187.699219 265.550781 C 175.925781 268.386719 164.011719 270.429688 151.960938 271.675781 C 147.140625 272.175781 143 275.019531 142.390625 280.117188 C 141.878906 284.414062 144.515625 290.144531 149.367188 290.796875 L 186.9375 296.105469 L 186.9375 277.308594 C 175.460938 279.28125 163.90625 279.230469 152.328125 278.328125 C 147.015625 277.917969 142.480469 283.140625 142.480469 288.15625 C 142.480469 293.957031 147.015625 297.410156 152.328125 297.992188 C 165.605469 299.449219 179.007812 298.402344 192.132812 296.128906 C 201.335938 294.542969 201.597656 278.644531 192.132812 277.308594 L 154.570312 272.027344 L 151.960938 291.148438 C 165.714844 289.683594 179.308594 287.300781 192.738281 283.996094 C 193.285156 283.839844 193.816406 283.640625 194.332031 283.390625 C 194.84375 283.140625 195.328125 282.847656 195.789062 282.511719 C 196.25 282.175781 196.675781 281.800781 197.070312 281.386719 C 197.460938 280.972656 197.816406 280.527344 198.128906 280.050781 C 198.441406 279.574219 198.707031 279.074219 198.929688 278.550781 C 199.152344 278.023438 199.328125 277.484375 199.453125 276.929688 C 199.578125 276.371094 199.652344 275.808594 199.675781 275.242188 C 199.703125 274.671875 199.675781 274.105469 199.597656 273.539062 C 198.835938 268.457031 195.078125 265.882812 190.210938 265.265625 L 151.886719 260.34375 L 151.886719 279.304688 C 163.773438 279.214844 175.828125 277.402344 187.433594 274.875 C 196.191406 272.964844 195.964844 259.449219 187.433594 257.402344 C 180.457031 255.675781 173.390625 254.480469 166.234375 253.808594 C 159.582031 253.222656 151.894531 253.023438 145.46875 255.019531 C 144.847656 255.207031 144.273438 255.488281 143.746094 255.863281 C 143.214844 256.238281 142.757812 256.683594 142.375 257.203125 C 141.988281 257.722656 141.691406 258.292969 141.492188 258.90625 C 141.289062 259.519531 141.1875 260.152344 141.1875 260.796875 C 141.1875 261.445312 141.289062 262.078125 141.492188 262.691406 C 141.691406 263.304688 141.988281 263.875 142.375 264.394531 C 142.757812 264.914062 143.214844 265.359375 143.746094 265.734375 C 144.273438 266.109375 144.847656 266.390625 145.46875 266.578125 Z M 145.46875 266.5625 " fill-opacity="1" fill-rule="nonzero"/><path fill="#ffd326" d="M 146.179688 249.769531 C 134.390625 232.671875 118.8125 219.039062 105.109375 203.644531 C 91.40625 188.25 79.117188 170.007812 76.539062 149.011719 C 73.195312 121.902344 87.417969 94.429688 108.464844 78.8125 C 129.515625 63.191406 156.378906 58.285156 181.96875 60.425781 C 194.316406 61.445312 206.691406 64.035156 217.867188 69.710938 C 241.226562 81.558594 257.757812 107.117188 260.535156 134.523438 C 263.3125 161.925781 252.414062 190.308594 232.925781 208.410156 C 225.792969 215.039062 217.652344 220.320312 210.390625 226.796875 C 203.128906 233.273438 196.601562 241.304688 194.25 251.03125 " fill-opacity="1" fill-rule="nonzero"/><path fill="#fff3ae" d="M 138.84375 199.644531 C 133.632812 197.9375 129.058594 195.1875 125.113281 191.386719 C 121.324219 187.558594 118.695312 182.433594 118.503906 177.054688 C 118.3125 171.671875 120.78125 166.113281 125.304688 163.1875 C 129.15625 160.679688 133.980469 160.289062 138.140625 158.347656 C 141.953125 156.558594 145.050781 153.578125 148.328125 150.925781 C 151.609375 148.277344 155.355469 145.855469 159.558594 145.570312 C 165.347656 145.175781 170.625 148.914062 176.382812 149.640625 C 181.703125 150.34375 187.097656 148.496094 192.425781 149.148438 C 193.101562 149.230469 193.765625 149.351562 194.425781 149.515625 C 195.082031 149.675781 195.730469 149.875 196.363281 150.113281 C 197 150.351562 197.617188 150.625 198.222656 150.9375 C 198.824219 151.246094 199.40625 151.59375 199.96875 151.972656 C 200.527344 152.351562 201.066406 152.765625 201.578125 153.207031 C 202.089844 153.652344 202.578125 154.121094 203.035156 154.621094 C 203.492188 155.125 203.917969 155.648438 204.3125 156.199219 C 204.707031 156.75 205.066406 157.324219 205.394531 157.917969 C 205.71875 158.511719 206.011719 159.121094 206.265625 159.75 C 206.519531 160.375 206.738281 161.015625 206.914062 161.671875 C 207.09375 162.324219 207.234375 162.984375 207.335938 163.65625 C 207.433594 164.324219 207.496094 165 207.515625 165.675781 C 207.539062 166.351562 207.519531 167.03125 207.457031 167.703125 C 207.398438 168.378906 207.300781 169.046875 207.160156 169.710938 C 207.023438 170.375 206.847656 171.027344 206.628906 171.667969 C 206.414062 172.3125 206.160156 172.9375 205.871094 173.550781 C 204.046875 177.378906 200.851562 180.414062 198.800781 184.113281 C 196.753906 187.816406 195.847656 191.8125 194.007812 195.496094 C 192.167969 199.183594 188.988281 202.644531 184.847656 202.976562 C 180.273438 203.34375 175.945312 199.769531 171.460938 200.578125 C 168.441406 201.121094 166.074219 203.519531 163.15625 204.457031 C 155.425781 206.964844 147.652344 198.605469 139.679688 200.109375 " fill-opacity="1" fill-rule="nonzero"/><path fill="#3f4e4b" d="M 142.199219 252.644531 C 141.160156 242.050781 127.574219 234.660156 119.84375 229.246094 C 107.292969 220.546875 93.78125 212.261719 84.707031 199.761719 C 73.359375 184.199219 65.738281 164.816406 67.464844 145.335938 C 68.960938 127.960938 78.632812 112.917969 91.882812 101.996094 C 121.28125 77.757812 166.5 71.859375 201.679688 85.503906 C 234.859375 98.375 260.351562 132.214844 253.125 168.777344 C 252.199219 173.738281 250.683594 178.511719 248.570312 183.09375 C 246.457031 187.675781 243.8125 191.929688 240.640625 195.855469 C 235.167969 202.441406 228.257812 207.65625 221.449219 212.765625 C 208.363281 222.574219 192.34375 233.28125 188.371094 250.222656 C 187.183594 255.296875 194.652344 257.359375 196.175781 252.378906 C 201.003906 236.660156 216.589844 227.113281 228.960938 217.703125 C 235.597656 212.648438 242.230469 207.449219 247.460938 200.886719 C 253.21875 193.605469 257.304688 185.480469 259.714844 176.519531 C 269.753906 139.4375 249.46875 102.304688 216.855469 84.261719 C 182.195312 65.089844 135.957031 67.828125 101.832031 86.960938 C 86.546875 95.527344 72.925781 108.1875 65.855469 124.425781 C 57.984375 142.417969 59.164062 162.761719 66.417969 180.753906 C 70.375 190.628906 75.742188 199.664062 82.523438 207.867188 C 88.21875 214.703125 95.496094 220.152344 102.726562 225.257812 C 110.128906 230.480469 117.9375 235.105469 125.316406 240.351562 C 129.613281 243.410156 136.617188 247.597656 137.863281 253.207031 C 138.382812 255.644531 142.53125 255.152344 142.28125 252.613281 Z M 142.199219 252.644531 " fill-opacity="1" fill-rule="nonzero"/><path fill="#3f4e4b" d="M 136.902344 256.390625 C 147.082031 255.261719 157.097656 253.464844 167.378906 253.296875 C 172.398438 253.214844 177.417969 253.296875 182.355469 253.640625 C 187.953125 253.992188 193.078125 255.460938 198.566406 256.332031 C 203.378906 257.082031 205.496094 249.796875 200.609375 248.945312 C 195.398438 248.03125 189.992188 248.191406 184.714844 247.796875 C 179.199219 247.375 173.683594 247.277344 168.15625 247.496094 C 157.558594 247.925781 146.40625 248.851562 136.367188 252.246094 C 134.257812 252.957031 134.433594 256.667969 136.925781 256.421875 Z M 136.902344 256.390625 " fill-opacity="1" fill-rule="nonzero"/><path fill="#3f4e4b" d="M 137.035156 257 C 136.015625 264.363281 135.277344 271.691406 134.734375 279.105469 C 134.308594 284.730469 132.703125 291.5 134.910156 296.898438 C 137.003906 302.003906 142.023438 303.585938 147.03125 304.65625 C 153.660156 305.988281 160.351562 306.578125 167.113281 306.425781 C 173.964844 306.34375 180.796875 305.824219 187.640625 305.589844 C 193.304688 305.414062 198.476562 305.316406 199.730469 298.804688 C 201.042969 292.019531 201.402344 284.921875 202.125 278.0625 L 204.632812 255.1875 C 205.253906 249.527344 196.359375 249.5625 195.757812 255.1875 C 194.527344 266.628906 193.246094 278.054688 192.074219 289.492188 C 191.800781 292.167969 191.75 294.953125 191.296875 297.601562 C 192.410156 296.964844 192.445312 296.765625 191.390625 296.964844 C 190.644531 297.007812 189.890625 297.066406 189.148438 297.125 L 185.410156 297.425781 C 180.097656 297.851562 174.757812 298.152344 169.4375 298.34375 C 164.316406 298.609375 159.199219 298.546875 154.085938 298.160156 C 149.800781 297.777344 140.757812 297.484375 139.636719 292.3125 C 139.09375 289.804688 139.769531 286.628906 139.90625 284.070312 L 140.355469 275.761719 C 140.683594 269.652344 140.773438 263.59375 140.707031 257.476562 C 140.707031 255.472656 137.363281 254.84375 137.050781 256.984375 Z M 137.035156 257 " fill-opacity="1" fill-rule="nonzero"/><path fill="#3f4e4b" d="M 139.226562 264.6875 C 157.976562 261.5625 176.574219 260.511719 195.28125 264.269531 C 198.917969 265 200.300781 259.257812 196.792969 258.804688 C 177.453125 256.148438 157.238281 256.148438 138.375 261.613281 C 136.367188 262.199219 137.226562 265.015625 139.210938 264.6875 Z M 139.226562 264.6875 " fill-opacity="1" fill-rule="nonzero"/><path fill="#3f4e4b" d="M 137.195312 278.722656 C 147.023438 278.328125 156.839844 276.273438 166.617188 275.234375 C 176.398438 274.199219 186.414062 273.640625 196.34375 273.566406 C 200.527344 273.515625 200.527344 267.019531 196.34375 267.078125 C 186.144531 267.203125 175.964844 267.789062 165.824219 268.902344 C 156.101562 269.972656 145.828125 271.097656 136.625 274.550781 C 134.5 275.34375 134.609375 278.863281 137.195312 278.730469 Z M 137.195312 278.722656 " fill-opacity="1" fill-rule="nonzero"/><path fill="#3f4e4b" d="M 136.808594 293.3125 C 146.523438 294.742188 157.140625 292.902344 166.886719 292.203125 C 176.925781 291.476562 187.207031 291.222656 197.203125 289.855469 C 200.894531 289.34375 199.933594 283.410156 196.367188 283.441406 C 186.328125 283.535156 176.136719 284.847656 166.109375 285.589844 C 156.628906 286.300781 145.980469 285.96875 136.828125 288.734375 C 134.777344 289.359375 134.359375 292.953125 136.828125 293.3125 Z M 136.808594 293.3125 " fill-opacity="1" fill-rule="nonzero"/><g clip-path="url(#74b115f268)"><path fill="#3f4e4b" d="M 150.546875 302.664062 C 148.503906 311.574219 159.214844 316.445312 166.351562 317.007812 C 175.90625 317.757812 183.425781 312.9375 185.769531 303.433594 C 186.78125 299.296875 180.816406 296.472656 178.691406 300.460938 C 177.519531 302.640625 176.910156 305.355469 175.175781 307.210938 C 173.226562 309.300781 170.367188 309.492188 167.648438 309.492188 C 161.324219 309.492188 158.183594 306.984375 154.714844 302.113281 C 153.652344 300.632812 151.007812 300.59375 150.53125 302.664062 Z M 150.546875 302.664062 " fill-opacity="1" fill-rule="nonzero"/></g><path fill="#3f4e4b" d="M 155.757812 305.082031 C 156.191406 306.917969 156.84375 308.667969 157.726562 310.335938 C 158.660156 312.007812 160.09375 314.390625 162.132812 314.691406 C 163.808594 314.941406 166.207031 313.949219 165.949219 311.792969 C 165.878906 310.605469 165.429688 309.589844 164.59375 308.742188 C 164.050781 308.132812 163.472656 307.554688 162.921875 306.929688 C 161.90625 305.761719 161 304.519531 160.203125 303.199219 C 158.796875 300.785156 155.039062 302.363281 155.726562 305.082031 Z M 155.757812 305.082031 " fill-opacity="1" fill-rule="nonzero"/><path fill="#3f4e4b" d="M 162.785156 306.402344 C 162.742188 307.199219 162.789062 307.992188 162.929688 308.777344 C 163.070312 309.5625 163.300781 310.320312 163.617188 311.054688 C 163.9375 311.785156 164.335938 312.472656 164.816406 313.109375 C 165.296875 313.75 165.84375 314.324219 166.460938 314.832031 C 167.863281 315.921875 169.746094 316.195312 171.117188 314.832031 C 171.421875 314.523438 171.65625 314.164062 171.816406 313.761719 C 171.980469 313.359375 172.0625 312.941406 172.0625 312.507812 C 172.0625 312.070312 171.980469 311.652344 171.816406 311.25 C 171.65625 310.847656 171.421875 310.492188 171.117188 310.179688 C 169.613281 308.972656 168.460938 307.496094 167.664062 305.742188 C 167.570312 305.46875 167.429688 305.21875 167.25 304.992188 C 167.070312 304.765625 166.855469 304.574219 166.605469 304.425781 C 166.359375 304.273438 166.09375 304.167969 165.8125 304.105469 C 165.527344 304.046875 165.242188 304.035156 164.953125 304.074219 C 164.667969 304.113281 164.394531 304.199219 164.136719 304.332031 C 163.878906 304.464844 163.652344 304.640625 163.453125 304.851562 C 163.257812 305.0625 163.101562 305.300781 162.984375 305.566406 C 162.871094 305.835938 162.804688 306.113281 162.785156 306.402344 Z M 162.785156 306.402344 " fill-opacity="1" fill-rule="nonzero"/><path fill="#3f4e4b" d="M 168.097656 305.441406 C 167.539062 307.277344 168.46875 309.09375 169.304688 310.695312 C 170.140625 312.300781 170.976562 314.089844 172.601562 315.160156 C 174.507812 316.421875 177.738281 314.785156 177.460938 312.367188 C 177.367188 311.285156 177.019531 310.292969 176.421875 309.386719 C 175.988281 308.683594 175.542969 308.007812 175.066406 307.328125 C 174.046875 305.890625 172.882812 304.136719 171.019531 303.785156 C 170.714844 303.710938 170.40625 303.695312 170.097656 303.738281 C 169.785156 303.78125 169.496094 303.878906 169.222656 304.035156 C 168.953125 304.191406 168.71875 304.390625 168.523438 304.636719 C 168.328125 304.882812 168.1875 305.15625 168.097656 305.457031 Z M 168.097656 305.441406 " fill-opacity="1" fill-rule="nonzero"/><path fill="#3f4e4b" d="M 153.777344 249.804688 C 154.226562 225.082031 153.359375 195.207031 138.089844 174.363281 C 135.664062 171.019531 131.398438 169.289062 128.175781 172.691406 C 125.128906 175.925781 125.667969 181.257812 127.582031 184.902344 C 132.878906 194.929688 145.878906 195.105469 153.726562 188.109375 C 157.910156 184.347656 160.261719 178.917969 160.960938 173.402344 C 161.464844 169.488281 161.90625 162.320312 156.703125 161.242188 C 151.625 160.179688 148.824219 166.796875 148.136719 170.703125 C 147.921875 172.011719 147.855469 173.328125 147.9375 174.652344 C 148.023438 175.976562 148.253906 177.277344 148.632812 178.546875 C 149.015625 179.820312 149.53125 181.035156 150.1875 182.1875 C 150.84375 183.34375 151.621094 184.40625 152.519531 185.386719 C 160.644531 194.371094 175 194.128906 183.792969 186.3125 C 189.121094 181.582031 198.273438 161.75 185.46875 160.203125 C 178.164062 159.328125 176.15625 167.441406 175.007812 172.824219 C 173.242188 181.074219 171.90625 189.40625 170.875 197.78125 C 168.769531 214.953125 168.210938 232.179688 169.203125 249.453125 C 169.503906 254.578125 177.484375 254.636719 177.234375 249.453125 C 176.253906 231.101562 176.878906 212.804688 179.101562 194.5625 C 179.695312 189.824219 180.4375 185.101562 181.242188 180.355469 C 181.601562 178.230469 181.988281 176.101562 182.398438 173.984375 C 182.582031 173.058594 182.914062 168.703125 183.886719 168.136719 C 185.382812 167.242188 184.570312 170.734375 184.378906 171.738281 C 183.992188 173.703125 183.289062 175.550781 182.269531 177.277344 C 181.261719 179.050781 179.960938 180.582031 178.375 181.863281 C 176.785156 183.144531 175.015625 184.09375 173.066406 184.707031 C 165.246094 187.117188 155.089844 183.035156 154.269531 174.019531 C 154.160156 172.800781 154.335938 168.886719 155.273438 167.96875 L 155.199219 167.574219 C 155.273438 168.285156 155.308594 168.996094 155.296875 169.707031 C 155.308594 170.675781 155.253906 171.644531 155.140625 172.605469 C 154.671875 176.660156 153.113281 180.722656 150.121094 183.589844 C 144.515625 188.9375 131.78125 188.84375 131.269531 178.933594 C 131.195312 177.445312 131.0625 177.003906 132.578125 176.566406 C 134.25 176.082031 134.25 176.976562 135.144531 178.238281 C 136.15625 179.804688 137.085938 181.417969 137.929688 183.078125 C 139.988281 187 141.699219 191.070312 143.066406 195.28125 C 148.867188 212.882812 149.382812 231.441406 150.746094 249.753906 C 150.890625 251.710938 153.792969 251.761719 153.828125 249.753906 Z M 153.777344 249.804688 " fill-opacity="1" fill-rule="nonzero"/><path fill="#3f4e4b" d="M 147.996094 3.082031 C 148.472656 16.457031 148.296875 29.878906 149.449219 43.199219 C 149.871094 48.023438 157.382812 48.148438 157.089844 43.199219 C 156.292969 29.777344 154.160156 16.457031 152.679688 3.082031 C 152.363281 0.167969 147.886719 0.0078125 147.996094 3.082031 Z M 147.996094 3.082031 " fill-opacity="1" fill-rule="nonzero"/><g clip-path="url(#5116955221)"><path fill="#3f4e4b" d="M 2.207031 167.476562 C 13.628906 167.859375 25.207031 168.746094 36.625 168.3125 C 40.808594 168.144531 40.808594 161.949219 36.625 161.773438 C 25.207031 161.316406 13.628906 162.203125 2.207031 162.609375 C 1.921875 162.667969 1.652344 162.769531 1.402344 162.917969 C 1.152344 163.066406 0.933594 163.253906 0.75 163.476562 C 0.5625 163.703125 0.421875 163.949219 0.324219 164.226562 C 0.226562 164.5 0.175781 164.78125 0.175781 165.074219 C 0.175781 165.363281 0.226562 165.644531 0.324219 165.917969 C 0.421875 166.195312 0.5625 166.441406 0.75 166.667969 C 0.933594 166.890625 1.152344 167.078125 1.402344 167.226562 C 1.652344 167.375 1.921875 167.476562 2.207031 167.535156 Z M 2.207031 167.476562 " fill-opacity="1" fill-rule="nonzero"/></g><g clip-path="url(#780b22d673)"><path fill="#3f4e4b" d="M 284.765625 170.5 C 291.324219 170.816406 297.863281 170.441406 304.425781 170.96875 C 307.769531 171.234375 311.097656 171.664062 314.40625 172.246094 C 317.351562 172.773438 319.566406 173.800781 322.136719 171.914062 C 322.429688 171.734375 322.679688 171.503906 322.882812 171.226562 C 323.089844 170.949219 323.234375 170.644531 323.324219 170.3125 C 323.410156 169.980469 323.433594 169.644531 323.394531 169.300781 C 323.351562 168.960938 323.246094 168.636719 323.082031 168.335938 C 321.40625 165.570312 319.164062 165.511719 316.160156 165.117188 C 312.53125 164.640625 308.878906 164.324219 305.210938 164.175781 C 298.257812 163.890625 290.886719 163.980469 284.128906 165.769531 C 281.425781 166.480469 282.09375 170.375 284.765625 170.5 Z M 284.765625 170.5 " fill-opacity="1" fill-rule="nonzero"/></g><path fill="#3f4e4b" d="M 239.519531 263.203125 C 241.835938 265.660156 244.179688 268.097656 246.445312 270.605469 C 248.28125 272.636719 250.5625 276.046875 253.382812 276.523438 C 253.550781 276.5625 253.722656 276.582031 253.894531 276.578125 C 254.066406 276.578125 254.238281 276.550781 254.402344 276.503906 C 254.570312 276.457031 254.726562 276.390625 254.875 276.304688 C 255.027344 276.21875 255.160156 276.113281 255.285156 275.988281 C 255.40625 275.867188 255.511719 275.730469 255.597656 275.582031 C 255.683594 275.433594 255.753906 275.277344 255.800781 275.109375 C 255.84375 274.945312 255.871094 274.773438 255.875 274.601562 C 255.875 274.429688 255.859375 274.257812 255.816406 274.089844 C 255.339844 271.257812 251.933594 268.992188 249.894531 267.164062 C 247.382812 264.898438 244.941406 262.558594 242.480469 260.242188 C 242.285156 260.046875 242.058594 259.894531 241.800781 259.789062 C 241.546875 259.683594 241.277344 259.628906 241 259.628906 C 240.722656 259.628906 240.457031 259.683594 240.199219 259.789062 C 239.941406 259.894531 239.714844 260.046875 239.519531 260.242188 C 239.324219 260.4375 239.171875 260.664062 239.066406 260.921875 C 238.960938 261.179688 238.90625 261.445312 238.90625 261.722656 C 238.90625 262 238.960938 262.265625 239.066406 262.523438 C 239.171875 262.777344 239.324219 263.003906 239.519531 263.203125 Z M 239.519531 263.203125 " fill-opacity="1" fill-rule="nonzero"/><path fill="#3f4e4b" d="M 100.925781 259.332031 C 98.105469 262.273438 95.253906 265.1875 92.378906 268.074219 C 89.867188 270.582031 86.378906 273.230469 87.230469 277.148438 C 87.320312 277.449219 87.453125 277.730469 87.628906 277.988281 C 87.808594 278.246094 88.019531 278.46875 88.269531 278.660156 C 88.519531 278.847656 88.792969 278.996094 89.085938 279.097656 C 89.382812 279.199219 89.6875 279.25 90 279.257812 C 93.691406 279.617188 96.050781 275.488281 98.082031 272.945312 C 100.519531 269.898438 102.984375 266.875 105.480469 263.878906 C 108.070312 260.753906 103.847656 256.296875 100.925781 259.332031 Z M 100.925781 259.332031 " fill-opacity="1" fill-rule="nonzero"/><path fill="#3f4e4b" d="M 251.097656 73.019531 C 254.585938 69.257812 258.015625 65.5625 261.296875 61.59375 C 264.023438 58.25 267.988281 54.851562 269.167969 50.65625 C 269.300781 50.164062 269.289062 49.679688 269.125 49.195312 C 268.960938 48.714844 268.679688 48.320312 268.277344 48.011719 C 267.871094 47.699219 267.417969 47.53125 266.910156 47.496094 C 266.402344 47.464844 265.929688 47.574219 265.488281 47.828125 C 261.699219 49.902344 259.1875 54.617188 256.59375 57.976562 C 253.457031 62.046875 250.628906 66.199219 247.734375 70.429688 C 246.363281 72.433594 249.410156 74.800781 251.082031 73.019531 Z M 251.097656 73.019531 " fill-opacity="1" fill-rule="nonzero"/><path fill="#3f4e4b" d="M 78.128906 77.457031 C 73.328125 73.167969 68.375 69.097656 63.296875 65.15625 L 55.667969 59.222656 C 53.632812 57.640625 52.488281 56.765625 49.8125 57.550781 C 49.289062 57.707031 48.863281 58 48.53125 58.433594 C 48.203125 58.867188 48.03125 59.355469 48.019531 59.898438 C 47.945312 62.621094 49.082031 63.523438 51.132812 65.078125 L 58.835938 70.929688 C 63.972656 74.816406 69.160156 78.550781 74.550781 82.085938 C 77.320312 83.910156 80.613281 79.707031 78.113281 77.472656 Z M 78.128906 77.457031 " fill-opacity="1" fill-rule="nonzero"/><path fill="#3f4e4b" d="M 59.875 216.332031 C 56.144531 219.183594 52.34375 221.898438 48.738281 224.914062 C 45.511719 227.605469 40.375 230.714844 38.699219 234.617188 C 37.863281 236.601562 39.261719 239.074219 41.636719 238.429688 C 45.738281 237.328125 49.023438 233.265625 52.144531 230.507812 C 55.882812 227.214844 59.316406 223.671875 62.878906 220.195312 C 64.8125 218.296875 62.160156 214.59375 59.890625 216.332031 Z M 59.875 216.332031 " fill-opacity="1" fill-rule="nonzero"/><path fill="#3f4e4b" d="M 265.738281 219.46875 C 272.507812 223.886719 279.453125 228.660156 286.847656 232.003906 C 290.496094 233.675781 293.449219 228.859375 290.019531 226.578125 C 283.265625 222.074219 275.527344 218.714844 268.175781 215.320312 C 265.378906 214.035156 263.097656 217.761719 265.738281 219.5 Z M 265.738281 219.46875 " fill-opacity="1" fill-rule="nonzero"/><path fill="#3f4e4b" d="M 279.828125 115.457031 C 281.894531 114.1875 283.960938 112.949219 286.011719 111.65625 C 287.824219 110.527344 290.417969 109.441406 290.328125 106.984375 C 290.332031 106.628906 290.246094 106.296875 290.070312 105.988281 C 289.890625 105.679688 289.648438 105.4375 289.339844 105.261719 C 286.964844 104.191406 285.273438 105.804688 283.382812 107.160156 C 281.492188 108.511719 279.433594 109.992188 277.460938 111.414062 C 275.058594 113.136719 277.210938 117.070312 279.828125 115.457031 Z M 279.828125 115.457031 " fill-opacity="1" fill-rule="nonzero"/><path fill="#3f4e4b" d="M 205.789062 46.808594 C 205.847656 44.703125 205.9375 42.632812 205.964844 40.492188 C 205.964844 38.578125 206.003906 36.699219 204.289062 35.570312 C 204.007812 35.402344 203.699219 35.320312 203.371094 35.320312 C 203.039062 35.320312 202.734375 35.402344 202.449219 35.570312 C 200.71875 36.699219 200.734375 38.570312 200.777344 40.492188 C 200.777344 42.597656 200.894531 44.671875 200.945312 46.808594 C 201.035156 49.945312 205.738281 49.953125 205.820312 46.808594 Z M 205.789062 46.808594 " fill-opacity="1" fill-rule="nonzero"/><path fill="#3f4e4b" d="M 114.925781 52.152344 C 113.109375 48.933594 111.351562 45.707031 109.335938 42.597656 C 107.710938 40.089844 106.273438 36.613281 103.128906 35.910156 C 102.851562 35.839844 102.570312 35.820312 102.289062 35.859375 C 102.007812 35.894531 101.738281 35.984375 101.492188 36.125 C 101.242188 36.265625 101.03125 36.445312 100.851562 36.671875 C 100.675781 36.894531 100.546875 37.144531 100.46875 37.417969 C 99.855469 40.757812 102.140625 43.109375 103.9375 45.773438 C 106.03125 48.859375 108.332031 51.75 110.632812 54.707031 C 112.539062 57.214844 116.597656 55.074219 114.957031 52.199219 Z M 114.925781 52.152344 " fill-opacity="1" fill-rule="nonzero"/><path fill="#3f4e4b" d="M 52.355469 113.183594 C 49.976562 112.347656 47.636719 111.457031 45.183594 110.8125 C 42.734375 110.167969 41 109.648438 38.699219 110.945312 C 38.460938 111.085938 38.261719 111.269531 38.09375 111.492188 C 37.925781 111.710938 37.808594 111.957031 37.738281 112.226562 C 37.667969 112.492188 37.648438 112.765625 37.6875 113.039062 C 37.722656 113.3125 37.808594 113.570312 37.949219 113.8125 C 40.457031 117.730469 46.742188 117.707031 50.933594 118.324219 C 54.277344 118.816406 55.640625 114.378906 52.355469 113.183594 Z M 52.355469 113.183594 " fill-opacity="1" fill-rule="nonzero"/><path fill="#3f4e4b" d="M 39.269531 191.292969 C 38.046875 192.261719 36.84375 193.257812 35.605469 194.203125 C 34.367188 195.148438 33.003906 195.964844 31.839844 197.019531 C 31.578125 197.285156 31.378906 197.59375 31.238281 197.941406 C 31.09375 198.285156 31.023438 198.648438 31.023438 199.019531 C 31.023438 199.394531 31.09375 199.753906 31.238281 200.101562 C 31.378906 200.449219 31.578125 200.753906 31.839844 201.023438 C 32.109375 201.277344 32.417969 201.476562 32.765625 201.613281 C 33.113281 201.75 33.472656 201.820312 33.84375 201.820312 C 34.21875 201.820312 34.578125 201.75 34.921875 201.613281 C 35.269531 201.476562 35.578125 201.277344 35.847656 201.023438 C 37.042969 200.042969 38.03125 198.816406 39.195312 197.761719 C 40.355469 196.710938 41.476562 195.65625 42.617188 194.605469 C 42.835938 194.382812 43.007812 194.125 43.128906 193.835938 C 43.25 193.546875 43.308594 193.246094 43.308594 192.933594 C 43.308594 192.617188 43.25 192.316406 43.128906 192.027344 C 43.007812 191.738281 42.835938 191.480469 42.617188 191.261719 C 42.390625 191.042969 42.136719 190.875 41.84375 190.757812 C 41.554688 190.640625 41.253906 190.582031 40.941406 190.582031 C 40.628906 190.582031 40.328125 190.640625 40.039062 190.757812 C 39.75 190.875 39.492188 191.042969 39.269531 191.261719 Z M 39.269531 191.292969 " fill-opacity="1" fill-rule="nonzero"/><path fill="#3f4e4b" d="M 281.199219 194.328125 C 283.460938 195.214844 285.761719 195.980469 288.101562 196.625 C 291.449219 197.460938 292.753906 192.582031 289.515625 191.503906 C 287.195312 190.792969 284.839844 190.210938 282.453125 189.757812 C 282.15625 189.691406 281.859375 189.683594 281.558594 189.734375 C 281.257812 189.785156 280.980469 189.886719 280.71875 190.046875 C 280.457031 190.203125 280.238281 190.402344 280.054688 190.644531 C 279.871094 190.886719 279.738281 191.15625 279.65625 191.449219 C 279.578125 191.742188 279.554688 192.039062 279.589844 192.339844 C 279.621094 192.640625 279.710938 192.925781 279.855469 193.195312 C 279.996094 193.460938 280.1875 193.695312 280.417969 193.890625 C 280.652344 194.085938 280.910156 194.230469 281.199219 194.328125 Z M 281.199219 194.328125 " fill-opacity="1" fill-rule="nonzero"/><path fill="#ffffff" d="M 103.554688 135.375 C 106.582031 123.324219 115.199219 112.976562 126.09375 107.125 C 138.902344 100.230469 154.175781 99.695312 168.351562 101.023438 C 194.644531 103.492188 223.734375 117.289062 224.210938 147.242188 C 224.292969 152.1875 231.355469 152.03125 231.796875 147.242188 C 234.046875 122.605469 211.433594 103.949219 190.058594 97.671875 C 167.277344 90.988281 137.644531 90.46875 117.710938 105.046875 C 107.90625 112.207031 100.976562 122.636719 100.808594 135.007812 C 100.824219 135.347656 100.945312 135.644531 101.175781 135.894531 C 101.40625 136.148438 101.691406 136.296875 102.027344 136.339844 C 102.367188 136.386719 102.679688 136.316406 102.96875 136.136719 C 103.253906 135.953125 103.453125 135.699219 103.554688 135.375 Z M 103.554688 135.375 " fill-opacity="1" fill-rule="nonzero"/><path fill="#ffffff" d="M 232.066406 169.070312 L 231.757812 168.996094 L 233.746094 170.527344 L 233.589844 170.234375 C 233.238281 169.640625 232.769531 169.167969 232.171875 168.824219 C 231.574219 168.476562 230.933594 168.300781 230.242188 168.292969 C 229.554688 168.308594 228.914062 168.488281 228.320312 168.832031 C 227.722656 169.179688 227.25 169.644531 226.894531 170.234375 L 226.894531 170.285156 C 226.539062 170.875 226.363281 171.519531 226.363281 172.210938 C 226.363281 172.902344 226.539062 173.542969 226.894531 174.136719 L 226.894531 174.1875 C 227.25 174.773438 227.722656 175.242188 228.320312 175.585938 C 228.914062 175.929688 229.554688 176.109375 230.242188 176.125 C 230.933594 176.117188 231.574219 175.941406 232.171875 175.597656 C 232.769531 175.25 233.238281 174.78125 233.589844 174.1875 L 233.746094 173.894531 L 231.757812 175.421875 L 232.066406 175.347656 L 232.84375 175.023438 C 233.21875 174.820312 233.523438 174.542969 233.757812 174.1875 C 234.230469 173.613281 234.464844 172.957031 234.457031 172.214844 C 234.4375 171.621094 234.292969 171.066406 234.015625 170.542969 C 233.5625 169.789062 232.914062 169.289062 232.066406 169.046875 Z M 232.066406 169.070312 " fill-opacity="1" fill-rule="nonzero"/></svg>
