<svg xmlns="http://www.w3.org/2000/svg" xmlns:xlink="http://www.w3.org/1999/xlink" width="187" zoomAndPan="magnify" viewBox="0 0 140.25 132.750001" height="177" preserveAspectRatio="xMidYMid meet" version="1.0"><defs><clipPath id="fe175296bd"><path d="M 0 0.230469 L 139.503906 0.230469 L 139.503906 132.273438 L 0 132.273438 Z M 0 0.230469 " clip-rule="nonzero"/></clipPath><clipPath id="436f6a668c"><path d="M 49.085938 0.230469 L 89.371094 0.230469 L 89.371094 39 L 49.085938 39 Z M 49.085938 0.230469 " clip-rule="nonzero"/></clipPath><clipPath id="a87758f98a"><path d="M 0 1 L 138.757812 1 L 138.757812 131 L 0 131 Z M 0 1 " clip-rule="nonzero"/></clipPath></defs><g clip-path="url(#fe175296bd)"><path fill="#ffffff" d="M 0 0.230469 L 139.503906 0.230469 L 139.503906 132.273438 L 0 132.273438 Z M 0 0.230469 " fill-opacity="1" fill-rule="nonzero"/></g><g clip-path="url(#436f6a668c)"><path fill="#000000" d="M 79.839844 24.707031 C 79.679688 24.867188 79.605469 25.097656 79.640625 25.324219 L 81.789062 38.015625 C 81.886719 38.585938 81.292969 39.023438 80.785156 38.75 L 69.546875 32.761719 C 69.347656 32.652344 69.105469 32.652344 68.90625 32.761719 L 57.667969 38.75 C 57.160156 39.023438 56.570312 38.585938 56.664062 38.015625 L 58.8125 25.324219 C 58.851562 25.097656 58.777344 24.867188 58.613281 24.707031 L 49.519531 15.71875 C 49.113281 15.316406 49.335938 14.609375 49.902344 14.527344 L 62.46875 12.675781 C 62.695312 12.640625 62.886719 12.5 62.988281 12.292969 L 68.609375 0.75 C 68.859375 0.226562 69.59375 0.226562 69.847656 0.75 L 75.464844 12.292969 C 75.566406 12.5 75.761719 12.640625 75.984375 12.675781 L 88.550781 14.527344 C 89.117188 14.609375 89.34375 15.316406 88.933594 15.71875 Z M 79.839844 24.707031 " fill-opacity="1" fill-rule="nonzero"/></g><g clip-path="url(#a87758f98a)"><path fill="#000000" d="M 77.269531 2.882812 C 78.066406 3.074219 78.863281 3.265625 79.660156 3.457031 C 81.492188 3.894531 83.324219 4.335938 85.15625 4.78125 C 85.394531 4.835938 85.632812 4.894531 85.871094 4.953125 C 87.546875 5.359375 89.222656 5.765625 90.898438 6.175781 C 94.660156 7.09375 98.429688 7.984375 102.199219 8.878906 C 103.722656 9.238281 105.242188 9.601562 106.761719 9.964844 C 110.753906 10.914062 114.742188 11.863281 118.734375 12.789062 C 120.398438 13.175781 122.058594 13.5625 123.714844 13.957031 C 123.914062 14.003906 124.113281 14.050781 124.3125 14.097656 C 125.308594 14.335938 126.300781 14.570312 127.292969 14.808594 C 128.949219 15.203125 130.605469 15.59375 132.273438 15.9375 C 132.519531 15.988281 132.761719 16.042969 133.015625 16.09375 C 133.453125 16.183594 133.886719 16.273438 134.324219 16.355469 C 135.550781 16.609375 136.265625 16.925781 137.046875 17.976562 C 137.320312 19.0625 137.210938 20.0625 136.683594 21.050781 C 135.339844 22.222656 133.902344 22.933594 132.210938 23.464844 C 132.035156 23.519531 131.859375 23.574219 131.675781 23.632812 C 130.6875 23.945312 129.695312 24.257812 128.703125 24.5625 C 125.039062 25.695312 121.4375 26.996094 117.835938 28.320312 C 117.003906 28.628906 116.171875 28.933594 115.339844 29.238281 C 113.675781 29.847656 112.011719 30.457031 110.347656 31.070312 C 109.480469 31.386719 108.609375 31.707031 107.742188 32.027344 C 103.1875 33.695312 98.636719 35.371094 94.117188 37.125 C 92.492188 37.753906 90.863281 38.339844 89.21875 38.90625 C 87.359375 39.546875 85.515625 40.222656 83.671875 40.902344 C 81.128906 41.835938 78.589844 42.761719 76.027344 43.644531 C 75.800781 43.726562 75.574219 43.8125 75.34375 43.894531 C 72.277344 44.832031 69.113281 43.585938 66.164062 42.746094 C 65.652344 42.601562 65.144531 42.460938 64.632812 42.320312 C 63.582031 42.027344 62.53125 41.734375 61.480469 41.4375 C 59.355469 40.84375 57.230469 40.265625 55.101562 39.6875 C 54.4375 39.507812 53.777344 39.324219 53.113281 39.144531 C 50.324219 38.382812 47.527344 37.636719 44.730469 36.902344 C 41.550781 36.070312 38.382812 35.199219 35.214844 34.328125 C 32.527344 33.585938 29.835938 32.855469 27.144531 32.128906 C 24.136719 31.320312 21.132812 30.503906 18.128906 29.679688 C 17.707031 29.566406 17.289062 29.449219 16.871094 29.335938 C 16.285156 29.175781 15.699219 29.015625 15.113281 28.855469 C 14.933594 28.804688 14.753906 28.753906 14.566406 28.703125 C 13.414062 28.386719 12.273438 28.046875 11.136719 27.667969 C 10.800781 27.574219 10.382812 27.601562 9.894531 27.75 C 8.667969 28.773438 8.070312 30.097656 7.804688 31.648438 C 7.78125 32.03125 7.769531 32.410156 7.765625 32.789062 C 7.765625 33.011719 7.761719 33.230469 7.761719 33.457031 C 7.757812 33.691406 7.757812 33.925781 7.757812 34.164062 C 7.753906 34.410156 7.753906 34.65625 7.753906 34.90625 C 7.75 35.421875 7.75 35.9375 7.75 36.453125 C 7.746094 37.238281 7.738281 38.023438 7.730469 38.808594 C 7.730469 39.308594 7.726562 39.8125 7.726562 40.3125 C 7.722656 40.546875 7.722656 40.777344 7.71875 41.019531 C 7.726562 43.117188 8.320312 44.777344 9.488281 46.523438 C 10.378906 47.152344 11.28125 47.464844 12.320312 47.777344 C 12.480469 47.828125 12.640625 47.875 12.804688 47.925781 C 13.144531 48.027344 13.484375 48.128906 13.824219 48.230469 C 14.320312 48.378906 14.8125 48.527344 15.308594 48.675781 C 17.644531 49.378906 19.996094 50.019531 22.355469 50.648438 C 25.59375 51.511719 28.816406 52.429688 32.039062 53.34375 C 32.648438 53.519531 33.257812 53.691406 33.867188 53.863281 C 39.417969 55.4375 44.96875 57.019531 50.511719 58.621094 C 55.558594 60.082031 60.613281 61.519531 65.679688 62.914062 C 65.882812 62.96875 66.089844 63.027344 66.296875 63.085938 C 66.675781 63.1875 67.050781 63.292969 67.429688 63.394531 C 68.132812 63.589844 68.8125 63.792969 69.488281 64.0625 C 70.710938 64.550781 71.730469 64.449219 72.933594 63.992188 C 73.382812 63.792969 73.828125 63.589844 74.273438 63.382812 C 76.066406 62.554688 77.90625 61.863281 79.753906 61.171875 C 80.074219 61.050781 80.394531 60.929688 80.714844 60.8125 C 81.472656 60.527344 82.234375 60.242188 82.996094 59.957031 C 83.539062 60.769531 83.539062 61.0625 83.539062 62.015625 C 83.539062 62.28125 83.539062 62.542969 83.542969 62.8125 C 83.539062 63.089844 83.539062 63.363281 83.535156 63.644531 C 83.539062 63.917969 83.539062 64.191406 83.542969 64.472656 C 83.542969 64.734375 83.539062 65.003906 83.539062 65.269531 C 83.539062 65.511719 83.539062 65.75 83.539062 66 C 83.46875 66.730469 83.351562 67.230469 82.996094 67.875 C 82.675781 68.101562 82.320312 68.304688 81.929688 68.480469 C 81.714844 68.578125 81.496094 68.679688 81.277344 68.78125 C 81.050781 68.878906 80.824219 68.972656 80.59375 69.074219 C 80.378906 69.167969 80.164062 69.257812 79.945312 69.355469 C 79.289062 69.632812 78.628906 69.902344 77.964844 70.167969 C 77.746094 70.257812 77.527344 70.347656 77.300781 70.441406 C 76.859375 70.621094 76.414062 70.796875 75.96875 70.96875 C 75.535156 71.144531 75.101562 71.324219 74.671875 71.511719 C 71.292969 72.917969 68.390625 72.050781 65.082031 70.957031 C 64.183594 70.660156 63.28125 70.371094 62.378906 70.085938 C 61.933594 69.941406 61.484375 69.800781 61.039062 69.65625 C 59.417969 69.132812 57.792969 68.648438 56.152344 68.203125 C 53.84375 67.574219 51.546875 66.917969 49.246094 66.25 C 45.820312 65.253906 42.386719 64.269531 38.945312 63.316406 C 38.289062 63.136719 37.636719 62.953125 36.980469 62.773438 C 32.992188 61.660156 28.992188 60.597656 24.980469 59.582031 C 23.363281 59.1875 21.765625 58.730469 20.167969 58.261719 C 19.941406 58.195312 19.714844 58.132812 19.480469 58.0625 C 18.335938 57.730469 17.195312 57.390625 16.050781 57.046875 C 15.628906 56.921875 15.203125 56.800781 14.78125 56.675781 C 14.585938 56.613281 14.390625 56.554688 14.191406 56.492188 C 12.878906 56.113281 11.71875 55.964844 10.441406 56.605469 C 8.367188 58.367188 7.851562 60.753906 7.632812 63.359375 C 7.273438 67.121094 7.675781 70.71875 8.839844 74.160156 C 10.359375 75.773438 12.992188 76.261719 15.054688 76.886719 C 15.992188 77.167969 16.929688 77.460938 17.867188 77.75 C 18.054688 77.808594 18.242188 77.867188 18.433594 77.925781 C 20.101562 78.4375 21.753906 78.984375 23.40625 79.539062 C 26.417969 80.550781 29.4375 81.523438 32.464844 82.492188 C 33.230469 82.734375 33.992188 82.980469 34.757812 83.226562 C 37.347656 84.058594 39.941406 84.875 42.539062 85.683594 C 45.480469 86.597656 48.417969 87.53125 51.347656 88.476562 C 53.324219 89.117188 55.304688 89.753906 57.285156 90.382812 C 57.539062 90.460938 57.789062 90.542969 58.046875 90.625 C 59.300781 91.023438 60.554688 91.421875 61.808594 91.820312 C 62.042969 91.894531 62.277344 91.972656 62.519531 92.046875 C 62.976562 92.191406 63.429688 92.335938 63.886719 92.480469 C 64.796875 92.769531 65.707031 93.0625 66.605469 93.382812 C 68.65625 94.113281 69.855469 94.351562 71.882812 93.46875 C 72.421875 93.210938 72.957031 92.953125 73.492188 92.6875 C 73.933594 92.476562 74.378906 92.265625 74.824219 92.054688 C 75.136719 91.902344 75.449219 91.753906 75.761719 91.605469 C 77.453125 90.792969 79.15625 90.019531 80.867188 89.246094 C 81.359375 89.023438 81.851562 88.800781 82.34375 88.574219 C 84.117188 87.769531 85.894531 86.976562 87.683594 86.203125 C 88.972656 85.644531 90.25 85.054688 91.519531 84.457031 C 91.6875 84.378906 91.855469 84.300781 92.027344 84.21875 C 92.449219 84.019531 92.871094 83.820312 93.292969 83.625 C 97.410156 81.691406 101.558594 79.84375 105.726562 78.03125 C 108.410156 76.867188 111.070312 75.65625 113.730469 74.4375 C 114.445312 74.109375 115.160156 73.78125 115.875 73.453125 C 116.054688 73.371094 116.234375 73.289062 116.417969 73.203125 C 120.070312 71.53125 123.746094 69.929688 127.4375 68.355469 C 127.785156 68.207031 128.128906 68.058594 128.476562 67.910156 C 128.6875 67.816406 128.898438 67.726562 129.117188 67.632812 C 129.042969 67.363281 128.96875 67.089844 128.894531 66.808594 C 128.417969 65.066406 128.359375 63.242188 128.347656 61.445312 C 128.347656 61.253906 128.347656 61.0625 128.34375 60.867188 C 128.34375 60.464844 128.339844 60.066406 128.339844 59.667969 C 128.335938 59.054688 128.328125 58.445312 128.324219 57.835938 C 128.320312 57.445312 128.320312 57.054688 128.320312 56.664062 C 128.316406 56.480469 128.3125 56.300781 128.308594 56.113281 C 128.3125 55.027344 128.445312 54.339844 129.117188 53.480469 C 130.101562 52.671875 130.726562 52.398438 132 52.519531 C 132.496094 53.535156 132.539062 54.429688 132.511719 55.535156 C 132.507812 55.710938 132.507812 55.886719 132.507812 56.0625 C 132.5 56.800781 132.484375 57.539062 132.472656 58.277344 C 132.316406 60.75 132.71875 63.070312 133.683594 65.234375 C 134.203125 65.460938 134.761719 65.664062 135.347656 65.835938 C 136.488281 66.1875 137.246094 66.457031 138.007812 67.394531 C 138.589844 68.710938 138.6875 69.886719 138.246094 71.261719 C 137.101562 72.90625 134.941406 73.597656 133.15625 74.367188 C 132.730469 74.554688 132.304688 74.738281 131.878906 74.925781 C 131.398438 75.136719 130.914062 75.347656 130.433594 75.558594 C 128.335938 76.476562 126.242188 77.410156 124.148438 78.339844 C 123.917969 78.441406 123.683594 78.546875 123.449219 78.648438 C 118.605469 80.800781 113.769531 82.96875 108.941406 85.148438 C 108.761719 85.226562 108.585938 85.304688 108.40625 85.386719 C 106.785156 86.117188 105.164062 86.851562 103.542969 87.582031 C 100.054688 89.15625 96.5625 90.722656 93.070312 92.285156 C 90.996094 93.210938 88.921875 94.144531 86.847656 95.078125 C 85.832031 95.535156 84.816406 95.992188 83.800781 96.445312 C 83.390625 96.628906 82.980469 96.8125 82.574219 96.996094 C 82.371094 97.085938 82.164062 97.175781 81.957031 97.269531 C 80.726562 97.824219 79.496094 98.386719 78.265625 98.953125 C 77.480469 99.316406 76.691406 99.675781 75.902344 100.035156 C 75.53125 100.203125 75.160156 100.375 74.792969 100.546875 C 74.28125 100.785156 73.769531 101.019531 73.253906 101.253906 C 73.109375 101.324219 72.960938 101.394531 72.808594 101.464844 C 70.480469 102.5 68.332031 101.820312 66.027344 101.070312 C 65.734375 100.980469 65.445312 100.890625 65.148438 100.796875 C 64.378906 100.554688 63.613281 100.308594 62.84375 100.0625 C 62.089844 99.824219 61.332031 99.585938 60.578125 99.347656 C 59.371094 98.964844 58.160156 98.582031 56.953125 98.199219 C 55.132812 97.621094 53.304688 97.054688 51.480469 96.488281 C 49.019531 95.730469 46.5625 94.964844 44.105469 94.1875 C 43.582031 94.023438 43.054688 93.855469 42.53125 93.691406 C 40.851562 93.164062 39.175781 92.628906 37.5 92.089844 C 33.425781 90.777344 29.34375 89.496094 25.253906 88.234375 C 24.359375 87.960938 23.46875 87.6875 22.578125 87.410156 C 22 87.230469 21.421875 87.054688 20.84375 86.875 C 19.503906 86.460938 18.164062 86.039062 16.828125 85.601562 C 16.589844 85.523438 16.347656 85.441406 16.101562 85.363281 C 15.65625 85.214844 15.210938 85.066406 14.769531 84.917969 C 13.453125 84.484375 12.242188 84.183594 10.867188 84.585938 C 9.441406 85.320312 8.402344 86.257812 7.804688 87.785156 C 7.734375 88.457031 7.683594 89.109375 7.65625 89.78125 C 7.648438 89.972656 7.636719 90.164062 7.628906 90.363281 C 7.550781 92.144531 7.523438 93.921875 7.566406 95.703125 C 7.570312 95.867188 7.570312 96.027344 7.574219 96.195312 C 7.628906 98.539062 7.832031 100.417969 9.246094 102.359375 C 11.164062 103.792969 13.699219 104.402344 15.957031 105.105469 C 19.21875 106.132812 22.445312 107.234375 25.675781 108.355469 C 26.53125 108.652344 27.386719 108.949219 28.242188 109.242188 C 31.199219 110.253906 34.152344 111.28125 37.097656 112.324219 C 39.652344 113.230469 42.210938 114.121094 44.785156 114.96875 C 47.378906 115.824219 49.960938 116.714844 52.535156 117.613281 C 53.207031 117.847656 53.875 118.078125 54.542969 118.3125 C 56.472656 118.980469 58.402344 119.652344 60.308594 120.378906 C 61.0625 120.664062 61.816406 120.941406 62.570312 121.21875 C 62.917969 121.347656 63.265625 121.480469 63.609375 121.621094 C 66.503906 122.777344 68.496094 122.53125 71.320312 121.375 C 71.765625 121.160156 72.183594 120.925781 72.605469 120.667969 C 74.375 119.667969 76.191406 118.800781 78.039062 117.953125 C 78.625 117.683594 79.210938 117.417969 79.796875 117.148438 C 79.941406 117.082031 80.089844 117.011719 80.238281 116.945312 C 81.765625 116.238281 83.28125 115.507812 84.796875 114.773438 C 87.207031 113.609375 89.632812 112.472656 92.0625 111.351562 C 94.492188 110.230469 96.914062 109.085938 99.332031 107.9375 C 102.253906 106.550781 105.183594 105.175781 108.121094 103.816406 C 110.289062 102.816406 112.453125 101.800781 114.613281 100.785156 C 114.785156 100.707031 114.953125 100.625 115.128906 100.542969 C 116.722656 99.792969 118.316406 99.042969 119.914062 98.292969 C 120.84375 97.851562 121.777344 97.414062 122.710938 96.976562 C 123.234375 96.730469 123.753906 96.484375 124.277344 96.238281 C 127.410156 94.761719 129.183594 94.023438 129.597656 94.023438 C 129.53125 93.894531 129.464844 93.765625 129.398438 93.632812 C 128.511719 91.722656 128.433594 89.855469 128.398438 87.785156 C 128.390625 87.542969 128.386719 87.304688 128.382812 87.054688 C 128.367188 86.253906 128.359375 85.453125 128.351562 84.652344 C 128.347656 84.394531 128.347656 84.136719 128.34375 83.875 C 128.339844 82.292969 128.359375 80.898438 129.253906 79.539062 C 130.117188 78.964844 130.980469 78.953125 132 78.910156 C 132.53125 79.976562 132.554688 80.980469 132.5625 82.144531 C 132.566406 82.339844 132.570312 82.535156 132.574219 82.738281 C 132.585938 83.359375 132.59375 83.984375 132.601562 84.609375 C 132.609375 85.425781 132.625 86.246094 132.640625 87.0625 C 132.640625 87.246094 132.640625 87.433594 132.644531 87.621094 C 132.667969 88.925781 132.875 90.125 133.203125 91.386719 C 133.429688 91.429688 133.660156 91.472656 133.894531 91.515625 C 134.195312 91.578125 134.5 91.636719 134.808594 91.699219 C 135.105469 91.757812 135.40625 91.816406 135.710938 91.878906 C 136.679688 92.136719 137.46875 92.390625 138.050781 93.238281 C 138.5 94.464844 138.695312 95.644531 138.246094 96.902344 C 137.273438 98.429688 135.929688 98.976562 134.3125 99.707031 C 133.769531 99.960938 133.226562 100.210938 132.679688 100.464844 C 132.40625 100.59375 132.132812 100.71875 131.847656 100.847656 C 130.636719 101.40625 129.433594 101.980469 128.234375 102.554688 C 128.007812 102.664062 127.78125 102.769531 127.546875 102.882812 C 125.757812 103.734375 123.988281 104.617188 122.21875 105.507812 C 119.328125 106.957031 116.402344 108.339844 113.476562 109.714844 C 111.777344 110.515625 110.078125 111.320312 108.398438 112.167969 C 105.382812 113.6875 102.332031 115.136719 99.289062 116.601562 C 98.882812 116.796875 98.480469 116.992188 98.074219 117.1875 C 95.425781 118.464844 92.769531 119.714844 90.097656 120.9375 C 88.320312 121.753906 86.550781 122.578125 84.804688 123.464844 C 82.128906 124.816406 79.425781 126.109375 76.722656 127.402344 C 76.121094 127.691406 75.519531 127.980469 74.921875 128.269531 C 74.140625 128.648438 73.359375 129.023438 72.574219 129.394531 C 72.347656 129.507812 72.117188 129.617188 71.886719 129.734375 C 68.058594 131.523438 64.074219 129.433594 60.351562 128.089844 C 59.464844 127.773438 58.578125 127.457031 57.691406 127.144531 C 57.515625 127.082031 57.339844 127.019531 57.15625 126.953125 C 55.523438 126.375 53.878906 125.828125 52.234375 125.285156 C 49.941406 124.53125 47.671875 123.738281 45.40625 122.917969 C 41.636719 121.550781 37.839844 120.265625 34.042969 118.972656 C 33.296875 118.71875 32.546875 118.464844 31.796875 118.207031 C 31.609375 118.144531 31.421875 118.078125 31.226562 118.011719 C 27.613281 116.78125 24.011719 115.53125 20.410156 114.269531 C 18.472656 113.59375 16.535156 112.917969 14.585938 112.265625 C 14.265625 112.15625 13.945312 112.050781 13.625 111.941406 C 13.054688 111.75 12.484375 111.558594 11.910156 111.371094 C 8.046875 110.070312 4.550781 107.859375 2.648438 104.128906 C 0.402344 99.027344 0.0664062 91.222656 1.742188 85.890625 C 2.675781 83.578125 4.066406 82.035156 5.886719 80.347656 C 5.550781 79.574219 5.171875 79.152344 4.535156 78.609375 C 3.601562 77.703125 3.015625 76.742188 2.429688 75.597656 C 2.351562 75.441406 2.269531 75.289062 2.1875 75.132812 C 0.988281 72.660156 0.996094 70.007812 1.003906 67.316406 C 1.003906 66.753906 1 66.195312 0.992188 65.632812 C 0.972656 60.789062 1.800781 56.691406 5.238281 53.105469 C 5.667969 52.714844 6.046875 52.519531 6.367188 52.519531 C 6.261719 52.410156 6.160156 52.296875 6.058594 52.183594 C 2.675781 48.429688 1.019531 44.664062 1.050781 39.566406 C 1.050781 39.359375 1.050781 39.15625 1.054688 38.941406 C 1.066406 37.304688 1.109375 35.667969 1.171875 34.03125 C 1.179688 33.8125 1.1875 33.589844 1.191406 33.359375 C 1.375 29.1875 2.519531 25.65625 5.644531 22.773438 C 6.621094 21.886719 7.550781 21.496094 8.777344 21.085938 C 8.96875 21.019531 9.15625 20.953125 9.351562 20.886719 C 9.972656 20.675781 10.59375 20.464844 11.214844 20.253906 C 11.648438 20.105469 12.082031 19.957031 12.519531 19.804688 C 13.402344 19.5 14.289062 19.195312 15.175781 18.894531 C 16.855469 18.316406 18.527344 17.726562 20.199219 17.132812 C 23.097656 16.105469 26 15.097656 28.90625 14.101562 C 31.066406 13.359375 33.222656 12.605469 35.375 11.847656 C 41.46875 9.703125 47.578125 7.605469 53.710938 5.578125 C 57.027344 4.480469 60.324219 3.332031 63.617188 2.164062 C 63.796875 2.101562 63.976562 2.035156 64.164062 1.96875 C 64.503906 1.851562 64.839844 1.730469 65.179688 1.609375 C 69.078125 0.230469 73.386719 1.941406 77.269531 2.882812 Z M 132 27.332031 C 132.574219 28.191406 132.554688 28.824219 132.5625 29.820312 C 132.566406 29.996094 132.570312 30.167969 132.574219 30.347656 C 132.585938 30.90625 132.59375 31.464844 132.601562 32.023438 C 132.554688 34.253906 132.753906 36.449219 133.203125 38.605469 C 133.601562 38.9375 134.082031 39.179688 134.644531 39.324219 C 136.417969 39.953125 137.539062 40.671875 138.007812 41.484375 C 138.367188 42.699219 138.515625 43.917969 138.042969 45.121094 C 137.085938 46.644531 135.605469 47.152344 133.992188 47.753906 C 133.171875 48.0625 132.359375 48.394531 131.546875 48.722656 C 130.789062 49.027344 130.03125 49.328125 129.273438 49.628906 C 128.082031 50.101562 126.890625 50.582031 125.703125 51.0625 C 119.859375 53.425781 115.714844 54.980469 113.269531 55.730469 C 112.78125 55.878906 112.296875 56.03125 111.816406 56.1875 C 110.453125 56.621094 109.492188 56.839844 108.9375 56.839844 C 108.769531 54.355469 108.671875 51.894531 108.699219 49.402344 C 111.546875 47.84375 114.53125 46.777344 117.585938 45.699219 C 118.070312 45.527344 118.554688 45.351562 119.039062 45.179688 C 119.757812 44.921875 120.480469 44.667969 121.199219 44.410156 C 123.128906 43.726562 125.046875 43.027344 126.96875 42.324219 C 127.171875 42.25 127.378906 42.171875 127.589844 42.09375 C 127.769531 42.03125 127.949219 41.964844 128.136719 41.894531 C 128.617188 41.730469 129.101562 41.601562 129.597656 41.484375 C 129.484375 41.203125 129.371094 40.921875 129.253906 40.628906 C 128.632812 39.097656 128.601562 37.503906 128.597656 35.875 C 128.597656 35.6875 128.59375 35.5 128.59375 35.308594 C 128.59375 34.917969 128.59375 34.527344 128.59375 34.136719 C 128.59375 33.539062 128.589844 32.941406 128.582031 32.34375 C 128.582031 31.960938 128.582031 31.578125 128.582031 31.199219 C 128.582031 31.019531 128.578125 30.84375 128.578125 30.660156 C 128.582031 29.683594 128.660156 28.917969 129.117188 28.050781 C 130.046875 27.214844 130.789062 26.957031 132 27.332031 Z M 16.453125 35.726562 C 18.011719 35.804688 19.386719 36.175781 20.878906 36.621094 C 22.1875 36.996094 23.515625 37.28125 24.847656 37.578125 C 27.742188 38.234375 30.601562 38.996094 33.457031 39.808594 C 39.003906 41.378906 44.570312 42.867188 50.152344 44.320312 C 50.6875 44.457031 51.226562 44.597656 51.765625 44.738281 C 52.023438 44.808594 52.285156 44.875 52.550781 44.945312 C 54.390625 45.425781 56.226562 45.933594 58.054688 46.449219 C 60.257812 47.074219 62.464844 47.644531 64.695312 48.15625 C 65.28125 48.292969 65.867188 48.429688 66.453125 48.566406 C 66.703125 48.625 66.953125 48.683594 67.207031 48.738281 C 67.808594 48.90625 68.300781 49.0625 68.820312 49.402344 C 68.960938 49.871094 69.042969 50.351562 69.0625 50.839844 C 68.902344 51.078125 68.746094 51.316406 68.582031 51.5625 C 67.121094 51.691406 65.847656 51.425781 64.4375 51.058594 C 64.230469 51.007812 64.019531 50.953125 63.800781 50.898438 C 63.117188 50.726562 62.433594 50.550781 61.75 50.375 C 61.269531 50.253906 60.792969 50.132812 60.3125 50.011719 C 57.25 49.234375 54.199219 48.425781 51.15625 47.582031 C 48.695312 46.902344 46.226562 46.253906 43.757812 45.613281 C 40.453125 44.753906 37.15625 43.882812 33.871094 42.953125 C 33.710938 42.910156 33.550781 42.863281 33.386719 42.820312 C 32.386719 42.535156 31.386719 42.25 30.386719 41.964844 C 28.113281 41.316406 25.84375 40.703125 23.539062 40.164062 C 21.886719 39.777344 20.230469 39.382812 18.585938 38.953125 C 18.40625 38.90625 18.222656 38.863281 18.039062 38.816406 C 17.292969 38.617188 16.773438 38.441406 16.210938 37.898438 C 15.867188 37.191406 16.015625 36.710938 16.214844 35.96875 Z M 105.335938 40.046875 C 105.851562 40.832031 105.875 41.484375 105.875 42.410156 C 105.875 42.699219 105.875 42.988281 105.875 43.28125 C 105.875 43.597656 105.875 43.914062 105.871094 44.234375 C 105.871094 44.570312 105.871094 44.90625 105.871094 45.238281 C 105.871094 46.148438 105.867188 47.054688 105.863281 47.964844 C 105.859375 48.53125 105.859375 49.097656 105.855469 49.667969 C 105.851562 51.84375 105.839844 54.023438 105.824219 56.203125 C 105.816406 57.625 105.8125 59.046875 105.808594 60.464844 C 105.804688 62.222656 105.796875 63.980469 105.78125 65.734375 C 105.777344 66.664062 105.769531 67.589844 105.769531 68.515625 C 105.769531 69.386719 105.761719 70.257812 105.75 71.128906 C 105.746094 71.601562 105.746094 72.070312 105.75 72.542969 C 105.722656 74.082031 105.476562 75.148438 105.007812 75.742188 C 104.585938 76.09375 104.144531 76.320312 103.683594 76.417969 C 102.757812 76.238281 102.035156 75.867188 101.238281 75.386719 C 101.09375 75.304688 100.949219 75.222656 100.800781 75.140625 C 99.214844 74.210938 98.195312 72.96875 97.167969 71.472656 C 95.996094 71.816406 95.269531 72.453125 94.527344 73.390625 C 94.273438 73.859375 94.054688 74.335938 93.832031 74.816406 C 93.4375 75.546875 92.90625 76.109375 92.347656 76.714844 C 91.664062 77.472656 91.042969 78.277344 90.417969 79.078125 C 89.628906 80.035156 88.914062 80.617188 88.28125 80.828125 C 87.207031 79.792969 87.046875 79.332031 87.003906 77.839844 C 87 77.679688 86.996094 77.515625 86.992188 77.351562 C 86.976562 76.800781 86.960938 76.25 86.949219 75.703125 C 86.941406 75.511719 86.9375 75.316406 86.933594 75.121094 C 86.804688 69.957031 86.777344 64.796875 86.765625 59.632812 C 86.765625 58.535156 86.761719 57.4375 86.753906 56.339844 C 86.742188 54.992188 86.738281 53.644531 86.738281 52.296875 C 86.738281 51.789062 86.734375 51.277344 86.730469 50.769531 C 86.722656 50.070312 86.722656 49.367188 86.726562 48.667969 C 86.722656 48.457031 86.71875 48.25 86.714844 48.035156 C 86.722656 47.105469 86.917969 46.4375 87.296875 46.039062 C 87.804688 45.800781 88.230469 45.671875 88.78125 45.582031 C 90.09375 45.324219 91.261719 44.828125 92.484375 44.304688 C 94.242188 43.570312 95.996094 42.875 97.800781 42.265625 C 98.75 41.941406 99.679688 41.585938 100.609375 41.203125 C 100.824219 41.113281 101.042969 41.023438 101.265625 40.929688 C 101.6875 40.753906 102.109375 40.574219 102.527344 40.394531 C 103.785156 39.871094 104.722656 39.753906 105.335938 40.046875 Z M 19.097656 43.402344 C 20.140625 43.640625 21.15625 43.960938 22.175781 44.289062 C 24.105469 44.902344 26.03125 45.441406 28.007812 45.902344 C 30.554688 46.492188 33.058594 47.191406 35.566406 47.917969 C 36.007812 48.042969 36.453125 48.171875 36.894531 48.300781 C 38.167969 48.664062 39.441406 49.035156 40.714844 49.402344 C 44.296875 50.4375 47.878906 51.445312 51.496094 52.367188 C 53.691406 52.929688 55.863281 53.550781 58.039062 54.183594 C 59.605469 54.636719 61.175781 55.058594 62.761719 55.441406 C 62.9375 55.484375 63.113281 55.527344 63.296875 55.574219 C 64.160156 55.78125 65.023438 55.988281 65.886719 56.191406 C 66.199219 56.265625 66.511719 56.339844 66.824219 56.417969 C 67.101562 56.480469 67.375 56.546875 67.660156 56.613281 C 68.335938 56.835938 68.65625 56.976562 69.0625 57.558594 C 69.042969 58.046875 68.960938 58.527344 68.820312 58.996094 C 67.800781 59.675781 67.195312 59.386719 66.027344 59.167969 C 64.710938 58.890625 63.402344 58.578125 62.097656 58.25 C 61.804688 58.175781 61.511719 58.101562 61.214844 58.027344 C 58.90625 57.441406 56.621094 56.792969 54.335938 56.128906 C 52.28125 55.539062 50.21875 54.996094 48.148438 54.46875 C 45.421875 53.777344 42.714844 53.039062 40.011719 52.265625 C 39.832031 52.214844 39.652344 52.164062 39.46875 52.109375 C 37.765625 51.621094 36.066406 51.128906 34.367188 50.621094 C 31.496094 49.769531 28.605469 49.003906 25.695312 48.289062 C 22.492188 47.5 19.332031 46.640625 16.214844 45.5625 C 16.101562 45.113281 16.023438 44.632812 15.972656 44.125 C 16.757812 43.035156 17.882812 43.265625 19.097656 43.40625 Z M 18.855469 63.554688 C 19.53125 63.703125 20.175781 63.917969 20.832031 64.148438 C 21.019531 64.210938 21.210938 64.273438 21.40625 64.339844 C 21.820312 64.476562 22.234375 64.617188 22.648438 64.757812 C 23.789062 65.148438 24.9375 65.523438 26.085938 65.902344 C 26.328125 65.984375 26.574219 66.066406 26.828125 66.148438 C 29.925781 67.164062 33.046875 68.105469 36.167969 69.042969 C 36.445312 69.128906 36.722656 69.210938 37.007812 69.296875 C 38.085938 69.621094 39.164062 69.945312 40.242188 70.269531 C 42.433594 70.929688 44.625 71.601562 46.8125 72.277344 C 48.183594 72.699219 49.558594 73.113281 50.941406 73.511719 C 52.792969 74.050781 54.625 74.644531 56.460938 75.238281 C 58.007812 75.734375 59.558594 76.207031 61.117188 76.664062 C 61.296875 76.714844 61.480469 76.769531 61.671875 76.824219 C 62.578125 77.089844 63.484375 77.351562 64.394531 77.609375 C 64.730469 77.707031 65.066406 77.804688 65.402344 77.902344 C 65.695312 77.988281 65.992188 78.070312 66.296875 78.160156 C 67.804688 78.640625 68.726562 79.054688 69.0625 79.390625 C 69.011719 79.949219 68.933594 80.507812 68.824219 81.070312 C 67.511719 81.722656 65.902344 81.234375 64.585938 80.808594 C 64.414062 80.753906 64.246094 80.703125 64.070312 80.648438 C 63.515625 80.476562 62.964844 80.300781 62.410156 80.125 C 62.023438 80.003906 61.636719 79.882812 61.25 79.761719 C 60.464844 79.519531 59.683594 79.273438 58.898438 79.023438 C 57.871094 78.699219 56.84375 78.382812 55.816406 78.0625 C 53.046875 77.210938 51.066406 76.59375 49.863281 76.210938 C 47.4375 75.4375 45.003906 74.691406 42.5625 73.957031 C 42.398438 73.90625 42.234375 73.855469 42.0625 73.804688 C 40.515625 73.339844 38.964844 72.871094 37.417969 72.40625 C 33.0625 71.097656 28.722656 69.757812 24.398438 68.351562 C 23.171875 67.957031 21.945312 67.5625 20.71875 67.167969 C 20.496094 67.097656 20.277344 67.027344 20.050781 66.953125 C 19.136719 66.664062 18.234375 66.394531 17.296875 66.179688 C 16.734375 66.03125 16.292969 65.792969 15.972656 65.476562 C 16.003906 64.996094 16.082031 64.515625 16.214844 64.035156 C 17.117188 63.433594 17.8125 63.449219 18.855469 63.554688 Z M 17.640625 71.351562 C 18.828125 71.382812 19.871094 71.679688 20.992188 72.050781 C 21.398438 72.183594 21.808594 72.316406 22.21875 72.449219 C 22.445312 72.523438 22.671875 72.597656 22.90625 72.671875 C 24.359375 73.136719 25.820312 73.578125 27.277344 74.027344 C 27.605469 74.128906 27.933594 74.226562 28.265625 74.328125 C 29.113281 74.589844 29.957031 74.847656 30.804688 75.109375 C 32.316406 75.574219 33.828125 76.035156 35.339844 76.5 C 35.503906 76.550781 35.671875 76.601562 35.839844 76.652344 C 39.023438 77.632812 42.203125 78.617188 45.378906 79.601562 C 46.550781 79.964844 47.722656 80.328125 48.894531 80.691406 C 50.074219 81.054688 51.25 81.417969 52.429688 81.785156 C 53.019531 81.96875 53.613281 82.152344 54.207031 82.332031 C 57.394531 83.320312 60.585938 84.308594 63.765625 85.328125 C 65.183594 85.78125 66.605469 86.214844 68.039062 86.628906 C 68.402344 86.761719 68.742188 86.984375 69.0625 87.304688 C 69.023438 87.875 68.941406 88.433594 68.824219 88.984375 C 67.328125 89.730469 65.589844 88.953125 64.125 88.476562 C 63.566406 88.296875 63.007812 88.121094 62.453125 87.949219 C 62.296875 87.898438 62.144531 87.851562 61.984375 87.800781 C 59.882812 87.132812 57.769531 86.5 55.660156 85.859375 C 51.5 84.601562 47.34375 83.328125 43.195312 82.035156 C 42.378906 81.78125 41.5625 81.53125 40.75 81.277344 C 38.261719 80.511719 35.773438 79.738281 33.292969 78.953125 C 33.109375 78.894531 32.921875 78.835938 32.734375 78.777344 C 31.96875 78.535156 31.207031 78.296875 30.445312 78.054688 C 28.1875 77.339844 25.929688 76.632812 23.664062 75.941406 C 23.449219 75.878906 23.230469 75.8125 23.007812 75.742188 C 21.960938 75.425781 20.914062 75.105469 19.863281 74.789062 C 19.488281 74.675781 19.109375 74.5625 18.734375 74.445312 C 18.5625 74.394531 18.386719 74.34375 18.210938 74.289062 C 17.453125 74.058594 16.878906 73.835938 16.214844 73.390625 C 16.164062 72.910156 16.164062 72.433594 16.214844 71.953125 C 16.535156 71.632812 17.011719 71.433594 17.640625 71.351562 Z M 17.367188 91.785156 C 18.882812 91.804688 20.164062 92.359375 21.558594 92.914062 C 22.140625 93.136719 22.71875 93.359375 23.300781 93.578125 C 23.449219 93.636719 23.597656 93.695312 23.753906 93.753906 C 25.320312 94.351562 26.90625 94.902344 28.496094 95.449219 C 28.78125 95.546875 29.070312 95.644531 29.367188 95.746094 C 32.902344 96.953125 36.449219 98.125 39.996094 99.300781 C 45.117188 100.996094 50.234375 102.707031 55.335938 104.46875 C 56.59375 104.902344 57.851562 105.332031 59.109375 105.761719 C 60.058594 106.085938 61.003906 106.410156 61.953125 106.738281 C 62.414062 106.898438 62.875 107.054688 63.339844 107.210938 C 63.984375 107.433594 64.628906 107.652344 65.277344 107.878906 C 65.46875 107.941406 65.660156 108.007812 65.855469 108.074219 C 66.96875 108.460938 67.894531 108.886719 68.820312 109.617188 C 68.902344 109.855469 68.980469 110.09375 69.0625 110.335938 C 68.832031 110.765625 68.589844 111.167969 68.339844 111.535156 C 67.042969 111.40625 65.933594 111.175781 64.699219 110.726562 C 64.539062 110.671875 64.382812 110.613281 64.21875 110.554688 C 63.875 110.433594 63.535156 110.308594 63.195312 110.183594 C 62.28125 109.851562 61.363281 109.523438 60.449219 109.199219 C 60.261719 109.132812 60.074219 109.066406 59.882812 108.996094 C 58.15625 108.378906 56.421875 107.792969 54.679688 107.21875 C 54.386719 107.121094 54.097656 107.027344 53.796875 106.925781 C 53.195312 106.726562 52.59375 106.53125 51.992188 106.332031 C 50.445312 105.820312 48.902344 105.304688 47.359375 104.792969 C 46.445312 104.488281 45.53125 104.183594 44.617188 103.878906 C 44.246094 103.753906 43.875 103.632812 43.507812 103.507812 C 43.324219 103.449219 43.140625 103.386719 42.953125 103.324219 C 41.84375 102.953125 41.101562 102.707031 40.730469 102.585938 C 40.363281 102.464844 39.996094 102.339844 39.628906 102.21875 C 38.714844 101.914062 37.800781 101.609375 36.890625 101.304688 C 35.238281 100.753906 33.585938 100.207031 31.933594 99.664062 C 28.652344 98.585938 25.378906 97.476562 22.121094 96.332031 C 21.699219 96.183594 21.277344 96.035156 20.855469 95.890625 C 20.265625 95.6875 19.675781 95.480469 19.085938 95.269531 C 18.910156 95.210938 18.734375 95.152344 18.554688 95.089844 C 17.453125 94.691406 16.726562 94.238281 15.972656 93.304688 C 16.027344 92.105469 16.167969 91.890625 17.363281 91.785156 Z M 16.695312 99.300781 C 18.375 99.363281 19.863281 99.921875 21.4375 100.484375 C 21.710938 100.582031 21.984375 100.679688 22.261719 100.773438 C 23.695312 101.28125 25.125 101.792969 26.554688 102.308594 C 27.117188 102.511719 27.679688 102.714844 28.238281 102.914062 C 28.519531 103.015625 28.796875 103.117188 29.085938 103.21875 C 31.675781 104.140625 34.285156 104.976562 36.90625 105.800781 C 40.316406 106.882812 43.691406 108.0625 47.0625 109.261719 C 48.835938 109.894531 50.609375 110.523438 52.386719 111.140625 C 52.78125 111.277344 53.171875 111.414062 53.566406 111.550781 C 54.132812 111.75 54.703125 111.949219 55.273438 112.148438 C 57.273438 112.839844 59.257812 113.558594 61.226562 114.339844 C 62.816406 114.964844 64.40625 115.507812 66.058594 115.945312 C 66.488281 116.0625 66.914062 116.175781 67.34375 116.296875 C 67.523438 116.34375 67.707031 116.390625 67.890625 116.441406 C 68.191406 116.53125 68.5 116.652344 68.820312 116.8125 C 69.070312 117.414062 69.097656 117.683594 68.867188 118.296875 C 68.675781 118.589844 68.421875 118.8125 68.101562 118.972656 C 66.652344 119.058594 65.484375 118.855469 64.109375 118.417969 C 63.902344 118.355469 63.695312 118.292969 63.484375 118.226562 C 61.039062 117.453125 58.644531 116.550781 56.242188 115.660156 C 48.996094 112.972656 41.695312 110.464844 34.351562 108.066406 C 29.25 106.394531 24.199219 104.628906 19.179688 102.722656 C 18.527344 102.476562 17.867188 102.246094 17.207031 102.015625 C 16.703125 101.804688 16.292969 101.460938 15.972656 100.980469 C 16.050781 100.183594 16.117188 99.875 16.695312 99.300781 Z M 16.695312 99.300781 " fill-opacity="1" fill-rule="nonzero"/></g></svg>
