<svg xmlns="http://www.w3.org/2000/svg" xmlns:xlink="http://www.w3.org/1999/xlink" width="216" zoomAndPan="magnify" viewBox="0 0 162 161.999997" height="216" preserveAspectRatio="xMidYMid meet" version="1.0"><rect x="-16.2" width="194.4" fill="#ffffff" y="-16.2" height="194.399996" fill-opacity="1"/><path fill="#e9e4d4" d="M 115.714844 63.488281 C 116.078125 63.851562 116.359375 64.269531 116.558594 64.742188 C 116.757812 65.21875 116.855469 65.714844 116.855469 66.226562 C 116.855469 66.742188 116.757812 67.234375 116.558594 67.710938 C 116.359375 68.183594 116.078125 68.605469 115.714844 68.964844 C 114.972656 69.71875 114.070312 70.078125 113.015625 70.046875 C 111.929688 70.042969 111.003906 69.65625 110.238281 68.886719 L 84.855469 43.507812 L 84.855469 126.976562 C 84.855469 127.488281 84.757812 127.980469 84.5625 128.453125 C 84.367188 128.925781 84.089844 129.34375 83.726562 129.703125 C 83.367188 130.066406 82.949219 130.34375 82.476562 130.539062 C 82.003906 130.738281 81.511719 130.835938 81 130.835938 C 80.488281 130.835938 79.996094 130.738281 79.523438 130.539062 C 79.050781 130.34375 78.632812 130.066406 78.273438 129.703125 C 77.910156 129.34375 77.632812 128.925781 77.4375 128.453125 C 77.242188 127.980469 77.144531 127.488281 77.144531 126.976562 L 77.144531 43.507812 L 52.226562 68.886719 C 51.867188 69.257812 51.453125 69.542969 50.980469 69.746094 C 50.507812 69.949219 50.015625 70.054688 49.503906 70.0625 C 48.988281 70.070312 48.492188 69.980469 48.015625 69.789062 C 47.539062 69.601562 47.113281 69.324219 46.746094 68.96875 C 46.378906 68.609375 46.09375 68.195312 45.890625 67.722656 C 45.6875 67.25 45.582031 66.757812 45.574219 66.242188 C 45.566406 65.730469 45.660156 65.234375 45.847656 64.757812 C 46.039062 64.28125 46.3125 63.855469 46.671875 63.488281 L 78.222656 31.398438 C 78.601562 31.046875 79.03125 30.777344 79.507812 30.589844 C 79.988281 30.402344 80.484375 30.308594 81 30.308594 C 81.515625 30.308594 82.011719 30.402344 82.492188 30.589844 C 82.96875 30.777344 83.398438 31.046875 83.777344 31.398438 Z M 162 81 C 162 82.324219 161.96875 83.652344 161.902344 84.972656 C 161.835938 86.296875 161.738281 87.621094 161.609375 88.9375 C 161.480469 90.257812 161.316406 91.574219 161.125 92.886719 C 160.929688 94.195312 160.703125 95.503906 160.445312 96.800781 C 160.183594 98.101562 159.894531 99.394531 159.574219 100.679688 C 159.25 101.96875 158.898438 103.246094 158.511719 104.511719 C 158.128906 105.78125 157.710938 107.039062 157.265625 108.289062 C 156.820312 109.535156 156.339844 110.773438 155.835938 111.996094 C 155.328125 113.222656 154.789062 114.433594 154.222656 115.632812 C 153.65625 116.832031 153.058594 118.015625 152.4375 119.183594 C 151.8125 120.351562 151.15625 121.503906 150.476562 122.640625 C 149.792969 123.78125 149.085938 124.898438 148.347656 126 C 147.613281 127.101562 146.847656 128.1875 146.058594 129.25 C 145.269531 130.316406 144.453125 131.359375 143.613281 132.386719 C 142.773438 133.410156 141.90625 134.414062 141.015625 135.394531 C 140.125 136.378906 139.214844 137.339844 138.277344 138.277344 C 137.339844 139.214844 136.378906 140.125 135.394531 141.015625 C 134.414062 141.90625 133.410156 142.773438 132.386719 143.613281 C 131.359375 144.453125 130.316406 145.269531 129.25 146.058594 C 128.1875 146.847656 127.101562 147.613281 126 148.347656 C 124.898438 149.085938 123.78125 149.792969 122.640625 150.476562 C 121.503906 151.15625 120.351562 151.8125 119.183594 152.4375 C 118.015625 153.058594 116.832031 153.65625 115.632812 154.222656 C 114.433594 154.789062 113.222656 155.328125 111.996094 155.835938 C 110.773438 156.339844 109.535156 156.820312 108.289062 157.265625 C 107.039062 157.710938 105.78125 158.128906 104.511719 158.511719 C 103.246094 158.898438 101.96875 159.25 100.679688 159.574219 C 99.394531 159.894531 98.101562 160.183594 96.800781 160.445312 C 95.503906 160.703125 94.195312 160.929688 92.886719 161.125 C 91.574219 161.316406 90.257812 161.480469 88.9375 161.609375 C 87.621094 161.738281 86.296875 161.835938 84.972656 161.902344 C 83.652344 161.96875 82.324219 162 81 162 C 79.675781 162 78.347656 161.96875 77.027344 161.902344 C 75.703125 161.835938 74.378906 161.738281 73.0625 161.609375 C 71.742188 161.480469 70.425781 161.316406 69.113281 161.125 C 67.804688 160.929688 66.496094 160.703125 65.199219 160.445312 C 63.898438 160.183594 62.605469 159.894531 61.320312 159.574219 C 60.03125 159.25 58.753906 158.898438 57.488281 158.511719 C 56.21875 158.128906 54.960938 157.710938 53.710938 157.265625 C 52.464844 156.820312 51.226562 156.339844 50.003906 155.835938 C 48.777344 155.328125 47.566406 154.789062 46.367188 154.222656 C 45.167969 153.65625 43.984375 153.058594 42.816406 152.4375 C 41.648438 151.8125 40.496094 151.15625 39.359375 150.476562 C 38.21875 149.792969 37.101562 149.085938 36 148.347656 C 34.898438 147.613281 33.8125 146.847656 32.75 146.058594 C 31.683594 145.269531 30.640625 144.453125 29.613281 143.613281 C 28.589844 142.773438 27.585938 141.90625 26.605469 141.015625 C 25.621094 140.125 24.660156 139.214844 23.722656 138.277344 C 22.785156 137.339844 21.875 136.378906 20.984375 135.394531 C 20.09375 134.414062 19.226562 133.410156 18.386719 132.386719 C 17.546875 131.359375 16.730469 130.316406 15.941406 129.25 C 15.152344 128.1875 14.386719 127.101562 13.652344 126 C 12.914062 124.898438 12.207031 123.78125 11.523438 122.640625 C 10.84375 121.503906 10.1875 120.351562 9.5625 119.183594 C 8.941406 118.015625 8.34375 116.832031 7.777344 115.632812 C 7.210938 114.433594 6.671875 113.222656 6.164062 111.996094 C 5.660156 110.773438 5.179688 109.535156 4.734375 108.289062 C 4.289062 107.039062 3.871094 105.78125 3.488281 104.511719 C 3.101562 103.246094 2.75 101.96875 2.425781 100.679688 C 2.105469 99.394531 1.816406 98.101562 1.554688 96.800781 C 1.296875 95.503906 1.070312 94.195312 0.875 92.886719 C 0.683594 91.574219 0.519531 90.257812 0.390625 88.9375 C 0.261719 87.621094 0.164062 86.296875 0.0976562 84.972656 C 0.03125 83.652344 0 82.324219 0 81 C 0 79.675781 0.03125 78.347656 0.0976562 77.027344 C 0.164062 75.703125 0.261719 74.378906 0.390625 73.0625 C 0.519531 71.742188 0.683594 70.425781 0.875 69.113281 C 1.070312 67.804688 1.296875 66.496094 1.554688 65.199219 C 1.816406 63.898438 2.105469 62.605469 2.425781 61.320312 C 2.75 60.03125 3.101562 58.753906 3.488281 57.488281 C 3.871094 56.21875 4.289062 54.960938 4.734375 53.710938 C 5.179688 52.464844 5.660156 51.226562 6.164062 50.003906 C 6.671875 48.777344 7.210938 47.566406 7.777344 46.367188 C 8.34375 45.167969 8.941406 43.984375 9.5625 42.816406 C 10.1875 41.648438 10.84375 40.496094 11.523438 39.359375 C 12.207031 38.21875 12.914062 37.101562 13.652344 36 C 14.386719 34.898438 15.152344 33.8125 15.941406 32.75 C 16.730469 31.683594 17.546875 30.640625 18.386719 29.613281 C 19.226562 28.589844 20.09375 27.585938 20.984375 26.605469 C 21.875 25.621094 22.785156 24.660156 23.722656 23.722656 C 24.660156 22.785156 25.621094 21.875 26.605469 20.984375 C 27.585938 20.09375 28.589844 19.226562 29.613281 18.386719 C 30.640625 17.546875 31.683594 16.730469 32.75 15.941406 C 33.8125 15.152344 34.898438 14.386719 36 13.652344 C 37.101562 12.914062 38.21875 12.207031 39.359375 11.523438 C 40.496094 10.84375 41.648438 10.1875 42.816406 9.5625 C 43.984375 8.941406 45.167969 8.34375 46.367188 7.777344 C 47.566406 7.210938 48.777344 6.671875 50.003906 6.164062 C 51.226562 5.660156 52.464844 5.179688 53.710938 4.734375 C 54.960938 4.289062 56.21875 3.871094 57.488281 3.488281 C 58.753906 3.101562 60.03125 2.75 61.320312 2.425781 C 62.605469 2.105469 63.898438 1.816406 65.199219 1.554688 C 66.496094 1.296875 67.804688 1.070312 69.113281 0.875 C 70.425781 0.683594 71.742188 0.519531 73.0625 0.390625 C 74.378906 0.261719 75.703125 0.164062 77.027344 0.0976562 C 78.347656 0.03125 79.675781 0 81 0 C 82.324219 0 83.648438 0.0351562 84.972656 0.101562 C 86.296875 0.167969 87.617188 0.265625 88.9375 0.398438 C 90.253906 0.527344 91.570312 0.691406 92.882812 0.886719 C 94.191406 1.082031 95.496094 1.308594 96.796875 1.570312 C 98.097656 1.828125 99.390625 2.121094 100.675781 2.441406 C 101.960938 2.765625 103.238281 3.121094 104.503906 3.503906 C 105.773438 3.890625 107.03125 4.308594 108.277344 4.753906 C 109.523438 5.199219 110.761719 5.679688 111.984375 6.1875 C 113.210938 6.695312 114.421875 7.230469 115.617188 7.796875 C 116.816406 8.367188 118 8.960938 119.167969 9.585938 C 120.335938 10.210938 121.488281 10.867188 122.625 11.546875 C 123.761719 12.230469 124.882812 12.9375 125.984375 13.675781 C 127.085938 14.410156 128.167969 15.175781 129.230469 15.964844 C 130.296875 16.753906 131.339844 17.570312 132.363281 18.410156 C 133.390625 19.25 134.394531 20.117188 135.375 21.007812 C 136.355469 21.894531 137.316406 22.808594 138.253906 23.746094 C 139.191406 24.683594 140.105469 25.644531 140.992188 26.625 C 141.882812 27.605469 142.75 28.609375 143.589844 29.636719 C 144.429688 30.660156 145.246094 31.703125 146.035156 32.769531 C 146.824219 33.832031 147.589844 34.914062 148.324219 36.015625 C 149.0625 37.117188 149.769531 38.238281 150.453125 39.375 C 151.132812 40.511719 151.789062 41.664062 152.414062 42.832031 C 153.039062 44 153.632812 45.183594 154.203125 46.382812 C 154.769531 47.578125 155.304688 48.789062 155.8125 50.015625 C 156.320312 51.238281 156.796875 52.476562 157.246094 53.722656 C 157.691406 54.96875 158.109375 56.226562 158.496094 57.496094 C 158.878906 58.761719 159.234375 60.039062 159.558594 61.324219 C 159.878906 62.609375 160.171875 63.902344 160.429688 65.203125 C 160.691406 66.503906 160.917969 67.808594 161.113281 69.117188 C 161.308594 70.429688 161.472656 71.746094 161.601562 73.0625 C 161.734375 74.382812 161.832031 75.703125 161.898438 77.027344 C 161.964844 78.351562 162 79.675781 162 81 Z M 154.285156 81 C 154.285156 79.800781 154.257812 78.601562 154.199219 77.402344 C 154.136719 76.207031 154.050781 75.011719 153.933594 73.816406 C 153.816406 72.625 153.667969 71.433594 153.492188 70.246094 C 153.316406 69.058594 153.113281 67.878906 152.878906 66.703125 C 152.644531 65.527344 152.378906 64.355469 152.089844 63.191406 C 151.796875 62.03125 151.476562 60.875 151.128906 59.726562 C 150.78125 58.578125 150.40625 57.441406 150 56.3125 C 149.597656 55.179688 149.167969 54.0625 148.707031 52.953125 C 148.25 51.847656 147.761719 50.75 147.25 49.667969 C 146.738281 48.582031 146.199219 47.511719 145.632812 46.453125 C 145.066406 45.394531 144.476562 44.351562 143.859375 43.324219 C 143.242188 42.292969 142.601562 41.28125 141.933594 40.285156 C 141.269531 39.289062 140.578125 38.308594 139.863281 37.34375 C 139.148438 36.378906 138.410156 35.433594 137.652344 34.507812 C 136.890625 33.582031 136.105469 32.671875 135.300781 31.785156 C 134.496094 30.894531 133.667969 30.027344 132.820312 29.179688 C 131.972656 28.332031 131.105469 27.503906 130.214844 26.699219 C 129.328125 25.894531 128.417969 25.109375 127.492188 24.347656 C 126.566406 23.589844 125.621094 22.851562 124.65625 22.136719 C 123.691406 21.421875 122.710938 20.730469 121.714844 20.066406 C 120.71875 19.398438 119.707031 18.757812 118.675781 18.140625 C 117.648438 17.523438 116.605469 16.933594 115.546875 16.367188 C 114.488281 15.800781 113.417969 15.261719 112.332031 14.75 C 111.25 14.238281 110.152344 13.75 109.046875 13.292969 C 107.9375 12.832031 106.820312 12.402344 105.6875 12 C 104.558594 11.59375 103.421875 11.21875 102.273438 10.871094 C 101.125 10.523438 99.96875 10.203125 98.808594 9.910156 C 97.644531 9.617188 96.472656 9.355469 95.296875 9.121094 C 94.121094 8.886719 92.941406 8.683594 91.753906 8.507812 C 90.566406 8.332031 89.375 8.183594 88.183594 8.066406 C 86.988281 7.949219 85.792969 7.863281 84.597656 7.800781 C 83.398438 7.742188 82.199219 7.714844 81 7.714844 C 79.800781 7.714844 78.601562 7.742188 77.402344 7.800781 C 76.207031 7.863281 75.011719 7.949219 73.816406 8.066406 C 72.625 8.183594 71.433594 8.332031 70.246094 8.507812 C 69.058594 8.683594 67.878906 8.886719 66.703125 9.121094 C 65.527344 9.355469 64.355469 9.621094 63.191406 9.910156 C 62.03125 10.203125 60.875 10.523438 59.726562 10.871094 C 58.578125 11.21875 57.441406 11.59375 56.3125 12 C 55.179688 12.402344 54.0625 12.832031 52.953125 13.292969 C 51.847656 13.75 50.75 14.238281 49.667969 14.75 C 48.582031 15.261719 47.511719 15.800781 46.453125 16.367188 C 45.394531 16.933594 44.351562 17.523438 43.324219 18.140625 C 42.292969 18.757812 41.28125 19.398438 40.285156 20.066406 C 39.289062 20.730469 38.308594 21.421875 37.34375 22.136719 C 36.378906 22.851562 35.433594 23.589844 34.507812 24.347656 C 33.582031 25.109375 32.671875 25.894531 31.785156 26.699219 C 30.894531 27.503906 30.027344 28.332031 29.179688 29.179688 C 28.332031 30.027344 27.503906 30.894531 26.699219 31.785156 C 25.894531 32.671875 25.109375 33.582031 24.347656 34.507812 C 23.589844 35.433594 22.851562 36.378906 22.136719 37.34375 C 21.421875 38.308594 20.730469 39.289062 20.066406 40.285156 C 19.398438 41.28125 18.757812 42.292969 18.140625 43.324219 C 17.523438 44.351562 16.933594 45.394531 16.367188 46.453125 C 15.800781 47.511719 15.261719 48.582031 14.75 49.667969 C 14.238281 50.75 13.75 51.847656 13.292969 52.953125 C 12.832031 54.0625 12.402344 55.179688 12 56.3125 C 11.59375 57.441406 11.21875 58.578125 10.871094 59.726562 C 10.523438 60.875 10.203125 62.03125 9.910156 63.191406 C 9.617188 64.355469 9.355469 65.527344 9.121094 66.703125 C 8.886719 67.878906 8.683594 69.058594 8.507812 70.246094 C 8.332031 71.433594 8.183594 72.625 8.066406 73.816406 C 7.949219 75.011719 7.863281 76.207031 7.800781 77.402344 C 7.742188 78.601562 7.714844 79.800781 7.714844 81 C 7.714844 82.199219 7.742188 83.398438 7.800781 84.597656 C 7.863281 85.792969 7.949219 86.988281 8.066406 88.183594 C 8.183594 89.375 8.332031 90.566406 8.507812 91.753906 C 8.683594 92.941406 8.886719 94.121094 9.121094 95.296875 C 9.355469 96.472656 9.617188 97.644531 9.910156 98.808594 C 10.203125 99.96875 10.523438 101.125 10.871094 102.273438 C 11.21875 103.421875 11.59375 104.558594 12 105.6875 C 12.402344 106.820312 12.832031 107.9375 13.292969 109.046875 C 13.75 110.152344 14.238281 111.25 14.75 112.332031 C 15.261719 113.417969 15.800781 114.488281 16.367188 115.546875 C 16.933594 116.605469 17.523438 117.648438 18.140625 118.675781 C 18.757812 119.707031 19.398438 120.71875 20.066406 121.714844 C 20.730469 122.710938 21.421875 123.691406 22.136719 124.65625 C 22.851562 125.621094 23.589844 126.566406 24.347656 127.492188 C 25.109375 128.417969 25.894531 129.328125 26.699219 130.214844 C 27.503906 131.105469 28.332031 131.972656 29.179688 132.820312 C 30.027344 133.667969 30.894531 134.496094 31.785156 135.300781 C 32.671875 136.105469 33.582031 136.890625 34.507812 137.652344 C 35.433594 138.410156 36.378906 139.148438 37.34375 139.863281 C 38.308594 140.578125 39.289062 141.269531 40.285156 141.933594 C 41.28125 142.601562 42.292969 143.242188 43.324219 143.859375 C 44.351562 144.476562 45.394531 145.066406 46.453125 145.632812 C 47.511719 146.199219 48.582031 146.738281 49.667969 147.25 C 50.75 147.761719 51.847656 148.25 52.953125 148.707031 C 54.0625 149.167969 55.179688 149.597656 56.3125 150 C 57.441406 150.40625 58.578125 150.78125 59.726562 151.128906 C 60.875 151.476562 62.03125 151.796875 63.191406 152.089844 C 64.355469 152.378906 65.527344 152.644531 66.703125 152.878906 C 67.878906 153.113281 69.058594 153.316406 70.246094 153.492188 C 71.433594 153.667969 72.625 153.816406 73.816406 153.933594 C 75.011719 154.050781 76.207031 154.136719 77.402344 154.199219 C 78.601562 154.257812 79.800781 154.285156 81 154.285156 C 82.199219 154.285156 83.398438 154.253906 84.59375 154.195312 C 85.792969 154.132812 86.988281 154.042969 88.179688 153.925781 C 89.375 153.808594 90.5625 153.660156 91.75 153.484375 C 92.933594 153.304688 94.117188 153.101562 95.292969 152.863281 C 96.46875 152.628906 97.636719 152.367188 98.800781 152.074219 C 99.964844 151.78125 101.117188 151.460938 102.265625 151.113281 C 103.414062 150.765625 104.550781 150.386719 105.679688 149.984375 C 106.808594 149.578125 107.925781 149.144531 109.035156 148.6875 C 110.140625 148.226562 111.238281 147.742188 112.320312 147.226562 C 113.402344 146.714844 114.472656 146.175781 115.53125 145.609375 C 116.589844 145.042969 117.632812 144.453125 118.660156 143.835938 C 119.6875 143.21875 120.699219 142.578125 121.695312 141.910156 C 122.695312 141.246094 123.671875 140.554688 124.636719 139.839844 C 125.601562 139.125 126.542969 138.386719 127.472656 137.628906 C 128.398438 136.867188 129.304688 136.082031 130.195312 135.277344 C 131.082031 134.472656 131.949219 133.644531 132.796875 132.796875 C 133.644531 131.949219 134.472656 131.082031 135.277344 130.195312 C 136.082031 129.304688 136.867188 128.398438 137.628906 127.472656 C 138.386719 126.542969 139.125 125.601562 139.839844 124.636719 C 140.554688 123.671875 141.246094 122.695312 141.910156 121.695312 C 142.578125 120.699219 143.21875 119.6875 143.835938 118.660156 C 144.453125 117.632812 145.042969 116.589844 145.609375 115.53125 C 146.175781 114.472656 146.714844 113.402344 147.226562 112.320312 C 147.742188 111.238281 148.226562 110.140625 148.6875 109.035156 C 149.144531 107.925781 149.578125 106.808594 149.984375 105.679688 C 150.386719 104.550781 150.765625 103.414062 151.113281 102.265625 C 151.460938 101.117188 151.78125 99.964844 152.074219 98.800781 C 152.367188 97.636719 152.628906 96.46875 152.863281 95.292969 C 153.101562 94.117188 153.304688 92.933594 153.484375 91.75 C 153.660156 90.5625 153.808594 89.375 153.925781 88.179688 C 154.042969 86.988281 154.132812 85.792969 154.195312 84.59375 C 154.253906 83.398438 154.285156 82.199219 154.285156 81 Z M 154.285156 81 " fill-opacity="1" fill-rule="nonzero"/><path fill="#afbcc5" d="M 115.714844 63.488281 C 116.078125 63.851562 116.359375 64.269531 116.558594 64.742188 C 116.757812 65.21875 116.855469 65.714844 116.855469 66.226562 C 116.855469 66.742188 116.757812 67.234375 116.558594 67.710938 C 116.359375 68.183594 116.078125 68.605469 115.714844 68.964844 C 114.972656 69.71875 114.070312 70.078125 113.015625 70.046875 C 111.929688 70.042969 111.003906 69.65625 110.238281 68.886719 L 84.855469 43.507812 L 84.855469 126.976562 C 84.855469 127.488281 84.757812 127.980469 84.5625 128.453125 C 84.367188 128.925781 84.089844 129.34375 83.726562 129.703125 C 83.367188 130.066406 82.949219 130.34375 82.476562 130.539062 C 82.003906 130.738281 81.511719 130.835938 81 130.835938 C 80.488281 130.835938 79.996094 130.738281 79.523438 130.539062 C 79.050781 130.34375 78.632812 130.066406 78.273438 129.703125 C 77.910156 129.34375 77.632812 128.925781 77.4375 128.453125 C 77.242188 127.980469 77.144531 127.488281 77.144531 126.976562 L 77.144531 43.507812 L 52.226562 68.886719 C 51.867188 69.257812 51.453125 69.542969 50.980469 69.746094 C 50.507812 69.949219 50.015625 70.054688 49.503906 70.0625 C 48.988281 70.070312 48.492188 69.980469 48.015625 69.789062 C 47.539062 69.601562 47.113281 69.324219 46.746094 68.96875 C 46.378906 68.609375 46.09375 68.195312 45.890625 67.722656 C 45.6875 67.25 45.582031 66.757812 45.574219 66.242188 C 45.566406 65.730469 45.660156 65.234375 45.847656 64.757812 C 46.039062 64.28125 46.3125 63.855469 46.671875 63.488281 L 78.222656 31.398438 C 78.601562 31.046875 79.03125 30.777344 79.507812 30.589844 C 79.988281 30.402344 80.484375 30.308594 81 30.308594 C 81.515625 30.308594 82.011719 30.402344 82.492188 30.589844 C 82.96875 30.777344 83.398438 31.046875 83.777344 31.398438 Z M 162 81 C 162 82.324219 161.96875 83.652344 161.902344 84.972656 C 161.835938 86.296875 161.738281 87.621094 161.609375 88.9375 C 161.480469 90.257812 161.316406 91.574219 161.125 92.886719 C 160.929688 94.195312 160.703125 95.503906 160.445312 96.800781 C 160.183594 98.101562 159.894531 99.394531 159.574219 100.679688 C 159.25 101.96875 158.898438 103.246094 158.511719 104.511719 C 158.128906 105.78125 157.710938 107.039062 157.265625 108.289062 C 156.820312 109.535156 156.339844 110.773438 155.835938 111.996094 C 155.328125 113.222656 154.789062 114.433594 154.222656 115.632812 C 153.65625 116.832031 153.058594 118.015625 152.4375 119.183594 C 151.8125 120.351562 151.15625 121.503906 150.476562 122.640625 C 149.792969 123.78125 149.085938 124.898438 148.347656 126 C 147.613281 127.101562 146.847656 128.1875 146.058594 129.25 C 145.269531 130.316406 144.453125 131.359375 143.613281 132.386719 C 142.773438 133.410156 141.90625 134.414062 141.015625 135.394531 C 140.125 136.378906 139.214844 137.339844 138.277344 138.277344 C 137.339844 139.214844 136.378906 140.125 135.394531 141.015625 C 134.414062 141.90625 133.410156 142.773438 132.386719 143.613281 C 131.359375 144.453125 130.316406 145.269531 129.25 146.058594 C 128.1875 146.847656 127.101562 147.613281 126 148.347656 C 124.898438 149.085938 123.78125 149.792969 122.640625 150.476562 C 121.503906 151.15625 120.351562 151.8125 119.183594 152.4375 C 118.015625 153.058594 116.832031 153.65625 115.632812 154.222656 C 114.433594 154.789062 113.222656 155.328125 111.996094 155.835938 C 110.773438 156.339844 109.535156 156.820312 108.289062 157.265625 C 107.039062 157.710938 105.78125 158.128906 104.511719 158.511719 C 103.246094 158.898438 101.96875 159.25 100.679688 159.574219 C 99.394531 159.894531 98.101562 160.183594 96.800781 160.445312 C 95.503906 160.703125 94.195312 160.929688 92.886719 161.125 C 91.574219 161.316406 90.257812 161.480469 88.9375 161.609375 C 87.621094 161.738281 86.296875 161.835938 84.972656 161.902344 C 83.652344 161.96875 82.324219 162 81 162 C 79.675781 162 78.347656 161.96875 77.027344 161.902344 C 75.703125 161.835938 74.378906 161.738281 73.0625 161.609375 C 71.742188 161.480469 70.425781 161.316406 69.113281 161.125 C 67.804688 160.929688 66.496094 160.703125 65.199219 160.445312 C 63.898438 160.183594 62.605469 159.894531 61.320312 159.574219 C 60.03125 159.25 58.753906 158.898438 57.488281 158.511719 C 56.21875 158.128906 54.960938 157.710938 53.710938 157.265625 C 52.464844 156.820312 51.226562 156.339844 50.003906 155.835938 C 48.777344 155.328125 47.566406 154.789062 46.367188 154.222656 C 45.167969 153.65625 43.984375 153.058594 42.816406 152.4375 C 41.648438 151.8125 40.496094 151.15625 39.359375 150.476562 C 38.21875 149.792969 37.101562 149.085938 36 148.347656 C 34.898438 147.613281 33.8125 146.847656 32.75 146.058594 C 31.683594 145.269531 30.640625 144.453125 29.613281 143.613281 C 28.589844 142.773438 27.585938 141.90625 26.605469 141.015625 C 25.621094 140.125 24.660156 139.214844 23.722656 138.277344 C 22.785156 137.339844 21.875 136.378906 20.984375 135.394531 C 20.09375 134.414062 19.226562 133.410156 18.386719 132.386719 C 17.546875 131.359375 16.730469 130.316406 15.941406 129.25 C 15.152344 128.1875 14.386719 127.101562 13.652344 126 C 12.914062 124.898438 12.207031 123.78125 11.523438 122.640625 C 10.84375 121.503906 10.1875 120.351562 9.5625 119.183594 C 8.941406 118.015625 8.34375 116.832031 7.777344 115.632812 C 7.210938 114.433594 6.671875 113.222656 6.164062 111.996094 C 5.660156 110.773438 5.179688 109.535156 4.734375 108.289062 C 4.289062 107.039062 3.871094 105.78125 3.488281 104.511719 C 3.101562 103.246094 2.75 101.96875 2.425781 100.679688 C 2.105469 99.394531 1.816406 98.101562 1.554688 96.800781 C 1.296875 95.503906 1.070312 94.195312 0.875 92.886719 C 0.683594 91.574219 0.519531 90.257812 0.390625 88.9375 C 0.261719 87.621094 0.164062 86.296875 0.0976562 84.972656 C 0.03125 83.652344 0 82.324219 0 81 C 0 79.675781 0.03125 78.347656 0.0976562 77.027344 C 0.164062 75.703125 0.261719 74.378906 0.390625 73.0625 C 0.519531 71.742188 0.683594 70.425781 0.875 69.113281 C 1.070312 67.804688 1.296875 66.496094 1.554688 65.199219 C 1.816406 63.898438 2.105469 62.605469 2.425781 61.320312 C 2.75 60.03125 3.101562 58.753906 3.488281 57.488281 C 3.871094 56.21875 4.289062 54.960938 4.734375 53.710938 C 5.179688 52.464844 5.660156 51.226562 6.164062 50.003906 C 6.671875 48.777344 7.210938 47.566406 7.777344 46.367188 C 8.34375 45.167969 8.941406 43.984375 9.5625 42.816406 C 10.1875 41.648438 10.84375 40.496094 11.523438 39.359375 C 12.207031 38.21875 12.914062 37.101562 13.652344 36 C 14.386719 34.898438 15.152344 33.8125 15.941406 32.75 C 16.730469 31.683594 17.546875 30.640625 18.386719 29.613281 C 19.226562 28.589844 20.09375 27.585938 20.984375 26.605469 C 21.875 25.621094 22.785156 24.660156 23.722656 23.722656 C 24.660156 22.785156 25.621094 21.875 26.605469 20.984375 C 27.585938 20.09375 28.589844 19.226562 29.613281 18.386719 C 30.640625 17.546875 31.683594 16.730469 32.75 15.941406 C 33.8125 15.152344 34.898438 14.386719 36 13.652344 C 37.101562 12.914062 38.21875 12.207031 39.359375 11.523438 C 40.496094 10.84375 41.648438 10.1875 42.816406 9.5625 C 43.984375 8.941406 45.167969 8.34375 46.367188 7.777344 C 47.566406 7.210938 48.777344 6.671875 50.003906 6.164062 C 51.226562 5.660156 52.464844 5.179688 53.710938 4.734375 C 54.960938 4.289062 56.21875 3.871094 57.488281 3.488281 C 58.753906 3.101562 60.03125 2.75 61.320312 2.425781 C 62.605469 2.105469 63.898438 1.816406 65.199219 1.554688 C 66.496094 1.296875 67.804688 1.070312 69.113281 0.875 C 70.425781 0.683594 71.742188 0.519531 73.0625 0.390625 C 74.378906 0.261719 75.703125 0.164062 77.027344 0.0976562 C 78.347656 0.03125 79.675781 0 81 0 C 82.324219 0 83.648438 0.0351562 84.972656 0.101562 C 86.296875 0.167969 87.617188 0.265625 88.9375 0.398438 C 90.253906 0.527344 91.570312 0.691406 92.882812 0.886719 C 94.191406 1.082031 95.496094 1.308594 96.796875 1.570312 C 98.097656 1.828125 99.390625 2.121094 100.675781 2.441406 C 101.960938 2.765625 103.238281 3.121094 104.503906 3.503906 C 105.773438 3.890625 107.03125 4.308594 108.277344 4.753906 C 109.523438 5.199219 110.761719 5.679688 111.984375 6.1875 C 113.210938 6.695312 114.421875 7.230469 115.617188 7.796875 C 116.816406 8.367188 118 8.960938 119.167969 9.585938 C 120.335938 10.210938 121.488281 10.867188 122.625 11.546875 C 123.761719 12.230469 124.882812 12.9375 125.984375 13.675781 C 127.085938 14.410156 128.167969 15.175781 129.230469 15.964844 C 130.296875 16.753906 131.339844 17.570312 132.363281 18.410156 C 133.390625 19.25 134.394531 20.117188 135.375 21.007812 C 136.355469 21.894531 137.316406 22.808594 138.253906 23.746094 C 139.191406 24.683594 140.105469 25.644531 140.992188 26.625 C 141.882812 27.605469 142.75 28.609375 143.589844 29.636719 C 144.429688 30.660156 145.246094 31.703125 146.035156 32.769531 C 146.824219 33.832031 147.589844 34.914062 148.324219 36.015625 C 149.0625 37.117188 149.769531 38.238281 150.453125 39.375 C 151.132812 40.511719 151.789062 41.664062 152.414062 42.832031 C 153.039062 44 153.632812 45.183594 154.203125 46.382812 C 154.769531 47.578125 155.304688 48.789062 155.8125 50.015625 C 156.320312 51.238281 156.796875 52.476562 157.246094 53.722656 C 157.691406 54.96875 158.109375 56.226562 158.496094 57.496094 C 158.878906 58.761719 159.234375 60.039062 159.558594 61.324219 C 159.878906 62.609375 160.171875 63.902344 160.429688 65.203125 C 160.691406 66.503906 160.917969 67.808594 161.113281 69.117188 C 161.308594 70.429688 161.472656 71.746094 161.601562 73.0625 C 161.734375 74.382812 161.832031 75.703125 161.898438 77.027344 C 161.964844 78.351562 162 79.675781 162 81 Z M 154.285156 81 C 154.285156 79.800781 154.257812 78.601562 154.199219 77.402344 C 154.136719 76.207031 154.050781 75.011719 153.933594 73.816406 C 153.816406 72.625 153.667969 71.433594 153.492188 70.246094 C 153.316406 69.058594 153.113281 67.878906 152.878906 66.703125 C 152.644531 65.527344 152.378906 64.355469 152.089844 63.191406 C 151.796875 62.03125 151.476562 60.875 151.128906 59.726562 C 150.78125 58.578125 150.40625 57.441406 150 56.3125 C 149.597656 55.179688 149.167969 54.0625 148.707031 52.953125 C 148.25 51.847656 147.761719 50.75 147.25 49.667969 C 146.738281 48.582031 146.199219 47.511719 145.632812 46.453125 C 145.066406 45.394531 144.476562 44.351562 143.859375 43.324219 C 143.242188 42.292969 142.601562 41.28125 141.933594 40.285156 C 141.269531 39.289062 140.578125 38.308594 139.863281 37.34375 C 139.148438 36.378906 138.410156 35.433594 137.652344 34.507812 C 136.890625 33.582031 136.105469 32.671875 135.300781 31.785156 C 134.496094 30.894531 133.667969 30.027344 132.820312 29.179688 C 131.972656 28.332031 131.105469 27.503906 130.214844 26.699219 C 129.328125 25.894531 128.417969 25.109375 127.492188 24.347656 C 126.566406 23.589844 125.621094 22.851562 124.65625 22.136719 C 123.691406 21.421875 122.710938 20.730469 121.714844 20.066406 C 120.71875 19.398438 119.707031 18.757812 118.675781 18.140625 C 117.648438 17.523438 116.605469 16.933594 115.546875 16.367188 C 114.488281 15.800781 113.417969 15.261719 112.332031 14.75 C 111.25 14.238281 110.152344 13.75 109.046875 13.292969 C 107.9375 12.832031 106.820312 12.402344 105.6875 12 C 104.558594 11.59375 103.421875 11.21875 102.273438 10.871094 C 101.125 10.523438 99.96875 10.203125 98.808594 9.910156 C 97.644531 9.617188 96.472656 9.355469 95.296875 9.121094 C 94.121094 8.886719 92.941406 8.683594 91.753906 8.507812 C 90.566406 8.332031 89.375 8.183594 88.183594 8.066406 C 86.988281 7.949219 85.792969 7.863281 84.597656 7.800781 C 83.398438 7.742188 82.199219 7.714844 81 7.714844 C 79.800781 7.714844 78.601562 7.742188 77.402344 7.800781 C 76.207031 7.863281 75.011719 7.949219 73.816406 8.066406 C 72.625 8.183594 71.433594 8.332031 70.246094 8.507812 C 69.058594 8.683594 67.878906 8.886719 66.703125 9.121094 C 65.527344 9.355469 64.355469 9.621094 63.191406 9.910156 C 62.03125 10.203125 60.875 10.523438 59.726562 10.871094 C 58.578125 11.21875 57.441406 11.59375 56.3125 12 C 55.179688 12.402344 54.0625 12.832031 52.953125 13.292969 C 51.847656 13.75 50.75 14.238281 49.667969 14.75 C 48.582031 15.261719 47.511719 15.800781 46.453125 16.367188 C 45.394531 16.933594 44.351562 17.523438 43.324219 18.140625 C 42.292969 18.757812 41.28125 19.398438 40.285156 20.066406 C 39.289062 20.730469 38.308594 21.421875 37.34375 22.136719 C 36.378906 22.851562 35.433594 23.589844 34.507812 24.347656 C 33.582031 25.109375 32.671875 25.894531 31.785156 26.699219 C 30.894531 27.503906 30.027344 28.332031 29.179688 29.179688 C 28.332031 30.027344 27.503906 30.894531 26.699219 31.785156 C 25.894531 32.671875 25.109375 33.582031 24.347656 34.507812 C 23.589844 35.433594 22.851562 36.378906 22.136719 37.34375 C 21.421875 38.308594 20.730469 39.289062 20.066406 40.285156 C 19.398438 41.28125 18.757812 42.292969 18.140625 43.324219 C 17.523438 44.351562 16.933594 45.394531 16.367188 46.453125 C 15.800781 47.511719 15.261719 48.582031 14.75 49.667969 C 14.238281 50.75 13.75 51.847656 13.292969 52.953125 C 12.832031 54.0625 12.402344 55.179688 12 56.3125 C 11.59375 57.441406 11.21875 58.578125 10.871094 59.726562 C 10.523438 60.875 10.203125 62.03125 9.910156 63.191406 C 9.617188 64.355469 9.355469 65.527344 9.121094 66.703125 C 8.886719 67.878906 8.683594 69.058594 8.507812 70.246094 C 8.332031 71.433594 8.183594 72.625 8.066406 73.816406 C 7.949219 75.011719 7.863281 76.207031 7.800781 77.402344 C 7.742188 78.601562 7.714844 79.800781 7.714844 81 C 7.714844 82.199219 7.742188 83.398438 7.800781 84.597656 C 7.863281 85.792969 7.949219 86.988281 8.066406 88.183594 C 8.183594 89.375 8.332031 90.566406 8.507812 91.753906 C 8.683594 92.941406 8.886719 94.121094 9.121094 95.296875 C 9.355469 96.472656 9.617188 97.644531 9.910156 98.808594 C 10.203125 99.96875 10.523438 101.125 10.871094 102.273438 C 11.21875 103.421875 11.59375 104.558594 12 105.6875 C 12.402344 106.820312 12.832031 107.9375 13.292969 109.046875 C 13.75 110.152344 14.238281 111.25 14.75 112.332031 C 15.261719 113.417969 15.800781 114.488281 16.367188 115.546875 C 16.933594 116.605469 17.523438 117.648438 18.140625 118.675781 C 18.757812 119.707031 19.398438 120.71875 20.066406 121.714844 C 20.730469 122.710938 21.421875 123.691406 22.136719 124.65625 C 22.851562 125.621094 23.589844 126.566406 24.347656 127.492188 C 25.109375 128.417969 25.894531 129.328125 26.699219 130.214844 C 27.503906 131.105469 28.332031 131.972656 29.179688 132.820312 C 30.027344 133.667969 30.894531 134.496094 31.785156 135.300781 C 32.671875 136.105469 33.582031 136.890625 34.507812 137.652344 C 35.433594 138.410156 36.378906 139.148438 37.34375 139.863281 C 38.308594 140.578125 39.289062 141.269531 40.285156 141.933594 C 41.28125 142.601562 42.292969 143.242188 43.324219 143.859375 C 44.351562 144.476562 45.394531 145.066406 46.453125 145.632812 C 47.511719 146.199219 48.582031 146.738281 49.667969 147.25 C 50.75 147.761719 51.847656 148.25 52.953125 148.707031 C 54.0625 149.167969 55.179688 149.597656 56.3125 150 C 57.441406 150.40625 58.578125 150.78125 59.726562 151.128906 C 60.875 151.476562 62.03125 151.796875 63.191406 152.089844 C 64.355469 152.378906 65.527344 152.644531 66.703125 152.878906 C 67.878906 153.113281 69.058594 153.316406 70.246094 153.492188 C 71.433594 153.667969 72.625 153.816406 73.816406 153.933594 C 75.011719 154.050781 76.207031 154.136719 77.402344 154.199219 C 78.601562 154.257812 79.800781 154.285156 81 154.285156 C 82.199219 154.285156 83.398438 154.253906 84.59375 154.195312 C 85.792969 154.132812 86.988281 154.042969 88.179688 153.925781 C 89.375 153.808594 90.5625 153.660156 91.75 153.484375 C 92.933594 153.304688 94.117188 153.101562 95.292969 152.863281 C 96.46875 152.628906 97.636719 152.367188 98.800781 152.074219 C 99.964844 151.78125 101.117188 151.460938 102.265625 151.113281 C 103.414062 150.765625 104.550781 150.386719 105.679688 149.984375 C 106.808594 149.578125 107.925781 149.144531 109.035156 148.6875 C 110.140625 148.226562 111.238281 147.742188 112.320312 147.226562 C 113.402344 146.714844 114.472656 146.175781 115.53125 145.609375 C 116.589844 145.042969 117.632812 144.453125 118.660156 143.835938 C 119.6875 143.21875 120.699219 142.578125 121.695312 141.910156 C 122.695312 141.246094 123.671875 140.554688 124.636719 139.839844 C 125.601562 139.125 126.542969 138.386719 127.472656 137.628906 C 128.398438 136.867188 129.304688 136.082031 130.195312 135.277344 C 131.082031 134.472656 131.949219 133.644531 132.796875 132.796875 C 133.644531 131.949219 134.472656 131.082031 135.277344 130.195312 C 136.082031 129.304688 136.867188 128.398438 137.628906 127.472656 C 138.386719 126.542969 139.125 125.601562 139.839844 124.636719 C 140.554688 123.671875 141.246094 122.695312 141.910156 121.695312 C 142.578125 120.699219 143.21875 119.6875 143.835938 118.660156 C 144.453125 117.632812 145.042969 116.589844 145.609375 115.53125 C 146.175781 114.472656 146.714844 113.402344 147.226562 112.320312 C 147.742188 111.238281 148.226562 110.140625 148.6875 109.035156 C 149.144531 107.925781 149.578125 106.808594 149.984375 105.679688 C 150.386719 104.550781 150.765625 103.414062 151.113281 102.265625 C 151.460938 101.117188 151.78125 99.964844 152.074219 98.800781 C 152.367188 97.636719 152.628906 96.46875 152.863281 95.292969 C 153.101562 94.117188 153.304688 92.933594 153.484375 91.75 C 153.660156 90.5625 153.808594 89.375 153.925781 88.179688 C 154.042969 86.988281 154.132812 85.792969 154.195312 84.59375 C 154.253906 83.398438 154.285156 82.199219 154.285156 81 Z M 154.285156 81 " fill-opacity="1" fill-rule="nonzero"/></svg>