<svg xmlns="http://www.w3.org/2000/svg" xmlns:xlink="http://www.w3.org/1999/xlink" width="226" zoomAndPan="magnify" viewBox="0 0 169.5 161.249994" height="215" preserveAspectRatio="xMidYMid meet" version="1.0"><defs><clipPath id="6bd6a725e2"><path d="M 0.144531 0 L 168.859375 0 L 168.859375 160.503906 L 0.144531 160.503906 Z M 0.144531 0 " clip-rule="nonzero"/></clipPath><clipPath id="94799b67f3"><path d="M 54.519531 51.65625 L 114 51.65625 L 114 108.390625 L 54.519531 108.390625 Z M 54.519531 51.65625 " clip-rule="nonzero"/></clipPath></defs><g clip-path="url(#6bd6a725e2)"><path fill="#ffffff" d="M 0.144531 0 L 168.859375 0 L 168.859375 160.503906 L 0.144531 160.503906 Z M 0.144531 0 " fill-opacity="1" fill-rule="nonzero"/></g><g clip-path="url(#94799b67f3)"><path fill="#000000" d="M 100.117188 87.457031 C 99.878906 87.691406 99.765625 88.03125 99.824219 88.363281 L 103.007812 106.917969 C 103.152344 107.753906 102.273438 108.394531 101.523438 108 L 84.855469 99.238281 C 84.558594 99.078125 84.203125 99.078125 83.902344 99.238281 L 67.238281 108 C 66.484375 108.394531 65.609375 107.753906 65.75 106.917969 L 68.933594 88.363281 C 68.992188 88.03125 68.882812 87.691406 68.640625 87.457031 L 55.15625 74.3125 C 54.550781 73.722656 54.886719 72.6875 55.722656 72.566406 L 74.359375 69.859375 C 74.691406 69.8125 74.980469 69.601562 75.128906 69.300781 L 83.460938 52.414062 C 83.835938 51.65625 84.921875 51.65625 85.296875 52.414062 L 93.628906 69.300781 C 93.78125 69.601562 94.066406 69.8125 94.402344 69.859375 L 113.035156 72.566406 C 113.875 72.6875 114.210938 73.722656 113.601562 74.3125 Z M 100.117188 87.457031 " fill-opacity="1" fill-rule="nonzero"/></g><path fill="#000000" d="M 128.964844 100.804688 C 128.28125 101.464844 127.972656 102.417969 128.132812 103.355469 L 137.125 155.609375 C 137.527344 157.964844 135.050781 159.757812 132.929688 158.648438 L 85.847656 133.976562 C 85.003906 133.535156 83.996094 133.535156 83.15625 133.976562 L 36.074219 158.648438 C 33.953125 159.757812 31.472656 157.964844 31.878906 155.609375 L 40.871094 103.355469 C 41.03125 102.417969 40.71875 101.464844 40.039062 100.804688 L 1.949219 63.796875 C 0.234375 62.128906 1.179688 59.226562 3.550781 58.882812 L 56.191406 51.257812 C 57.132812 51.121094 57.945312 50.53125 58.367188 49.679688 L 81.90625 2.140625 C 82.96875 -0.00390625 86.035156 -0.00390625 87.09375 2.140625 L 110.636719 49.679688 C 111.054688 50.53125 111.871094 51.121094 112.8125 51.257812 L 165.449219 58.882812 C 167.824219 59.226562 168.769531 62.128906 167.054688 63.796875 Z M 128.964844 100.804688 " fill-opacity="1" fill-rule="nonzero"/></svg>
