<svg xmlns="http://www.w3.org/2000/svg" xmlns:xlink="http://www.w3.org/1999/xlink" width="226" zoomAndPan="magnify" viewBox="0 0 169.5 161.249994" height="215" preserveAspectRatio="xMidYMid meet" version="1.0"><defs><clipPath id="75be1da1db"><path d="M 64.089844 60.75 L 104.402344 60.75 L 104.402344 99.570312 L 64.089844 99.570312 Z M 64.089844 60.75 " clip-rule="nonzero"/></clipPath><clipPath id="1189a8506f"><path d="M 1 0 L 168 0 L 168 159.757812 L 1 159.757812 Z M 1 0 " clip-rule="nonzero"/></clipPath></defs><g clip-path="url(#75be1da1db)"><path fill="#000000" d="M 94.867188 85.246094 C 94.707031 85.40625 94.632812 85.636719 94.671875 85.863281 L 96.816406 98.5625 C 96.914062 99.132812 96.324219 99.570312 95.816406 99.300781 L 84.570312 93.304688 C 84.367188 93.199219 84.128906 93.199219 83.925781 93.304688 L 72.679688 99.300781 C 72.171875 99.570312 71.582031 99.132812 71.679688 98.5625 L 73.824219 85.863281 C 73.863281 85.636719 73.789062 85.40625 73.628906 85.246094 L 64.527344 76.253906 C 64.117188 75.847656 64.34375 75.140625 64.910156 75.058594 L 77.484375 73.207031 C 77.710938 73.171875 77.90625 73.03125 78.003906 72.824219 L 83.628906 61.269531 C 83.882812 60.75 84.613281 60.75 84.867188 61.269531 L 90.492188 72.824219 C 90.589844 73.03125 90.785156 73.171875 91.011719 73.207031 L 103.585938 75.058594 C 104.152344 75.140625 104.378906 75.847656 103.96875 76.253906 Z M 94.867188 85.246094 " fill-opacity="1" fill-rule="nonzero"/></g><g clip-path="url(#1189a8506f)"><path fill="#f5c400" d="M 128.8125 101.015625 C 128.132812 101.679688 127.820312 102.636719 127.980469 103.574219 L 136.964844 155.9375 C 137.367188 158.296875 134.890625 160.097656 132.773438 158.984375 L 85.746094 134.257812 C 84.90625 133.816406 83.898438 133.816406 83.058594 134.257812 L 36.03125 158.984375 C 33.914062 160.097656 31.4375 158.296875 31.839844 155.9375 L 40.824219 103.574219 C 40.984375 102.636719 40.671875 101.679688 39.992188 101.015625 L 1.945312 63.933594 C 0.230469 62.261719 1.179688 59.351562 3.546875 59.007812 L 56.125 51.367188 C 57.066406 51.230469 57.878906 50.636719 58.300781 49.785156 L 81.8125 2.144531 C 82.871094 -0.00390625 85.933594 -0.00390625 86.992188 2.144531 L 110.503906 49.785156 C 110.925781 50.636719 111.738281 51.230469 112.679688 51.367188 L 165.257812 59.007812 C 167.625 59.351562 168.570312 62.261719 166.859375 63.933594 Z M 128.8125 101.015625 " fill-opacity="1" fill-rule="nonzero"/></g></svg>
