<svg xmlns="http://www.w3.org/2000/svg" xmlns:xlink="http://www.w3.org/1999/xlink" width="121" zoomAndPan="magnify" viewBox="0 0 90.75 90.749999" height="121" preserveAspectRatio="xMidYMid meet" version="1.0"><defs><clipPath id="d4ba82707a"><path d="M 4.429688 4.429688 L 85.953125 4.429688 L 85.953125 85.953125 L 4.429688 85.953125 Z M 4.429688 4.429688 " clip-rule="nonzero"/></clipPath></defs><g clip-path="url(#d4ba82707a)"><path fill="#7f7f7f" d="M 45.121094 4.429688 C 43.789062 4.429688 42.460938 4.496094 41.132812 4.625 C 39.808594 4.753906 38.488281 4.949219 37.183594 5.210938 C 35.875 5.472656 34.585938 5.792969 33.308594 6.179688 C 32.035156 6.566406 30.78125 7.015625 29.550781 7.527344 C 28.316406 8.035156 27.113281 8.605469 25.941406 9.234375 C 24.765625 9.863281 23.621094 10.546875 22.515625 11.289062 C 21.40625 12.027344 20.335938 12.820312 19.308594 13.667969 C 18.277344 14.511719 17.289062 15.40625 16.347656 16.347656 C 15.40625 17.289062 14.511719 18.277344 13.667969 19.308594 C 12.820312 20.335938 12.027344 21.40625 11.289062 22.515625 C 10.546875 23.621094 9.863281 24.765625 9.234375 25.941406 C 8.605469 27.113281 8.035156 28.316406 7.527344 29.550781 C 7.015625 30.78125 6.566406 32.035156 6.179688 33.308594 C 5.792969 34.585938 5.472656 35.875 5.210938 37.183594 C 4.949219 38.488281 4.753906 39.808594 4.625 41.132812 C 4.496094 42.460938 4.429688 43.789062 4.429688 45.121094 C 4.429688 46.453125 4.496094 47.785156 4.625 49.109375 C 4.753906 50.4375 4.949219 51.753906 5.210938 53.058594 C 5.472656 54.367188 5.792969 55.660156 6.179688 56.933594 C 6.566406 58.210938 7.015625 59.464844 7.527344 60.695312 C 8.035156 61.925781 8.605469 63.128906 9.234375 64.304688 C 9.863281 65.480469 10.546875 66.621094 11.289062 67.730469 C 12.027344 68.835938 12.820312 69.90625 13.667969 70.9375 C 14.511719 71.96875 15.40625 72.953125 16.347656 73.894531 C 17.289062 74.839844 18.277344 75.730469 19.308594 76.578125 C 20.335938 77.421875 21.40625 78.214844 22.515625 78.957031 C 23.621094 79.695312 24.765625 80.382812 25.941406 81.007812 C 27.113281 81.636719 28.316406 82.207031 29.550781 82.71875 C 30.78125 83.226562 32.035156 83.675781 33.308594 84.0625 C 34.585938 84.449219 35.875 84.773438 37.183594 85.03125 C 38.488281 85.292969 39.808594 85.488281 41.132812 85.617188 C 42.460938 85.75 43.789062 85.8125 45.121094 85.8125 C 46.453125 85.8125 47.785156 85.75 49.109375 85.617188 C 50.4375 85.488281 51.753906 85.292969 53.058594 85.03125 C 54.367188 84.773438 55.660156 84.449219 56.933594 84.0625 C 58.210938 83.675781 59.464844 83.226562 60.695312 82.71875 C 61.925781 82.207031 63.128906 81.636719 64.304688 81.007812 C 65.480469 80.382812 66.621094 79.695312 67.730469 78.957031 C 68.835938 78.214844 69.90625 77.421875 70.9375 76.578125 C 71.96875 75.730469 72.953125 74.839844 73.894531 73.894531 C 74.839844 72.953125 75.730469 71.96875 76.578125 70.9375 C 77.421875 69.90625 78.214844 68.835938 78.957031 67.730469 C 79.695312 66.621094 80.382812 65.480469 81.007812 64.304688 C 81.636719 63.128906 82.207031 61.925781 82.71875 60.695312 C 83.226562 59.464844 83.675781 58.210938 84.0625 56.933594 C 84.449219 55.660156 84.773438 54.367188 85.03125 53.058594 C 85.292969 51.753906 85.488281 50.4375 85.617188 49.109375 C 85.75 47.785156 85.8125 46.453125 85.8125 45.121094 C 85.8125 43.789062 85.746094 42.460938 85.613281 41.132812 C 85.484375 39.808594 85.285156 38.492188 85.027344 37.1875 C 84.765625 35.878906 84.441406 34.589844 84.054688 33.3125 C 83.664062 32.039062 83.21875 30.785156 82.707031 29.554688 C 82.195312 28.324219 81.625 27.121094 81 25.945312 C 80.371094 24.773438 79.683594 23.632812 78.945312 22.523438 C 78.203125 21.414062 77.410156 20.347656 76.566406 19.316406 C 75.71875 18.289062 74.828125 17.300781 73.882812 16.359375 C 72.941406 15.417969 71.957031 14.523438 70.925781 13.679688 C 69.898438 12.832031 68.828125 12.039062 67.71875 11.300781 C 66.613281 10.558594 65.472656 9.875 64.296875 9.246094 C 63.121094 8.617188 61.917969 8.046875 60.6875 7.539062 C 59.457031 7.027344 58.203125 6.578125 56.929688 6.191406 C 55.65625 5.800781 54.363281 5.476562 53.058594 5.21875 C 51.75 4.957031 50.433594 4.761719 49.109375 4.628906 C 47.785156 4.496094 46.453125 4.429688 45.121094 4.429688 Z M 45.121094 81.9375 C 43.914062 81.9375 42.714844 81.878906 41.511719 81.761719 C 40.3125 81.644531 39.121094 81.464844 37.9375 81.230469 C 36.757812 80.996094 35.589844 80.703125 34.433594 80.355469 C 33.28125 80.003906 32.148438 79.597656 31.03125 79.136719 C 29.917969 78.675781 28.828125 78.160156 27.765625 77.589844 C 26.703125 77.023438 25.667969 76.402344 24.667969 75.734375 C 23.664062 75.0625 22.699219 74.347656 21.765625 73.582031 C 20.832031 72.816406 19.941406 72.007812 19.089844 71.15625 C 18.234375 70.304688 17.425781 69.410156 16.660156 68.476562 C 15.898438 67.546875 15.179688 66.578125 14.507812 65.578125 C 13.839844 64.574219 13.21875 63.539062 12.652344 62.476562 C 12.082031 61.414062 11.570312 60.324219 11.105469 59.210938 C 10.644531 58.097656 10.238281 56.964844 9.890625 55.808594 C 9.539062 54.65625 9.246094 53.488281 9.011719 52.304688 C 8.777344 51.121094 8.601562 49.929688 8.480469 48.730469 C 8.363281 47.53125 8.304688 46.328125 8.304688 45.121094 C 8.304688 43.914062 8.363281 42.714844 8.480469 41.511719 C 8.601562 40.3125 8.777344 39.121094 9.011719 37.9375 C 9.246094 36.757812 9.539062 35.589844 9.890625 34.433594 C 10.238281 33.28125 10.644531 32.148438 11.105469 31.03125 C 11.570312 29.917969 12.082031 28.828125 12.652344 27.765625 C 13.21875 26.703125 13.839844 25.671875 14.507812 24.667969 C 15.179688 23.664062 15.898438 22.699219 16.660156 21.765625 C 17.425781 20.832031 18.234375 19.941406 19.089844 19.089844 C 19.941406 18.234375 20.832031 17.425781 21.765625 16.660156 C 22.699219 15.898438 23.664062 15.179688 24.667969 14.507812 C 25.667969 13.839844 26.703125 13.21875 27.765625 12.652344 C 28.828125 12.082031 29.917969 11.570312 31.03125 11.105469 C 32.148438 10.644531 33.28125 10.238281 34.433594 9.890625 C 35.589844 9.539062 36.757812 9.246094 37.9375 9.011719 C 39.121094 8.777344 40.3125 8.601562 41.511719 8.480469 C 42.714844 8.363281 43.914062 8.304688 45.121094 8.304688 C 46.328125 8.304688 47.53125 8.363281 48.730469 8.480469 C 49.929688 8.601562 51.121094 8.777344 52.304688 9.011719 C 53.488281 9.246094 54.65625 9.539062 55.808594 9.890625 C 56.964844 10.238281 58.097656 10.644531 59.210938 11.105469 C 60.324219 11.570312 61.414062 12.082031 62.476562 12.652344 C 63.539062 13.21875 64.574219 13.839844 65.578125 14.507812 C 66.578125 15.179688 67.546875 15.898438 68.476562 16.660156 C 69.410156 17.425781 70.304688 18.234375 71.15625 19.089844 C 72.007812 19.941406 72.816406 20.832031 73.582031 21.765625 C 74.347656 22.699219 75.0625 23.664062 75.734375 24.667969 C 76.402344 25.671875 77.023438 26.703125 77.589844 27.765625 C 78.160156 28.828125 78.675781 29.917969 79.136719 31.03125 C 79.597656 32.148438 80.003906 33.28125 80.355469 34.433594 C 80.703125 35.589844 80.996094 36.757812 81.230469 37.9375 C 81.464844 39.121094 81.644531 40.3125 81.761719 41.511719 C 81.878906 42.714844 81.9375 43.914062 81.9375 45.121094 C 81.9375 46.328125 81.878906 47.53125 81.757812 48.730469 C 81.640625 49.929688 81.460938 51.121094 81.226562 52.300781 C 80.988281 53.484375 80.695312 54.652344 80.34375 55.804688 C 79.996094 56.957031 79.589844 58.089844 79.125 59.207031 C 78.664062 60.320312 78.148438 61.40625 77.582031 62.46875 C 77.011719 63.53125 76.390625 64.566406 75.722656 65.566406 C 75.050781 66.570312 74.335938 67.535156 73.570312 68.46875 C 72.804688 69.398438 71.996094 70.292969 71.144531 71.144531 C 70.292969 71.996094 69.398438 72.804688 68.46875 73.570312 C 67.535156 74.335938 66.570312 75.050781 65.566406 75.722656 C 64.566406 76.390625 63.53125 77.011719 62.46875 77.582031 C 61.40625 78.148438 60.320312 78.664062 59.207031 79.125 C 58.089844 79.589844 56.957031 79.996094 55.804688 80.34375 C 54.652344 80.695312 53.484375 80.988281 52.300781 81.226562 C 51.121094 81.460938 49.929688 81.640625 48.730469 81.757812 C 47.53125 81.878906 46.328125 81.9375 45.121094 81.9375 Z M 45.121094 81.9375 " fill-opacity="1" fill-rule="nonzero"/></g><path fill="#7f7f7f" d="M 43.183594 33.496094 L 41.246094 35.433594 L 41.246094 72.25 L 43.183594 74.1875 L 47.058594 74.1875 L 48.996094 72.25 L 48.996094 35.433594 L 47.058594 33.496094 Z M 43.183594 33.496094 " fill-opacity="1" fill-rule="nonzero"/><path fill="#7f7f7f" d="M 50.933594 23.808594 C 50.933594 24.1875 50.898438 24.566406 50.824219 24.941406 C 50.75 25.316406 50.636719 25.679688 50.492188 26.03125 C 50.347656 26.382812 50.167969 26.71875 49.957031 27.035156 C 49.742188 27.355469 49.503906 27.648438 49.230469 27.917969 C 48.960938 28.1875 48.667969 28.429688 48.351562 28.640625 C 48.035156 28.851562 47.699219 29.03125 47.347656 29.175781 C 46.992188 29.324219 46.628906 29.433594 46.257812 29.507812 C 45.882812 29.582031 45.503906 29.621094 45.121094 29.621094 C 44.738281 29.621094 44.363281 29.582031 43.988281 29.507812 C 43.613281 29.433594 43.25 29.324219 42.898438 29.175781 C 42.542969 29.03125 42.210938 28.851562 41.890625 28.640625 C 41.574219 28.429688 41.28125 28.1875 41.011719 27.917969 C 40.742188 27.648438 40.5 27.355469 40.289062 27.035156 C 40.078125 26.71875 39.898438 26.382812 39.75 26.03125 C 39.605469 25.679688 39.496094 25.316406 39.421875 24.941406 C 39.347656 24.566406 39.308594 24.1875 39.308594 23.808594 C 39.308594 23.425781 39.347656 23.046875 39.421875 22.671875 C 39.496094 22.296875 39.605469 21.933594 39.75 21.582031 C 39.898438 21.230469 40.078125 20.894531 40.289062 20.578125 C 40.5 20.257812 40.742188 19.964844 41.011719 19.695312 C 41.28125 19.425781 41.574219 19.183594 41.890625 18.972656 C 42.210938 18.761719 42.542969 18.582031 42.898438 18.4375 C 43.25 18.289062 43.613281 18.179688 43.988281 18.105469 C 44.363281 18.03125 44.738281 17.992188 45.121094 17.992188 C 45.503906 17.992188 45.882812 18.03125 46.257812 18.105469 C 46.628906 18.179688 46.992188 18.289062 47.347656 18.4375 C 47.699219 18.582031 48.035156 18.761719 48.351562 18.972656 C 48.667969 19.183594 48.960938 19.425781 49.230469 19.695312 C 49.503906 19.964844 49.742188 20.257812 49.957031 20.578125 C 50.167969 20.894531 50.347656 21.230469 50.492188 21.582031 C 50.636719 21.933594 50.75 22.296875 50.824219 22.671875 C 50.898438 23.046875 50.933594 23.425781 50.933594 23.808594 Z M 50.933594 23.808594 " fill-opacity="1" fill-rule="nonzero"/></svg>
