<svg xmlns="http://www.w3.org/2000/svg" xmlns:xlink="http://www.w3.org/1999/xlink" width="240" zoomAndPan="magnify" viewBox="0 0 180 179.999997" height="240" preserveAspectRatio="xMidYMid meet" version="1.0"><defs><clipPath id="9138dc8d6d"><path d="M 20 24 L 159.46875 24 L 159.46875 155 L 20 155 Z M 20 24 " clip-rule="nonzero"/></clipPath><clipPath id="133162e2d7"><path d="M 0 0 L 179.25 0 L 179.25 179.25 L 0 179.25 Z M 0 0 " clip-rule="nonzero"/></clipPath></defs><g clip-path="url(#9138dc8d6d)"><path fill="#236dc0" d="M 97.65625 26.300781 C 98.457031 26.496094 99.257812 26.6875 100.0625 26.878906 C 101.902344 27.320312 103.746094 27.765625 105.585938 28.210938 C 105.824219 28.269531 106.0625 28.328125 106.304688 28.386719 C 107.992188 28.792969 109.675781 29.203125 111.359375 29.613281 C 115.140625 30.539062 118.933594 31.4375 122.722656 32.339844 C 124.25 32.703125 125.78125 33.066406 127.308594 33.429688 C 131.320312 34.386719 135.332031 35.34375 139.347656 36.273438 C 141.019531 36.664062 142.6875 37.054688 144.355469 37.453125 C 144.554688 37.5 144.753906 37.546875 144.957031 37.59375 C 145.953125 37.832031 146.953125 38.066406 147.949219 38.308594 C 149.617188 38.703125 151.28125 39.097656 152.957031 39.445312 C 153.203125 39.496094 153.453125 39.550781 153.707031 39.601562 C 154.144531 39.695312 154.582031 39.78125 155.019531 39.863281 C 156.253906 40.121094 156.976562 40.4375 157.757812 41.496094 C 158.03125 42.589844 157.921875 43.597656 157.394531 44.589844 C 156.042969 45.773438 154.597656 46.488281 152.894531 47.019531 C 152.71875 47.078125 152.542969 47.132812 152.359375 47.191406 C 151.363281 47.507812 150.367188 47.820312 149.371094 48.128906 C 145.683594 49.269531 142.0625 50.578125 138.441406 51.914062 C 137.605469 52.21875 136.769531 52.527344 135.929688 52.832031 C 134.257812 53.449219 132.585938 54.0625 130.914062 54.679688 C 130.042969 55 129.167969 55.320312 128.292969 55.640625 C 123.714844 57.324219 119.140625 59.007812 114.59375 60.773438 C 112.964844 61.40625 111.324219 62 109.667969 62.570312 C 107.800781 63.214844 105.945312 63.894531 104.09375 64.578125 C 101.539062 65.515625 98.984375 66.453125 96.410156 67.339844 C 96.179688 67.421875 95.949219 67.507812 95.71875 67.589844 C 92.636719 68.535156 89.457031 67.28125 86.492188 66.433594 C 85.976562 66.289062 85.464844 66.148438 84.949219 66.003906 C 83.894531 65.710938 82.835938 65.417969 81.78125 65.117188 C 79.644531 64.519531 77.507812 63.9375 75.367188 63.355469 C 74.703125 63.171875 74.035156 62.992188 73.371094 62.808594 C 70.5625 62.042969 67.753906 61.292969 64.9375 60.550781 C 61.742188 59.710938 58.558594 58.835938 55.371094 57.957031 C 52.671875 57.210938 49.964844 56.476562 47.257812 55.746094 C 44.234375 54.929688 41.214844 54.109375 38.191406 53.28125 C 37.773438 53.164062 37.351562 53.050781 36.929688 52.933594 C 36.339844 52.773438 35.753906 52.609375 35.164062 52.449219 C 34.980469 52.398438 34.800781 52.347656 34.613281 52.296875 C 33.453125 51.976562 32.304688 51.636719 31.164062 51.253906 C 30.824219 51.160156 30.40625 51.1875 29.914062 51.339844 C 28.683594 52.367188 28.082031 53.699219 27.816406 55.261719 C 27.792969 55.644531 27.78125 56.027344 27.777344 56.410156 C 27.773438 56.632812 27.773438 56.855469 27.769531 57.082031 C 27.769531 57.316406 27.765625 57.554688 27.765625 57.796875 C 27.765625 58.042969 27.761719 58.289062 27.761719 58.539062 C 27.761719 59.058594 27.757812 59.578125 27.757812 60.097656 C 27.753906 60.886719 27.746094 61.679688 27.738281 62.46875 C 27.738281 62.972656 27.738281 63.480469 27.734375 63.984375 C 27.734375 64.21875 27.730469 64.453125 27.726562 64.695312 C 27.734375 66.808594 28.332031 68.480469 29.507812 70.238281 C 30.402344 70.871094 31.308594 71.1875 32.355469 71.503906 C 32.515625 71.550781 32.675781 71.597656 32.839844 71.648438 C 33.183594 71.753906 33.523438 71.855469 33.867188 71.957031 C 34.363281 72.105469 34.859375 72.253906 35.359375 72.40625 C 37.707031 73.113281 40.074219 73.753906 42.445312 74.390625 C 45.699219 75.261719 48.9375 76.183594 52.179688 77.105469 C 52.792969 77.28125 53.402344 77.453125 54.015625 77.628906 C 59.597656 79.210938 65.179688 80.804688 70.753906 82.417969 C 75.828125 83.886719 80.90625 85.335938 86.003906 86.738281 C 86.207031 86.796875 86.414062 86.851562 86.625 86.910156 C 87.003906 87.015625 87.382812 87.121094 87.765625 87.222656 C 88.46875 87.417969 89.152344 87.621094 89.832031 87.894531 C 91.0625 88.386719 92.085938 88.28125 93.296875 87.824219 C 93.746094 87.621094 94.199219 87.421875 94.644531 87.210938 C 96.445312 86.375 98.296875 85.683594 100.152344 84.984375 C 100.476562 84.863281 100.796875 84.742188 101.117188 84.621094 C 101.882812 84.335938 102.648438 84.046875 103.414062 83.761719 C 103.960938 84.582031 103.957031 84.875 103.960938 85.835938 C 103.960938 86.101562 103.960938 86.367188 103.960938 86.636719 C 103.960938 86.914062 103.960938 87.191406 103.957031 87.476562 C 103.960938 87.75 103.960938 88.027344 103.960938 88.308594 C 103.960938 88.574219 103.960938 88.839844 103.960938 89.113281 C 103.960938 89.355469 103.960938 89.597656 103.960938 89.847656 C 103.890625 90.582031 103.769531 91.085938 103.414062 91.734375 C 103.089844 91.960938 102.734375 92.164062 102.339844 92.34375 C 102.125 92.441406 101.90625 92.542969 101.683594 92.644531 C 101.457031 92.742188 101.230469 92.839844 101 92.941406 C 100.78125 93.035156 100.566406 93.128906 100.34375 93.222656 C 99.683594 93.503906 99.023438 93.773438 98.355469 94.042969 C 98.136719 94.132812 97.914062 94.222656 97.6875 94.316406 C 97.242188 94.496094 96.796875 94.675781 96.351562 94.851562 C 95.910156 95.023438 95.476562 95.207031 95.046875 95.398438 C 91.644531 96.8125 88.730469 95.9375 85.402344 94.835938 C 84.5 94.535156 83.59375 94.246094 82.6875 93.957031 C 82.234375 93.816406 81.785156 93.671875 81.335938 93.527344 C 79.710938 93 78.074219 92.515625 76.421875 92.066406 C 74.101562 91.429688 71.792969 90.769531 69.484375 90.097656 C 66.035156 89.097656 62.585938 88.101562 59.125 87.144531 C 58.464844 86.960938 57.808594 86.78125 57.148438 86.597656 C 53.140625 85.476562 49.117188 84.40625 45.082031 83.382812 C 43.457031 82.984375 41.851562 82.527344 40.242188 82.058594 C 40.015625 81.992188 39.789062 81.925781 39.554688 81.855469 C 38.402344 81.519531 37.253906 81.179688 36.105469 80.832031 C 35.679688 80.707031 35.253906 80.582031 34.828125 80.457031 C 34.632812 80.398438 34.4375 80.335938 34.238281 80.277344 C 32.914062 79.894531 31.746094 79.742188 30.464844 80.386719 C 28.378906 82.160156 27.863281 84.566406 27.640625 87.1875 C 27.28125 90.972656 27.683594 94.597656 28.855469 98.0625 C 30.382812 99.6875 33.027344 100.179688 35.101562 100.804688 C 36.046875 101.089844 36.988281 101.382812 37.929688 101.675781 C 38.117188 101.734375 38.308594 101.792969 38.5 101.851562 C 40.175781 102.371094 41.839844 102.917969 43.5 103.476562 C 46.527344 104.496094 49.566406 105.476562 52.605469 106.449219 C 53.375 106.695312 54.144531 106.941406 54.914062 107.1875 C 57.519531 108.027344 60.125 108.851562 62.738281 109.664062 C 65.695312 110.585938 68.648438 111.523438 71.59375 112.476562 C 73.582031 113.121094 75.574219 113.757812 77.566406 114.394531 C 77.816406 114.476562 78.070312 114.554688 78.332031 114.636719 C 79.589844 115.039062 80.851562 115.441406 82.113281 115.84375 C 82.347656 115.917969 82.582031 115.992188 82.828125 116.070312 C 83.285156 116.214844 83.742188 116.359375 84.199219 116.507812 C 85.117188 116.796875 86.03125 117.089844 86.9375 117.414062 C 88.996094 118.148438 90.199219 118.390625 92.242188 117.5 C 92.78125 117.242188 93.320312 116.980469 93.859375 116.714844 C 94.304688 116.5 94.75 116.289062 95.199219 116.074219 C 95.511719 115.925781 95.824219 115.773438 96.140625 115.625 C 97.839844 114.808594 99.554688 114.027344 101.273438 113.25 C 101.765625 113.023438 102.261719 112.800781 102.757812 112.574219 C 104.539062 111.761719 106.332031 110.964844 108.128906 110.1875 C 109.425781 109.621094 110.707031 109.03125 111.984375 108.425781 C 112.152344 108.347656 112.320312 108.269531 112.496094 108.1875 C 112.917969 107.988281 113.34375 107.789062 113.769531 107.589844 C 117.90625 105.644531 122.074219 103.785156 126.269531 101.960938 C 128.964844 100.785156 131.640625 99.566406 134.316406 98.339844 C 135.035156 98.007812 135.753906 97.679688 136.472656 97.347656 C 136.652344 97.265625 136.832031 97.183594 137.019531 97.097656 C 140.6875 95.414062 144.386719 93.804688 148.097656 92.214844 C 148.445312 92.066406 148.792969 91.917969 149.140625 91.769531 C 149.355469 91.675781 149.566406 91.585938 149.785156 91.492188 C 149.710938 91.21875 149.636719 90.945312 149.558594 90.660156 C 149.082031 88.90625 149.023438 87.070312 149.011719 85.261719 C 149.011719 85.066406 149.011719 84.875 149.007812 84.679688 C 149.007812 84.273438 149.003906 83.871094 149.003906 83.46875 C 149 82.855469 148.992188 82.242188 148.988281 81.625 C 148.984375 81.234375 148.984375 80.839844 148.984375 80.445312 C 148.980469 80.261719 148.976562 80.082031 148.972656 79.894531 C 148.976562 78.800781 149.113281 78.109375 149.785156 77.242188 C 150.773438 76.429688 151.40625 76.152344 152.683594 76.273438 C 153.183594 77.296875 153.226562 78.199219 153.199219 79.3125 C 153.195312 79.488281 153.195312 79.664062 153.191406 79.84375 C 153.183594 80.585938 153.171875 81.328125 153.160156 82.070312 C 153 84.5625 153.40625 86.898438 154.375 89.078125 C 154.902344 89.304688 155.460938 89.507812 156.050781 89.679688 C 157.195312 90.035156 157.957031 90.304688 158.722656 91.25 C 159.3125 92.574219 159.40625 93.761719 158.964844 95.144531 C 157.8125 96.800781 155.640625 97.492188 153.847656 98.269531 C 153.417969 98.457031 152.992188 98.644531 152.5625 98.832031 C 152.078125 99.046875 151.59375 99.257812 151.109375 99.46875 C 149 100.394531 146.894531 101.332031 144.789062 102.269531 C 144.558594 102.371094 144.324219 102.476562 144.085938 102.582031 C 139.21875 104.746094 134.355469 106.929688 129.5 109.121094 C 129.320312 109.203125 129.144531 109.285156 128.960938 109.367188 C 127.332031 110.101562 125.703125 110.835938 124.070312 111.574219 C 120.566406 113.160156 117.054688 114.734375 113.542969 116.308594 C 111.457031 117.242188 109.371094 118.179688 107.285156 119.121094 C 106.265625 119.582031 105.246094 120.039062 104.222656 120.496094 C 103.8125 120.683594 103.398438 120.867188 102.988281 121.050781 C 102.785156 121.144531 102.578125 121.234375 102.371094 121.328125 C 101.128906 121.886719 99.894531 122.449219 98.660156 123.019531 C 97.867188 123.386719 97.074219 123.75 96.28125 124.109375 C 95.910156 124.28125 95.535156 124.453125 95.167969 124.628906 C 94.652344 124.867188 94.136719 125.101562 93.617188 125.335938 C 93.472656 125.40625 93.324219 125.480469 93.171875 125.550781 C 90.828125 126.59375 88.671875 125.910156 86.351562 125.15625 C 86.058594 125.0625 85.769531 124.972656 85.46875 124.878906 C 84.695312 124.636719 83.925781 124.390625 83.152344 124.140625 C 82.394531 123.898438 81.632812 123.660156 80.875 123.417969 C 79.660156 123.035156 78.445312 122.648438 77.230469 122.265625 C 75.398438 121.679688 73.5625 121.109375 71.726562 120.542969 C 69.253906 119.777344 66.78125 119.007812 64.3125 118.226562 C 63.785156 118.058594 63.257812 117.890625 62.730469 117.726562 C 61.042969 117.191406 59.355469 116.65625 57.671875 116.113281 C 53.574219 114.792969 49.46875 113.503906 45.355469 112.234375 C 44.460938 111.957031 43.566406 111.679688 42.667969 111.402344 C 42.085938 111.222656 41.507812 111.042969 40.925781 110.863281 C 39.574219 110.445312 38.230469 110.023438 36.886719 109.578125 C 36.644531 109.5 36.402344 109.421875 36.152344 109.339844 C 35.707031 109.191406 35.261719 109.042969 34.816406 108.890625 C 33.492188 108.457031 32.273438 108.152344 30.894531 108.558594 C 29.460938 109.296875 28.414062 110.242188 27.816406 111.78125 C 27.742188 112.457031 27.691406 113.109375 27.664062 113.789062 C 27.65625 113.980469 27.648438 114.175781 27.636719 114.375 C 27.558594 116.167969 27.53125 117.957031 27.574219 119.75 C 27.578125 119.914062 27.582031 120.078125 27.582031 120.246094 C 27.636719 122.605469 27.84375 124.496094 29.265625 126.453125 C 31.191406 127.898438 33.738281 128.507812 36.011719 129.214844 C 39.289062 130.25 42.535156 131.359375 45.78125 132.488281 C 46.640625 132.789062 47.503906 133.085938 48.363281 133.378906 C 51.335938 134.402344 54.304688 135.433594 57.265625 136.484375 C 59.835938 137.394531 62.40625 138.296875 64.996094 139.148438 C 67.605469 140.007812 70.199219 140.902344 72.789062 141.8125 C 73.460938 142.046875 74.132812 142.277344 74.808594 142.511719 C 76.75 143.183594 78.683594 143.859375 80.605469 144.59375 C 81.359375 144.878906 82.121094 145.160156 82.878906 145.4375 C 83.226562 145.570312 83.574219 145.703125 83.921875 145.84375 C 86.832031 147.007812 88.835938 146.761719 91.675781 145.597656 C 92.121094 145.382812 92.542969 145.140625 92.96875 144.882812 C 94.746094 143.878906 96.574219 143.003906 98.433594 142.152344 C 99.019531 141.882812 99.609375 141.613281 100.195312 141.339844 C 100.34375 141.273438 100.492188 141.207031 100.640625 141.136719 C 102.179688 140.425781 103.703125 139.691406 105.226562 138.953125 C 107.648438 137.777344 110.085938 136.632812 112.53125 135.503906 C 114.972656 134.375 117.40625 133.222656 119.835938 132.070312 C 122.777344 130.671875 125.722656 129.289062 128.675781 127.921875 C 130.855469 126.910156 133.03125 125.890625 135.203125 124.867188 C 135.375 124.789062 135.542969 124.707031 135.71875 124.625 C 137.324219 123.871094 138.925781 123.113281 140.53125 122.355469 C 141.46875 121.914062 142.40625 121.472656 143.34375 121.03125 C 143.871094 120.785156 144.394531 120.535156 144.917969 120.289062 C 148.070312 118.804688 149.851562 118.058594 150.269531 118.058594 C 150.203125 117.929688 150.136719 117.800781 150.066406 117.667969 C 149.175781 115.742188 149.097656 113.863281 149.0625 111.78125 C 149.058594 111.535156 149.050781 111.292969 149.046875 111.042969 C 149.03125 110.238281 149.023438 109.429688 149.015625 108.625 C 149.011719 108.367188 149.011719 108.105469 149.007812 107.839844 C 149.003906 106.25 149.023438 104.847656 149.921875 103.476562 C 150.789062 102.898438 151.660156 102.886719 152.683594 102.84375 C 153.21875 103.914062 153.242188 104.929688 153.25 106.101562 C 153.253906 106.296875 153.257812 106.496094 153.261719 106.695312 C 153.273438 107.324219 153.28125 107.953125 153.289062 108.578125 C 153.296875 109.402344 153.3125 110.226562 153.328125 111.050781 C 153.328125 111.238281 153.328125 111.421875 153.332031 111.613281 C 153.355469 112.925781 153.566406 114.132812 153.894531 115.402344 C 154.121094 115.445312 154.351562 115.492188 154.589844 115.535156 C 154.894531 115.597656 155.195312 115.65625 155.507812 115.71875 C 155.808594 115.777344 156.109375 115.835938 156.417969 115.898438 C 157.390625 116.160156 158.183594 116.414062 158.765625 117.269531 C 159.21875 118.503906 159.417969 119.691406 158.964844 120.957031 C 157.988281 122.496094 156.636719 123.046875 155.007812 123.78125 C 154.464844 124.035156 153.914062 124.289062 153.367188 124.546875 C 153.09375 124.671875 152.816406 124.800781 152.53125 124.929688 C 151.316406 125.492188 150.105469 126.070312 148.894531 126.648438 C 148.667969 126.757812 148.441406 126.867188 148.207031 126.976562 C 146.410156 127.835938 144.628906 128.726562 142.847656 129.621094 C 139.941406 131.082031 137.003906 132.472656 134.0625 133.859375 C 132.351562 134.664062 130.644531 135.472656 128.953125 136.324219 C 125.921875 137.855469 122.855469 139.316406 119.796875 140.792969 C 119.390625 140.988281 118.980469 141.183594 118.574219 141.382812 C 115.910156 142.664062 113.238281 143.921875 110.554688 145.15625 C 108.765625 145.976562 106.988281 146.808594 105.230469 147.699219 C 102.542969 149.0625 99.824219 150.363281 97.105469 151.664062 C 96.5 151.953125 95.898438 152.246094 95.296875 152.539062 C 94.511719 152.921875 93.726562 153.296875 92.9375 153.667969 C 92.707031 153.78125 92.476562 153.894531 92.242188 154.011719 C 88.394531 155.816406 84.386719 153.707031 80.644531 152.359375 C 79.753906 152.039062 78.863281 151.722656 77.972656 151.40625 C 77.792969 151.339844 77.617188 151.277344 77.433594 151.210938 C 75.789062 150.628906 74.140625 150.078125 72.484375 149.535156 C 70.179688 148.773438 67.898438 147.976562 65.621094 147.148438 C 61.832031 145.773438 58.011719 144.480469 54.195312 143.179688 C 53.445312 142.921875 52.691406 142.664062 51.9375 142.410156 C 51.75 142.34375 51.558594 142.277344 51.363281 142.210938 C 47.730469 140.972656 44.109375 139.710938 40.488281 138.441406 C 38.539062 137.761719 36.589844 137.082031 34.632812 136.425781 C 34.308594 136.316406 33.988281 136.207031 33.667969 136.097656 C 33.09375 135.90625 32.519531 135.714844 31.945312 135.527344 C 28.058594 134.214844 24.542969 131.988281 22.628906 128.230469 C 20.371094 123.097656 20.035156 115.238281 21.71875 109.871094 C 22.65625 107.542969 24.054688 105.992188 25.882812 104.292969 C 25.546875 103.511719 25.167969 103.089844 24.523438 102.542969 C 23.589844 101.628906 23 100.664062 22.410156 99.507812 C 22.332031 99.351562 22.25 99.195312 22.167969 99.039062 C 20.960938 96.550781 20.96875 93.882812 20.976562 91.167969 C 20.976562 90.605469 20.972656 90.042969 20.964844 89.476562 C 20.945312 84.601562 21.777344 80.476562 25.234375 76.863281 C 25.667969 76.472656 26.046875 76.273438 26.367188 76.273438 C 26.265625 76.164062 26.160156 76.050781 26.058594 75.9375 C 22.65625 72.15625 20.992188 68.367188 21.023438 63.234375 C 21.023438 63.027344 21.023438 62.820312 21.027344 62.605469 C 21.039062 60.957031 21.082031 59.308594 21.144531 57.664062 C 21.152344 57.4375 21.160156 57.214844 21.167969 56.984375 C 21.347656 52.785156 22.5 49.226562 25.640625 46.324219 C 26.625 45.433594 27.558594 45.039062 28.792969 44.628906 C 28.984375 44.5625 29.171875 44.496094 29.371094 44.429688 C 29.992188 44.214844 30.617188 44 31.242188 43.789062 C 31.679688 43.640625 32.117188 43.488281 32.554688 43.339844 C 33.441406 43.03125 34.332031 42.726562 35.222656 42.421875 C 36.914062 41.839844 38.59375 41.246094 40.277344 40.648438 C 43.191406 39.613281 46.105469 38.597656 49.03125 37.59375 C 51.203125 36.847656 53.367188 36.089844 55.535156 35.324219 C 61.664062 33.167969 67.804688 31.054688 73.96875 29.015625 C 77.304688 27.910156 80.621094 26.753906 83.929688 25.578125 C 84.109375 25.515625 84.292969 25.449219 84.480469 25.382812 C 84.820312 25.261719 85.160156 25.140625 85.5 25.019531 C 89.421875 23.628906 93.753906 25.355469 97.65625 26.300781 Z M 152.683594 50.914062 C 153.261719 51.78125 153.242188 52.417969 153.25 53.421875 C 153.253906 53.597656 153.257812 53.773438 153.261719 53.953125 C 153.273438 54.515625 153.28125 55.078125 153.289062 55.640625 C 153.242188 57.886719 153.441406 60.09375 153.890625 62.265625 C 154.292969 62.601562 154.777344 62.84375 155.339844 62.992188 C 157.125 63.621094 158.25 64.347656 158.722656 65.164062 C 159.085938 66.386719 159.234375 67.617188 158.757812 68.824219 C 157.796875 70.359375 156.308594 70.871094 154.6875 71.476562 C 153.863281 71.789062 153.046875 72.121094 152.230469 72.453125 C 151.46875 72.757812 150.707031 73.0625 149.941406 73.363281 C 148.746094 73.839844 147.546875 74.320312 146.355469 74.804688 C 140.480469 77.1875 136.3125 78.753906 133.851562 79.507812 C 133.363281 79.65625 132.875 79.8125 132.390625 79.96875 C 131.019531 80.40625 130.054688 80.621094 129.496094 80.621094 C 129.328125 78.121094 129.226562 75.644531 129.257812 73.136719 C 132.121094 71.566406 135.121094 70.492188 138.191406 69.40625 C 138.679688 69.234375 139.167969 69.058594 139.652344 68.886719 C 140.375 68.625 141.101562 68.367188 141.828125 68.109375 C 143.761719 67.421875 145.695312 66.71875 147.625 66.007812 C 147.832031 65.933594 148.039062 65.859375 148.25 65.78125 C 148.429688 65.714844 148.613281 65.648438 148.796875 65.578125 C 149.285156 65.414062 149.769531 65.28125 150.269531 65.164062 C 150.15625 64.878906 150.039062 64.597656 149.921875 64.304688 C 149.300781 62.761719 149.265625 61.15625 149.261719 59.515625 C 149.261719 59.328125 149.261719 59.140625 149.261719 58.949219 C 149.257812 58.554688 149.257812 58.160156 149.257812 57.765625 C 149.257812 57.164062 149.253906 56.5625 149.25 55.960938 C 149.25 55.578125 149.25 55.191406 149.246094 54.808594 C 149.246094 54.628906 149.246094 54.449219 149.242188 54.265625 C 149.246094 53.285156 149.328125 52.511719 149.785156 51.640625 C 150.71875 50.796875 151.46875 50.539062 152.683594 50.914062 Z M 36.511719 59.367188 C 38.078125 59.449219 39.460938 59.820312 40.960938 60.269531 C 42.277344 60.648438 43.613281 60.933594 44.949219 61.230469 C 47.863281 61.894531 50.734375 62.660156 53.605469 63.476562 C 59.183594 65.058594 64.78125 66.558594 70.390625 68.019531 C 70.929688 68.160156 71.472656 68.300781 72.011719 68.441406 C 72.273438 68.507812 72.535156 68.578125 72.804688 68.648438 C 74.65625 69.132812 76.496094 69.644531 78.335938 70.164062 C 80.550781 70.792969 82.769531 71.367188 85.011719 71.882812 C 85.601562 72.019531 86.191406 72.15625 86.78125 72.296875 C 87.03125 72.351562 87.285156 72.410156 87.539062 72.46875 C 88.144531 72.636719 88.636719 72.796875 89.164062 73.136719 C 89.304688 73.609375 89.382812 74.09375 89.40625 74.585938 C 89.246094 74.824219 89.085938 75.0625 88.921875 75.308594 C 87.453125 75.441406 86.171875 75.171875 84.757812 74.804688 C 84.542969 74.75 84.332031 74.699219 84.117188 74.644531 C 83.425781 74.46875 82.742188 74.292969 82.054688 74.117188 C 81.570312 73.996094 81.089844 73.871094 80.605469 73.75 C 77.53125 72.964844 74.460938 72.152344 71.402344 71.304688 C 68.925781 70.621094 66.445312 69.964844 63.960938 69.320312 C 60.640625 68.457031 57.324219 67.578125 54.019531 66.644531 C 53.863281 66.597656 53.703125 66.554688 53.535156 66.507812 C 52.53125 66.222656 51.523438 65.9375 50.519531 65.648438 C 48.234375 64.996094 45.949219 64.378906 43.636719 63.835938 C 41.972656 63.445312 40.308594 63.046875 38.652344 62.613281 C 38.472656 62.570312 38.289062 62.523438 38.101562 62.480469 C 37.351562 62.277344 36.832031 62.101562 36.265625 61.554688 C 35.921875 60.839844 36.070312 60.359375 36.269531 59.609375 Z M 125.875 63.714844 C 126.394531 64.507812 126.417969 65.164062 126.417969 66.097656 C 126.417969 66.386719 126.417969 66.679688 126.417969 66.972656 C 126.417969 67.289062 126.414062 67.609375 126.414062 67.933594 C 126.414062 68.269531 126.414062 68.609375 126.414062 68.945312 C 126.414062 69.859375 126.410156 70.773438 126.40625 71.6875 C 126.402344 72.257812 126.402344 72.832031 126.398438 73.402344 C 126.394531 75.597656 126.382812 77.789062 126.367188 79.984375 C 126.359375 81.414062 126.355469 82.84375 126.351562 84.273438 C 126.347656 86.042969 126.339844 87.8125 126.324219 89.582031 C 126.316406 90.511719 126.3125 91.445312 126.3125 92.378906 C 126.308594 93.257812 126.304688 94.132812 126.292969 95.011719 C 126.289062 95.484375 126.289062 95.960938 126.289062 96.433594 C 126.265625 97.980469 126.015625 99.054688 125.546875 99.65625 C 125.121094 100.007812 124.675781 100.234375 124.214844 100.332031 C 123.285156 100.152344 122.554688 99.78125 121.753906 99.296875 C 121.609375 99.214844 121.464844 99.132812 121.316406 99.046875 C 119.71875 98.113281 118.695312 96.863281 117.664062 95.355469 C 116.484375 95.703125 115.753906 96.34375 115.007812 97.289062 C 114.75 97.757812 114.53125 98.238281 114.308594 98.722656 C 113.914062 99.457031 113.378906 100.023438 112.816406 100.632812 C 112.128906 101.398438 111.507812 102.207031 110.875 103.011719 C 110.082031 103.976562 109.363281 104.5625 108.726562 104.777344 C 107.648438 103.734375 107.488281 103.269531 107.445312 101.765625 C 107.441406 101.605469 107.433594 101.441406 107.429688 101.273438 C 107.414062 100.71875 107.402344 100.167969 107.386719 99.613281 C 107.382812 99.421875 107.378906 99.226562 107.371094 99.027344 C 107.242188 93.832031 107.214844 88.632812 107.207031 83.4375 C 107.203125 82.332031 107.199219 81.226562 107.191406 80.121094 C 107.183594 78.761719 107.175781 77.40625 107.175781 76.050781 C 107.175781 75.539062 107.171875 75.027344 107.167969 74.515625 C 107.160156 73.808594 107.160156 73.101562 107.164062 72.394531 C 107.160156 72.1875 107.15625 71.976562 107.152344 71.761719 C 107.164062 70.824219 107.355469 70.152344 107.738281 69.75 C 108.246094 69.511719 108.675781 69.378906 109.230469 69.289062 C 110.546875 69.027344 111.722656 68.53125 112.953125 68.003906 C 114.71875 67.261719 116.484375 66.566406 118.300781 65.953125 C 119.253906 65.625 120.191406 65.269531 121.121094 64.878906 C 121.339844 64.789062 121.558594 64.699219 121.78125 64.605469 C 122.207031 64.429688 122.628906 64.25 123.050781 64.066406 C 124.316406 63.539062 125.257812 63.421875 125.875 63.714844 Z M 39.167969 67.097656 C 40.21875 67.335938 41.238281 67.65625 42.261719 67.988281 C 44.207031 68.605469 46.140625 69.148438 48.128906 69.609375 C 50.6875 70.207031 53.203125 70.910156 55.726562 71.640625 C 56.171875 71.769531 56.617188 71.898438 57.0625 72.027344 C 58.34375 72.394531 59.625 72.765625 60.902344 73.136719 C 64.503906 74.179688 68.109375 75.195312 71.742188 76.121094 C 73.949219 76.6875 76.136719 77.3125 78.320312 77.953125 C 79.898438 78.40625 81.476562 78.828125 83.070312 79.21875 C 83.246094 79.261719 83.425781 79.304688 83.605469 79.347656 C 84.472656 79.558594 85.34375 79.765625 86.210938 79.96875 C 86.527344 80.046875 86.839844 80.121094 87.15625 80.199219 C 87.433594 80.261719 87.710938 80.328125 87.996094 80.394531 C 88.675781 80.621094 89 80.761719 89.40625 81.347656 C 89.382812 81.839844 89.304688 82.324219 89.164062 82.796875 C 88.136719 83.480469 87.527344 83.1875 86.355469 82.96875 C 85.027344 82.6875 83.714844 82.375 82.398438 82.042969 C 82.109375 81.96875 81.816406 81.894531 81.511719 81.820312 C 79.195312 81.226562 76.894531 80.578125 74.597656 79.910156 C 72.535156 79.3125 70.460938 78.765625 68.375 78.238281 C 65.636719 77.542969 62.914062 76.800781 60.195312 76.019531 C 60.015625 75.96875 59.835938 75.914062 59.648438 75.863281 C 57.9375 75.371094 56.230469 74.875 54.523438 74.363281 C 51.632812 73.503906 48.726562 72.734375 45.800781 72.015625 C 42.582031 71.222656 39.402344 70.355469 36.269531 69.269531 C 36.15625 68.820312 36.078125 68.335938 36.027344 67.820312 C 36.816406 66.726562 37.945312 66.957031 39.167969 67.097656 Z M 38.925781 87.386719 C 39.605469 87.535156 40.253906 87.75 40.910156 87.980469 C 41.101562 88.042969 41.292969 88.109375 41.488281 88.175781 C 41.90625 88.3125 42.320312 88.453125 42.738281 88.597656 C 43.886719 88.988281 45.039062 89.367188 46.191406 89.75 C 46.441406 89.832031 46.6875 89.914062 46.941406 89.996094 C 50.054688 91.019531 53.191406 91.964844 56.332031 92.910156 C 56.609375 92.996094 56.890625 93.078125 57.175781 93.164062 C 58.257812 93.492188 59.34375 93.820312 60.429688 94.144531 C 62.632812 94.808594 64.832031 95.484375 67.03125 96.164062 C 68.414062 96.589844 69.796875 97.007812 71.183594 97.410156 C 73.046875 97.949219 74.890625 98.546875 76.734375 99.148438 C 78.289062 99.644531 79.847656 100.125 81.414062 100.582031 C 81.597656 100.632812 81.78125 100.6875 81.972656 100.742188 C 82.882812 101.011719 83.796875 101.273438 84.710938 101.535156 C 85.046875 101.632812 85.386719 101.730469 85.722656 101.828125 C 86.019531 101.914062 86.316406 102 86.621094 102.085938 C 88.140625 102.574219 89.066406 102.988281 89.40625 103.328125 C 89.355469 103.890625 89.273438 104.453125 89.164062 105.015625 C 87.84375 105.675781 86.230469 105.183594 84.902344 104.753906 C 84.730469 104.699219 84.5625 104.648438 84.382812 104.59375 C 83.828125 104.421875 83.273438 104.242188 82.71875 104.066406 C 82.328125 103.945312 81.941406 103.824219 81.550781 103.703125 C 80.761719 103.457031 79.972656 103.207031 79.1875 102.960938 C 78.152344 102.632812 77.121094 102.3125 76.085938 101.992188 C 73.304688 101.132812 71.308594 100.511719 70.101562 100.125 C 67.660156 99.347656 65.214844 98.597656 62.761719 97.855469 C 62.597656 97.808594 62.429688 97.757812 62.257812 97.703125 C 60.703125 97.234375 59.144531 96.765625 57.585938 96.296875 C 53.210938 94.976562 48.847656 93.628906 44.5 92.214844 C 43.265625 91.816406 42.03125 91.417969 40.796875 91.023438 C 40.578125 90.953125 40.355469 90.882812 40.125 90.808594 C 39.210938 90.511719 38.296875 90.242188 37.359375 90.027344 C 36.792969 89.875 36.347656 89.640625 36.027344 89.316406 C 36.058594 88.835938 36.136719 88.351562 36.269531 87.867188 C 37.175781 87.265625 37.878906 87.277344 38.925781 87.386719 Z M 37.703125 95.234375 C 38.898438 95.265625 39.945312 95.566406 41.070312 95.941406 C 41.484375 96.074219 41.894531 96.207031 42.304688 96.339844 C 42.535156 96.414062 42.765625 96.488281 43 96.5625 C 44.460938 97.03125 45.925781 97.476562 47.390625 97.925781 C 47.722656 98.027344 48.054688 98.128906 48.386719 98.230469 C 49.238281 98.492188 50.089844 98.753906 50.941406 99.015625 C 52.460938 99.484375 53.980469 99.949219 55.5 100.417969 C 55.664062 100.46875 55.832031 100.519531 56.003906 100.574219 C 59.203125 101.554688 62.398438 102.546875 65.59375 103.539062 C 66.773438 103.90625 67.949219 104.269531 69.128906 104.636719 C 70.3125 105.003906 71.496094 105.371094 72.679688 105.738281 C 73.277344 105.921875 73.871094 106.105469 74.46875 106.289062 C 77.675781 107.285156 80.882812 108.28125 84.078125 109.304688 C 85.503906 109.761719 86.9375 110.199219 88.375 110.613281 C 88.738281 110.746094 89.082031 110.972656 89.40625 111.296875 C 89.363281 111.871094 89.285156 112.433594 89.164062 112.988281 C 87.660156 113.738281 85.914062 112.953125 84.4375 112.472656 C 83.878906 112.296875 83.320312 112.117188 82.757812 111.941406 C 82.605469 111.894531 82.449219 111.84375 82.289062 111.792969 C 80.175781 111.125 78.050781 110.484375 75.929688 109.84375 C 71.746094 108.574219 67.566406 107.292969 63.394531 105.992188 C 62.574219 105.734375 61.757812 105.480469 60.9375 105.226562 C 58.4375 104.453125 55.9375 103.679688 53.441406 102.886719 C 53.253906 102.828125 53.070312 102.769531 52.878906 102.710938 C 52.109375 102.46875 51.34375 102.222656 50.578125 101.980469 C 48.308594 101.261719 46.035156 100.550781 43.757812 99.855469 C 43.542969 99.789062 43.324219 99.722656 43.101562 99.65625 C 42.046875 99.335938 40.996094 99.015625 39.941406 98.695312 C 39.5625 98.582031 39.179688 98.464844 38.800781 98.351562 C 38.628906 98.296875 38.453125 98.246094 38.277344 98.195312 C 37.515625 97.960938 36.9375 97.734375 36.269531 97.289062 C 36.21875 96.804688 36.21875 96.320312 36.269531 95.839844 C 36.589844 95.515625 37.070312 95.316406 37.703125 95.234375 Z M 37.425781 115.804688 C 38.953125 115.824219 40.242188 116.382812 41.640625 116.941406 C 42.226562 117.167969 42.8125 117.390625 43.394531 117.613281 C 43.546875 117.671875 43.695312 117.726562 43.847656 117.789062 C 45.425781 118.390625 47.019531 118.945312 48.617188 119.492188 C 48.90625 119.59375 49.195312 119.691406 49.492188 119.792969 C 53.046875 121.007812 56.613281 122.191406 60.179688 123.371094 C 65.328125 125.082031 70.472656 126.800781 75.601562 128.574219 C 76.867188 129.011719 78.132812 129.445312 79.398438 129.878906 C 80.351562 130.203125 81.304688 130.53125 82.257812 130.859375 C 82.722656 131.019531 83.183594 131.179688 83.648438 131.335938 C 84.300781 131.558594 84.949219 131.78125 85.597656 132.007812 C 85.789062 132.074219 85.984375 132.136719 86.183594 132.203125 C 87.300781 132.59375 88.230469 133.023438 89.164062 133.757812 C 89.242188 133.996094 89.320312 134.238281 89.402344 134.484375 C 89.171875 134.917969 88.929688 135.320312 88.679688 135.691406 C 87.371094 135.5625 86.257812 135.328125 85.015625 134.875 C 84.855469 134.820312 84.699219 134.761719 84.53125 134.703125 C 84.191406 134.578125 83.847656 134.457031 83.507812 134.332031 C 82.585938 133.996094 81.664062 133.667969 80.742188 133.335938 C 80.554688 133.269531 80.367188 133.203125 80.175781 133.132812 C 78.4375 132.511719 76.695312 131.921875 74.941406 131.34375 C 74.652344 131.246094 74.359375 131.148438 74.058594 131.050781 C 73.453125 130.851562 72.847656 130.652344 72.242188 130.449219 C 70.6875 129.9375 69.132812 129.417969 67.582031 128.898438 C 66.664062 128.59375 65.742188 128.289062 64.824219 127.980469 C 64.453125 127.859375 64.082031 127.734375 63.710938 127.609375 C 63.527344 127.546875 63.34375 127.488281 63.152344 127.425781 C 62.035156 127.050781 61.292969 126.804688 60.921875 126.679688 C 60.550781 126.554688 60.179688 126.433594 59.808594 126.308594 C 58.890625 126.003906 57.972656 125.699219 57.058594 125.390625 C 55.398438 124.835938 53.738281 124.285156 52.074219 123.738281 C 48.773438 122.652344 45.484375 121.535156 42.207031 120.382812 C 41.785156 120.234375 41.359375 120.085938 40.9375 119.941406 C 40.34375 119.734375 39.75 119.527344 39.15625 119.316406 C 38.980469 119.253906 38.800781 119.195312 38.621094 119.132812 C 37.511719 118.730469 36.785156 118.277344 36.027344 117.335938 C 36.082031 116.128906 36.222656 115.910156 37.425781 115.804688 Z M 36.75 123.371094 C 38.445312 123.4375 39.941406 123.996094 41.523438 124.566406 C 41.796875 124.660156 42.070312 124.757812 42.351562 124.855469 C 43.789062 125.367188 45.230469 125.882812 46.667969 126.402344 C 47.230469 126.605469 47.796875 126.808594 48.359375 127.011719 C 48.640625 127.113281 48.921875 127.214844 49.210938 127.316406 C 51.8125 128.246094 54.441406 129.085938 57.074219 129.917969 C 60.503906 131.003906 63.894531 132.191406 67.285156 133.402344 C 69.066406 134.039062 70.851562 134.667969 72.636719 135.292969 C 73.035156 135.429688 73.429688 135.570312 73.824219 135.707031 C 74.394531 135.90625 74.96875 136.105469 75.539062 136.304688 C 77.550781 137.003906 79.546875 137.730469 81.527344 138.511719 C 83.125 139.144531 84.722656 139.6875 86.386719 140.128906 C 86.816406 140.246094 87.246094 140.363281 87.675781 140.480469 C 87.859375 140.53125 88.039062 140.578125 88.226562 140.628906 C 88.53125 140.71875 88.839844 140.84375 89.164062 141.003906 C 89.414062 141.609375 89.4375 141.878906 89.207031 142.5 C 89.015625 142.789062 88.761719 143.015625 88.4375 143.179688 C 86.980469 143.261719 85.808594 143.058594 84.421875 142.621094 C 84.214844 142.554688 84.007812 142.492188 83.796875 142.425781 C 81.339844 141.648438 78.929688 140.738281 76.511719 139.84375 C 69.230469 137.140625 61.890625 134.613281 54.507812 132.195312 C 49.378906 130.515625 44.296875 128.738281 39.253906 126.816406 C 38.59375 126.570312 37.933594 126.335938 37.269531 126.105469 C 36.761719 125.894531 36.347656 125.546875 36.027344 125.0625 C 36.105469 124.261719 36.171875 123.953125 36.75 123.375 Z M 36.75 123.371094 " fill-opacity="1" fill-rule="nonzero"/></g><g clip-path="url(#133162e2d7)"><path fill="#009900" d="M 89.660156 179.296875 C 40.160156 179.296875 0.0273438 139.164062 0.0273438 89.660156 C 0.0273438 40.160156 40.160156 0.0273438 89.660156 0.0273438 C 139.164062 0.0273438 179.296875 40.160156 179.296875 89.660156 C 179.296875 139.164062 139.164062 179.296875 89.660156 179.296875 " fill-opacity="1" fill-rule="nonzero"/></g><path fill="#ffffff" d="M 113.597656 62.5625 L 81.332031 94.828125 C 80.609375 95.546875 79.4375 95.546875 78.71875 94.828125 L 66.050781 82.160156 C 61.054688 77.160156 52.953125 77.160156 47.957031 82.160156 C 42.960938 87.15625 42.960938 95.253906 47.957031 100.253906 L 70.980469 123.273438 C 75.972656 128.269531 84.074219 128.269531 89.070312 123.273438 L 98.117188 114.226562 L 131.691406 80.65625 C 136.6875 75.65625 136.6875 67.558594 131.691406 62.5625 C 126.691406 57.566406 118.59375 57.566406 113.597656 62.5625 " fill-opacity="1" fill-rule="nonzero"/></svg>
