<svg xmlns="http://www.w3.org/2000/svg" xmlns:xlink="http://www.w3.org/1999/xlink" width="330" zoomAndPan="magnify" viewBox="0 0 247.5 323.999988" height="432" preserveAspectRatio="xMidYMid meet" version="1.0"><defs><clipPath id="e8f653c7a9"><path d="M 155.15625 43.210938 L 217.28125 43.210938 L 217.28125 105.335938 L 155.15625 105.335938 Z M 155.15625 43.210938 " clip-rule="nonzero"/></clipPath><clipPath id="b198f05527"><path d="M 17 0.328125 L 246 0.328125 L 246 223 L 17 223 Z M 17 0.328125 " clip-rule="nonzero"/></clipPath><clipPath id="fa7ce39d45"><path d="M 80 240 L 174 240 L 174 323.671875 L 80 323.671875 Z M 80 240 " clip-rule="nonzero"/></clipPath><clipPath id="d3459617a7"><path d="M 78 244 L 167 244 L 167 323.671875 L 78 323.671875 Z M 78 244 " clip-rule="nonzero"/></clipPath></defs><g clip-path="url(#e8f653c7a9)"><path fill="#009900" d="M 186.230469 105.351562 C 169.074219 105.351562 155.167969 91.445312 155.167969 74.289062 C 155.167969 57.128906 169.074219 43.222656 186.230469 43.222656 C 203.386719 43.222656 217.296875 57.128906 217.296875 74.289062 C 217.296875 91.445312 203.386719 105.351562 186.230469 105.351562 " fill-opacity="1" fill-rule="nonzero"/></g><path fill="#ffffff" d="M 194.527344 64.894531 L 183.34375 76.078125 C 183.09375 76.328125 182.6875 76.328125 182.4375 76.078125 L 178.046875 71.6875 C 176.316406 69.953125 173.507812 69.953125 171.777344 71.6875 C 170.046875 73.417969 170.046875 76.226562 171.777344 77.957031 L 179.757812 85.9375 C 181.488281 87.667969 184.292969 87.667969 186.027344 85.9375 L 189.160156 82.800781 L 200.796875 71.164062 C 202.527344 69.433594 202.527344 66.625 200.796875 64.894531 C 199.066406 63.164062 196.257812 63.164062 194.527344 64.894531 " fill-opacity="1" fill-rule="nonzero"/><path fill="#ffd400" d="M 156.566406 218.304688 L 79.152344 218.304688 L 79.152344 210.554688 C 79.152344 197.398438 80.648438 186.707031 83.644531 178.476562 C 86.683594 170.144531 91.125 162.644531 96.972656 155.976562 C 102.890625 149.191406 116.167969 137.242188 136.808594 120.128906 C 147.808594 111.214844 153.308594 103 153.308594 95.480469 C 153.308594 88.007812 151.179688 82.21875 146.6875 78.066406 C 142.195312 73.914062 135.59375 71.851562 126.628906 71.851562 C 124.410156 71.78125 122.210938 71.941406 120.023438 72.328125 C 117.839844 72.714844 115.714844 73.320312 113.65625 74.144531 C 111.59375 74.96875 109.640625 75.996094 107.792969 77.222656 C 105.941406 78.449219 104.238281 79.851562 102.679688 81.429688 C 96.375 87.816406 92.335938 98.949219 90.5625 114.828125 L 11.53125 105.058594 C 14.242188 75.996094 24.804688 52.578125 43.210938 34.8125 C 61.621094 17.042969 89.832031 8.210938 127.84375 8.308594 C 157.453125 8.308594 181.355469 14.488281 199.550781 26.851562 C 224.21875 43.539062 236.554688 65.804688 236.554688 93.648438 C 236.515625 99.546875 235.6875 105.332031 234.0625 111.003906 C 232.4375 116.671875 230.082031 122.019531 226.996094 127.046875 C 220.59375 137.777344 207.578125 150.882812 187.949219 166.363281 C 174.222656 177.21875 165.585938 185.941406 162.035156 192.523438 C 158.488281 199.109375 156.664062 207.703125 156.566406 218.304688 Z M 76.511719 238.867188 L 159.417969 238.867188 L 159.417969 311.988281 L 76.511719 311.988281 Z M 76.511719 238.867188 " fill-opacity="1" fill-rule="nonzero"/><g clip-path="url(#b198f05527)"><path fill="#000000" d="M 169.679688 215.8125 L 130.886719 221.902344 L 91.480469 222.410156 L 90.328125 222.410156 L 90.136719 221.261719 L 88.328125 210.195312 L 88.328125 209.789062 C 89.710938 198.910156 91.203125 188.054688 92.585938 177.199219 L 92.585938 176.730469 L 92.90625 176.347656 L 105.679688 161.210938 C 109.9375 156.105469 114.367188 151.269531 118.753906 146.3125 C 127.554688 136.464844 136.410156 126.671875 145.324219 116.9375 L 145.066406 117.320312 L 158.757812 91.519531 L 158.757812 93.074219 L 151.476562 77.617188 L 152.433594 78.429688 L 133.933594 72.703125 L 134.847656 72.703125 L 112.324219 82.175781 L 112.941406 81.472656 C 109.277344 94.242188 105.730469 107.015625 102.292969 119.789062 L 102.082031 120.511719 L 101.378906 120.339844 C 87.519531 117.019531 73.742188 113.699219 59.839844 110.59375 L 60.011719 110.59375 L 18.28125 112.1875 L 17.257812 112.1875 L 17.40625 111.167969 L 23.796875 66.933594 L 23.796875 66.59375 L 24.03125 66.316406 L 49.367188 35.640625 L 49.367188 35.515625 L 49.515625 35.515625 L 85.792969 6.710938 L 86.199219 6.394531 L 86.753906 6.394531 L 132.867188 0.328125 L 133.273438 0.328125 L 171.597656 2.839844 L 171.894531 2.839844 L 172.171875 2.945312 L 209.089844 15.527344 L 209.855469 15.78125 L 210.261719 16.484375 L 231.382812 51.265625 L 231.488281 51.457031 L 231.488281 51.628906 L 244.730469 86.964844 L 245.070312 87.601562 L 244.902344 88.199219 L 235.808594 120.46875 L 235.808594 120.789062 L 235.617188 121.023438 C 224.355469 135.753906 213.136719 150.421875 201.851562 165.109375 L 201.851562 165.234375 C 192.042969 173.082031 182.25 180.886719 172.46875 188.652344 L 172.703125 188.203125 Z M 169.359375 215.535156 L 171.488281 188.078125 L 171.488281 187.820312 L 171.722656 187.628906 C 181.191406 179.539062 190.703125 171.5 200.253906 163.511719 L 200.0625 163.703125 C 210.984375 148.800781 221.84375 133.902344 232.828125 119 L 232.550781 119.574219 L 241.195312 87.199219 L 241.195312 88.410156 L 227.570312 53.222656 L 227.742188 53.566406 L 206.449219 18.824219 L 207.621094 19.78125 L 170.660156 7.265625 L 171.214844 7.371094 L 132.976562 4.582031 L 133.378906 4.582031 L 87.242188 10.183594 L 88.179688 9.777344 L 51.792969 38.046875 L 52.027344 37.8125 L 26.136719 67.996094 L 26.414062 67.378906 L 19.175781 111.488281 L 18.300781 110.507812 L 60.054688 109.25 L 60.246094 109.25 C 74 112.53125 87.921875 115.636719 101.613281 118.746094 L 100.699219 119.277344 C 104.175781 106.503906 107.5625 93.734375 110.855469 80.960938 L 110.980469 80.472656 L 111.472656 80.257812 L 133.785156 70.273438 L 134.210938 70.082031 L 134.699219 70.210938 L 153.351562 75.574219 L 153.988281 75.746094 L 154.308594 76.382812 L 161.886719 91.667969 L 162.269531 92.457031 L 161.867188 93.242188 L 148.367188 119.085938 L 148.367188 119.277344 L 148.199219 119.46875 C 139.328125 129.289062 130.457031 139.058594 121.585938 148.78125 C 117.15625 153.675781 112.597656 158.445312 108.382812 163.511719 L 95.609375 178.414062 L 95.992188 177.5625 C 94.375 188.542969 92.75 199.421875 91.117188 210.191406 L 91.117188 209.769531 L 92.714844 220.859375 L 91.394531 219.707031 L 130.78125 220.113281 L 130.675781 220.113281 Z M 169.359375 215.535156 " fill-opacity="1" fill-rule="nonzero"/></g><path fill="#000000" d="M 89.308594 237.589844 C 95.972656 236.375 102.828125 235.121094 109.808594 233.90625 C 116.792969 232.695312 123.90625 231.523438 131.101562 230.457031 L 131.355469 230.457031 C 138.660156 230.457031 145.941406 230.457031 153.242188 230.457031 C 160.546875 230.457031 167.847656 230.714844 175.128906 231.074219 L 176.726562 231.074219 L 176.726562 251.722656 C 176.726562 258.097656 176.785156 264.480469 176.898438 270.882812 C 176.898438 277.269531 176.898438 283.652344 176.898438 290.039062 L 177.300781 309.199219 L 177.300781 310.519531 L 175.917969 310.519531 C 168.871094 310.113281 161.824219 309.6875 154.796875 309.199219 C 147.773438 308.707031 140.726562 308.175781 133.675781 307.644531 L 134.125 307.644531 L 113.8125 310.476562 C 107.042969 311.371094 100.273438 312.261719 93.480469 313.050781 L 91.179688 313.328125 L 90.988281 311.070312 C 89.96875 299.128906 89.117188 287.1875 88.308594 275.246094 L 88.308594 274.925781 L 88.734375 255.980469 Z M 89.625 237.867188 L 90.648438 256.664062 L 91.480469 274.882812 L 91.480469 274.734375 C 92.839844 286.632812 94.183594 298.535156 95.355469 310.453125 L 92.863281 308.453125 C 99.632812 307.496094 106.402344 306.644531 113.195312 305.769531 L 133.550781 303.34375 L 133.996094 303.34375 C 141.023438 304.027344 148.050781 304.707031 155.054688 305.472656 C 162.058594 306.238281 169.085938 307.003906 176.089844 307.835938 L 174.8125 308.984375 C 175.195312 296.214844 175.621094 283.546875 175.515625 270.816406 C 175.324219 264.433594 175.046875 258.046875 174.640625 251.660156 L 173.535156 232.5 L 175.109375 234.054688 C 167.808594 234.226562 160.523438 234.054688 153.222656 234.054688 C 145.917969 234.054688 138.617188 233.777344 131.335938 233.523438 L 131.570312 233.523438 C 124.777344 234.332031 117.964844 235.015625 111.003906 235.652344 Z M 89.625 237.867188 " fill-opacity="1" fill-rule="nonzero"/><path fill="#000000" d="M 157.246094 218.261719 L 117.902344 222.519531 L 78.578125 225.734375 L 78 225.734375 L 78 225.136719 L 78.597656 213.34375 L 85.539062 182.605469 L 88.691406 155.378906 L 88.691406 155.082031 L 88.902344 154.890625 L 129.355469 118.703125 L 129.058594 119.105469 L 137.9375 93.5625 L 137.9375 94.394531 L 131.867188 81.621094 L 132.484375 82.195312 L 115.941406 75.808594 L 116.730469 75.808594 L 92.457031 83.386719 L 93.265625 82.621094 L 82.621094 112.082031 L 82.300781 112.976562 L 81.34375 112.976562 L 43.636719 113.148438 L 43.789062 113.148438 L 2.675781 117.402344 L 0.226562 117.636719 L 1.015625 115.277344 L 14.46875 75.765625 L 31.355469 42.515625 L 31.589844 42.046875 L 32.054688 41.773438 L 68.976562 19.484375 L 69.273438 19.484375 L 111.855469 2.730469 L 112.324219 2.457031 L 152.050781 2.457031 L 189.523438 14.460938 L 190.097656 14.652344 L 190.480469 15.078125 L 204.191406 30.617188 L 217.863281 46.222656 L 218.179688 46.582031 L 218.179688 47.050781 L 228.039062 85.472656 L 228.039062 86.089844 L 224.527344 121.382812 L 224.527344 122.042969 L 224.058594 122.449219 L 180.902344 158.488281 L 181.136719 158.191406 L 161.824219 190.652344 L 161.824219 190.4375 Z M 156.949219 217.964844 L 160.71875 190.289062 L 160.71875 190.183594 L 179.28125 157.125 L 179.28125 156.976562 L 179.429688 156.847656 L 221.886719 120.023438 L 221.332031 121.085938 L 224.441406 85.773438 L 224.441406 86.390625 L 214.285156 48.074219 L 214.730469 48.902344 L 200.914062 33.449219 L 187.160156 17.910156 L 188.097656 18.527344 L 150.644531 6.476562 L 151.304688 6.476562 L 112.726562 6.710938 L 113.472656 6.5625 L 70.71875 23.082031 L 70.996094 22.933594 L 34.015625 44.710938 L 34.71875 43.984375 L 17.683594 77.109375 L 17.683594 76.875 L 4.015625 116.320312 L 2.355469 114.191406 L 43.488281 110.1875 L 43.636719 110.1875 L 81.34375 110.316406 L 80.089844 111.210938 L 90.925781 81.8125 L 91.136719 81.238281 L 91.734375 81.046875 L 116.046875 73.617188 L 116.453125 73.488281 L 116.835938 73.636719 L 133.316406 80.023438 L 133.742188 80.195312 L 133.933594 80.597656 L 139.9375 93.371094 L 140.128906 93.777344 L 139.980469 94.203125 L 130.929688 119.746094 L 130.929688 120 L 130.738281 120.171875 L 90.011719 156.082031 L 90.265625 155.59375 L 86.902344 182.796875 L 79.746094 213.472656 L 79.003906 225.242188 L 78.449219 224.691406 L 117.835938 221.710938 Z M 156.949219 217.964844 " fill-opacity="1" fill-rule="nonzero"/><path fill="#000000" d="M 75.957031 240.015625 L 119.457031 234.714844 L 162.996094 231.777344 L 164.1875 231.777344 L 164.1875 233.011719 L 163.996094 269.199219 C 163.996094 275.222656 163.804688 281.25 163.738281 287.273438 L 163.441406 305.324219 L 163.441406 306.578125 L 162.207031 306.941406 L 125.226562 317.863281 L 124.585938 317.863281 C 117.6875 317.691406 110.789062 317.605469 103.890625 317.371094 C 96.992188 317.136719 90.09375 316.96875 83.195312 316.691406 L 81.558594 316.691406 L 81.238281 315.136719 L 77.382812 297.234375 C 76.105469 291.273438 74.785156 285.316406 73.617188 279.332031 L 73.617188 278.949219 L 74.765625 259.300781 Z M 76.277344 240.3125 L 76.449219 259.875 L 76.449219 278.886719 L 76.449219 278.523438 C 78 284.421875 79.429688 290.359375 80.875 296.277344 L 85.261719 314.050781 L 83.28125 312.457031 C 90.179688 312.457031 97.078125 312.753906 103.976562 312.882812 C 110.875 313.007812 117.773438 313.328125 124.671875 313.539062 L 124.03125 313.539062 L 161.25 303.367188 L 159.992188 304.984375 L 160.589844 286.933594 C 160.757812 280.929688 161.015625 274.90625 161.144531 268.902344 L 161.910156 232.714844 L 163.121094 233.863281 L 119.5625 235.992188 Z M 76.277344 240.3125 " fill-opacity="1" fill-rule="nonzero"/><path fill="#000000" d="M 161.207031 224.03125 L 122.222656 228.519531 L 83.175781 230.648438 L 82.195312 230.648438 L 81.855469 229.691406 L 78.640625 220.730469 L 78.640625 220.070312 C 79.855469 209.128906 81.132812 198.292969 82.578125 187.308594 L 82.578125 186.992188 L 82.75 186.691406 L 95.523438 163.789062 L 95.523438 163.640625 L 95.652344 163.488281 L 113.152344 143.117188 L 130.78125 122.875 L 130.570312 123.152344 L 144.40625 99.417969 L 144.28125 100.84375 L 138.617188 84.539062 L 139.660156 85.496094 L 119.964844 79.898438 L 120.859375 79.898438 L 97.441406 90.328125 L 97.992188 89.710938 C 94.417969 100.394531 90.925781 111.101562 87.519531 121.832031 L 87.347656 122.34375 L 86.796875 122.34375 C 73.765625 122.535156 60.757812 122.578125 47.726562 122.894531 L 8.359375 119.105469 L 7.550781 119.105469 L 7.550781 118.296875 L 11.554688 80.195312 L 11.554688 79.960938 L 11.679688 79.746094 L 31.820312 45.347656 L 32.164062 45.027344 L 32.503906 44.816406 L 71.1875 20.273438 L 71.488281 20.058594 L 71.871094 20.058594 L 116.859375 12.417969 L 117.539062 12.417969 L 154.519531 18.335938 L 191.460938 24.378906 L 192.101562 24.378906 L 192.566406 24.804688 L 223.164062 51.648438 L 223.652344 52.074219 L 223.824219 52.691406 C 227.527344 65.675781 231.167969 78.683594 234.746094 91.710938 L 234.871094 92.15625 L 234.871094 92.582031 L 228.742188 128.046875 L 228.742188 128.558594 L 228.421875 128.921875 L 197.082031 163.511719 C 194.421875 166.363281 191.929688 169.367188 189.160156 172.027344 L 180.835938 180.199219 L 164.167969 196.546875 L 164.359375 196.144531 Z M 160.910156 223.730469 L 163.039062 196.058594 L 163.039062 195.824219 L 163.230469 195.632812 L 179.410156 178.878906 L 187.585938 170.492188 C 190.289062 167.703125 192.695312 164.660156 195.273438 161.765625 L 225.738281 126.558594 L 225.3125 127.429688 L 230.871094 92.050781 L 230.871094 92.902344 C 227.066406 79.933594 223.320312 66.953125 219.628906 53.96875 L 220.289062 55.011719 L 189.714844 28.253906 L 190.820312 28.765625 L 153.796875 22.71875 L 116.859375 16.527344 L 117.539062 16.527344 L 72.488281 23.742188 L 73.167969 23.488281 L 34.101562 47.390625 L 34.609375 46.882812 L 13.765625 80.941406 L 13.917969 80.492188 L 9.253906 118.382812 L 8.53125 117.402344 L 47.746094 121.660156 C 60.777344 121.554688 73.785156 121.171875 86.816406 120.9375 L 86.09375 121.46875 C 89.429688 110.65625 92.742188 99.863281 96.035156 89.09375 L 96.164062 88.667969 L 96.589844 88.476562 L 120.007812 77.425781 L 120.414062 77.234375 L 120.902344 77.363281 L 140.703125 82.535156 L 141.449219 82.75 L 141.726562 83.515625 L 147.75 99.695312 L 148.027344 100.417969 L 147.621094 101.121094 L 133.996094 124.980469 L 133.996094 125.132812 L 133.867188 125.28125 L 116.347656 145.609375 L 98.675781 165.832031 L 98.867188 165.535156 L 85.878906 188.351562 L 86.09375 187.734375 C 84.625 198.632812 83.175781 209.554688 81.644531 220.433594 L 81.644531 219.773438 L 84.664062 228.796875 L 83.324219 227.882812 L 122.351562 226.710938 Z M 160.910156 223.730469 " fill-opacity="1" fill-rule="nonzero"/><g clip-path="url(#fa7ce39d45)"><path fill="#000000" d="M 80.515625 247.65625 L 90.839844 246.019531 C 94.3125 245.464844 97.84375 244.914062 101.484375 244.402344 C 108.640625 243.378906 115.855469 242.273438 123.160156 241.355469 L 123.308594 241.355469 C 130.421875 241.015625 137.550781 240.804688 144.601562 240.546875 C 151.648438 240.292969 158.84375 240.207031 165.890625 240.273438 L 167.464844 240.273438 L 167.464844 241.742188 C 168.191406 254.257812 168.699219 266.796875 169.59375 279.289062 C 170.042969 285.546875 170.722656 291.785156 171.277344 298.023438 C 171.832031 304.261719 172.617188 310.496094 173.40625 316.710938 L 173.535156 317.90625 L 172.277344 318.011719 C 158.355469 319.273438 144.292969 320.359375 130.101562 321.269531 C 115.984375 322.097656 101.847656 322.886719 87.710938 323.398438 L 85.582031 323.398438 L 85.390625 321.269531 C 84.261719 308.773438 83.496094 296.277344 82.601562 283.910156 Z M 80.855469 247.933594 L 85.6875 284.929688 C 87.09375 297.023438 88.648438 308.984375 89.945312 320.925781 L 87.519531 318.925781 C 94.585938 318.523438 101.65625 318.246094 108.808594 317.925781 L 130.101562 317.203125 C 144.210938 316.492188 158.339844 315.96875 172.492188 315.628906 L 171.382812 316.925781 C 170.980469 310.667969 170.679688 304.410156 170.210938 298.152344 C 169.746094 291.890625 169.339844 285.632812 168.722656 279.398438 C 167.613281 266.921875 165.996094 254.46875 164.613281 242.015625 L 166.273438 243.484375 C 159.140625 243.933594 152.007812 244.167969 144.984375 244.378906 C 137.957031 244.59375 130.71875 244.699219 123.585938 244.742188 L 123.734375 244.742188 C 116.835938 245.421875 109.851562 245.890625 102.804688 246.445312 C 99.273438 246.722656 95.695312 246.957031 92.160156 247.191406 Z M 80.855469 247.933594 " fill-opacity="1" fill-rule="nonzero"/></g><path fill="#000000" d="M 156.585938 222.261719 C 144.023438 221.347656 131.3125 220.304688 118.730469 219.070312 L 80.640625 216.664062 L 79.152344 216.664062 L 78.855469 215.21875 L 77.832031 210.34375 L 77.832031 209.917969 L 77.9375 209.492188 L 85.390625 177.816406 L 85.390625 177.5625 L 85.496094 177.328125 L 98.484375 154.082031 L 98.695312 153.71875 L 99.039062 153.484375 L 143.214844 122.660156 L 142.875 122.960938 L 162.867188 98.714844 L 162.65625 100.351562 L 154.710938 82.257812 L 155.523438 83.046875 L 135.804688 74.832031 L 136.851562 74.832031 L 111.875 83.34375 L 112.726562 82.535156 L 99.058594 116.125 L 98.652344 117.105469 L 97.632812 116.957031 L 57.988281 111.019531 L 57.816406 111.019531 L 20.046875 99.886719 L 18.941406 99.542969 L 19.386719 98.457031 L 30.269531 62.78125 L 30.269531 62.613281 L 30.375 62.460938 L 54.261719 31.425781 L 54.433594 31.234375 L 54.667969 31.234375 L 96.25 14.714844 L 96.375 14.714844 L 141.300781 10.96875 L 141.578125 10.96875 L 213.433594 31.46875 L 213.625 31.46875 L 213.625 31.640625 L 237.042969 63.996094 L 237.042969 64.1875 L 243.707031 102.503906 L 243.707031 102.671875 L 234.171875 136.136719 L 197.421875 165.128906 L 192.84375 168.726562 L 190.546875 170.621094 L 188.417969 172.558594 L 179.707031 180.308594 L 162.25 195.738281 L 156.925781 220.6875 Z M 157.246094 219.15625 L 162.144531 195.738281 L 179.496094 180.136719 L 188.160156 172.34375 L 190.289062 170.386719 L 192.632812 168.492188 L 197.210938 164.851562 L 233.722656 135.839844 L 233.722656 135.964844 L 243.367188 102.632812 L 243.367188 102.800781 L 236.511719 64.484375 L 236.511719 64.675781 L 212.816406 32.363281 L 213.113281 32.554688 L 141.171875 12.417969 L 141.425781 12.417969 L 96.714844 16.335938 L 96.949219 16.335938 L 55.371094 32.917969 L 55.773438 32.597656 L 32.015625 63.738281 L 32.183594 63.398438 L 21.515625 99.117188 L 20.75 97.691406 L 58.585938 108.632812 L 58.414062 108.632812 L 98.078125 114.359375 L 96.652344 115.167969 L 110.085938 81.429688 L 110.320312 80.832031 L 110.960938 80.621094 L 135.890625 72.105469 L 136.425781 71.914062 L 136.933594 72.148438 L 156.691406 80.300781 L 157.269531 80.535156 L 157.523438 81.089844 L 165.550781 99.160156 L 165.953125 100.035156 L 165.316406 100.800781 L 145.453125 125.066406 L 145.300781 125.238281 L 145.109375 125.367188 L 101.039062 156.421875 L 101.570312 155.828125 L 88.796875 179.242188 L 88.964844 178.753906 L 81.621094 210.277344 L 81.621094 209.449219 L 82.664062 214.34375 L 80.875 212.789062 L 119.050781 214.917969 C 131.292969 216.046875 143.363281 217.410156 155.648438 218.878906 Z M 157.246094 219.15625 " fill-opacity="1" fill-rule="nonzero"/><path fill="#000000" d="M 77.683594 237.398438 C 90.902344 238.632812 104.316406 239.996094 117.496094 241.65625 L 117.324219 241.65625 L 156.203125 242.804688 L 157.777344 242.804688 L 157.777344 244.378906 L 156.097656 316.457031 L 156.097656 317.605469 L 154.945312 317.605469 L 112.367188 314.15625 L 69.785156 312.496094 L 69.230469 312.496094 L 69.230469 311.964844 L 77.597656 239.015625 Z M 77.363281 240.355469 L 70.144531 311.964844 L 69.65625 311.414062 L 112.40625 312.476562 L 154.988281 315.351562 L 153.820312 316.414062 L 154.519531 244.316406 L 156.054688 245.933594 L 117.324219 245.316406 L 117.15625 245.316406 C 104.382812 243.976562 91.605469 242.359375 78.832031 240.589844 Z M 77.363281 240.355469 " fill-opacity="1" fill-rule="nonzero"/><path fill="#000000" d="M 156.714844 218.453125 L 118.199219 219.132812 L 79.152344 219.582031 L 77.832031 219.582031 L 77.832031 218.238281 C 77.683594 207.597656 77.492188 196.847656 79.769531 186.308594 C 80.914062 180.980469 82.660156 175.859375 85.007812 170.941406 C 87.359375 166.027344 90.246094 161.449219 93.671875 157.210938 C 97.097656 153.050781 100.792969 149.148438 104.765625 145.503906 C 108.640625 141.839844 112.597656 138.308594 116.582031 134.859375 C 120.5625 131.410156 124.609375 127.917969 128.675781 124.515625 L 134.804688 119.449219 C 136.933594 117.746094 138.851562 116.125 140.703125 114.316406 C 144.53125 110.914062 147.609375 106.933594 149.945312 102.375 C 150.976562 100.175781 151.53125 97.863281 151.605469 95.4375 C 151.648438 92.921875 151.359375 90.445312 150.730469 88.007812 C 150.441406 86.820312 150.035156 85.675781 149.515625 84.570312 C 148.996094 83.464844 148.367188 82.421875 147.636719 81.445312 C 146.90625 80.464844 146.082031 79.570312 145.167969 78.757812 C 144.257812 77.945312 143.273438 77.230469 142.214844 76.617188 C 137.601562 74.296875 132.710938 73.160156 127.546875 73.210938 C 122.375 72.980469 117.40625 73.875 112.640625 75.894531 C 110.292969 76.941406 108.117188 78.269531 106.113281 79.878906 C 104.105469 81.488281 102.335938 83.324219 100.804688 85.390625 C 97.84375 89.710938 95.714844 94.40625 94.417969 99.480469 C 93.046875 104.5625 92.074219 109.722656 91.5 114.957031 L 91.5 115.699219 L 90.753906 115.699219 L 70.71875 113.148438 L 50.960938 110.742188 L 11.425781 105.910156 L 10.59375 105.910156 L 10.59375 105.058594 C 12.253906 85.113281 18.109375 65.101562 29.757812 48.390625 C 35.542969 39.925781 42.546875 32.632812 50.769531 26.507812 C 59.152344 20.578125 68.25 16.109375 78.066406 13.097656 C 97.527344 7.011719 117.921875 5.691406 138.019531 6.4375 C 148.171875 6.875 158.1875 8.296875 168.0625 10.691406 C 178.039062 13.148438 187.449219 16.988281 196.292969 22.210938 C 205.09375 27.507812 212.902344 34 219.714844 41.6875 C 223.113281 45.5625 226.089844 49.738281 228.636719 54.21875 C 231.1875 58.699219 233.257812 63.394531 234.851562 68.296875 C 236.382812 73.214844 237.457031 78.230469 238.066406 83.34375 C 238.257812 85.878906 238.535156 88.433594 238.535156 90.988281 C 238.628906 93.550781 238.570312 96.113281 238.363281 98.671875 C 237.886719 103.800781 236.832031 108.808594 235.207031 113.695312 C 233.582031 118.585938 231.429688 123.226562 228.742188 127.621094 C 223.179688 136.160156 216.558594 143.773438 208.875 150.460938 C 201.488281 157.253906 193.589844 163.488281 185.710938 169.621094 C 181.835938 172.730469 178.003906 176.007812 174.386719 179.285156 C 170.6875 182.578125 167.335938 186.199219 164.335938 190.140625 C 161.472656 194.222656 159.519531 198.699219 158.480469 203.574219 C 157.914062 205.988281 157.492188 208.429688 157.226562 210.894531 C 157.097656 212.128906 156.992188 213.363281 156.925781 214.601562 L 156.925781 216.472656 C 156.820312 217.113281 156.757812 217.792969 156.714844 218.453125 Z M 156.417969 218.132812 C 156.417969 217.539062 156.417969 216.984375 156.417969 216.410156 L 156.417969 214.535156 C 156.417969 213.28125 156.417969 212.046875 156.609375 210.789062 C 156.789062 208.277344 157.128906 205.785156 157.628906 203.316406 C 158.554688 198.269531 160.414062 193.59375 163.207031 189.289062 C 169.042969 180.945312 176.707031 174.390625 184.328125 167.855469 C 191.949219 161.320312 199.765625 155.210938 206.917969 148.332031 C 214.195312 141.695312 220.480469 134.222656 225.78125 125.917969 C 228.265625 121.699219 230.238281 117.253906 231.699219 112.582031 C 233.160156 107.90625 234.066406 103.128906 234.425781 98.246094 C 234.675781 93.378906 234.515625 88.523438 233.9375 83.6875 C 233.304688 78.859375 232.253906 74.128906 230.785156 69.488281 C 229.269531 64.867188 227.300781 60.449219 224.886719 56.230469 C 222.46875 52.011719 219.652344 48.078125 216.433594 44.433594 C 209.886719 37.136719 202.398438 30.984375 193.972656 25.976562 C 177.152344 16.015625 157.394531 11.800781 137.765625 10.691406 C 118.136719 9.585938 98.035156 10.96875 79.195312 16.632812 C 69.71875 19.402344 60.910156 23.582031 52.773438 29.171875 C 44.792969 34.992188 37.921875 41.917969 32.164062 49.945312 C 26.375 58.023438 21.859375 66.757812 18.621094 76.148438 C 15.4375 85.578125 13.355469 95.242188 12.382812 105.144531 L 11.636719 104.207031 L 51.132812 109.25 L 70.890625 111.742188 L 90.648438 114.082031 L 89.820312 114.742188 C 90.359375 109.425781 91.304688 104.183594 92.648438 99.011719 C 93.960938 93.734375 96.089844 88.808594 99.039062 84.238281 C 100.625 81.992188 102.472656 79.988281 104.585938 78.222656 C 106.695312 76.457031 109 74.992188 111.492188 73.828125 C 116.585938 71.503906 121.929688 70.417969 127.523438 70.574219 C 130.296875 70.488281 133.039062 70.734375 135.75 71.320312 C 138.464844 71.902344 141.066406 72.804688 143.554688 74.023438 C 144.8125 74.707031 145.988281 75.511719 147.082031 76.4375 C 148.171875 77.359375 149.164062 78.382812 150.050781 79.503906 C 150.9375 80.628906 151.703125 81.828125 152.347656 83.105469 C 152.996094 84.382812 153.503906 85.710938 153.882812 87.089844 C 154.636719 89.800781 155.019531 92.5625 155.03125 95.371094 C 155.042969 98.351562 154.410156 101.191406 153.136719 103.886719 C 150.660156 108.894531 147.355469 113.269531 143.214844 117.019531 C 141.277344 118.914062 139.171875 120.660156 137.148438 122.363281 L 131.078125 127.453125 L 119.050781 137.777344 C 115.046875 141.222656 111.089844 144.714844 107.234375 148.292969 C 103.359375 151.785156 99.75 155.53125 96.398438 159.53125 C 93.101562 163.550781 90.3125 167.902344 88.035156 172.578125 C 85.757812 177.253906 84.054688 182.128906 82.921875 187.203125 C 81.832031 192.308594 81.125 197.46875 80.792969 202.679688 C 80.429688 207.894531 80.492188 213.171875 80.40625 218.496094 L 79.066406 217.152344 L 117.390625 217.644531 Z M 156.417969 218.132812 " fill-opacity="1" fill-rule="nonzero"/><path fill="#000000" d="M 76.363281 238.738281 L 96.566406 237.910156 C 103.421875 237.675781 110.34375 237.460938 117.324219 237.335938 C 124.308594 237.207031 131.3125 237.101562 138.339844 237.015625 C 145.367188 236.929688 152.414062 237.015625 159.417969 237.25 L 161.101562 237.25 L 161.101562 238.824219 C 160.78125 251 160.207031 263.199219 160.140625 275.394531 C 160.140625 281.484375 160.140625 287.570312 160.140625 293.660156 C 160.140625 299.746094 160.417969 305.855469 160.566406 311.945312 L 160.566406 313.074219 L 159.375 313.074219 C 152.476562 313.265625 145.558594 313.519531 138.660156 313.625 C 131.761719 313.730469 124.84375 313.882812 117.921875 313.925781 L 97.207031 314.15625 C 90.285156 314.15625 83.386719 314.15625 76.46875 314.15625 L 74.339844 314.15625 L 74.339844 312.03125 C 74.339844 299.578125 74.722656 287.125 75.085938 274.839844 Z M 76.660156 239.035156 L 78 276.074219 C 78.363281 288.167969 78.660156 300.085938 78.746094 312.007812 L 76.511719 309.878906 C 83.429688 309.773438 90.328125 309.878906 97.25 309.878906 L 117.964844 310.113281 C 124.882812 310.113281 131.78125 310.285156 138.703125 310.433594 C 145.621094 310.582031 152.519531 310.773438 159.417969 310.964844 L 158.246094 312.136719 C 158.394531 306.046875 158.609375 299.960938 158.671875 293.851562 C 158.738281 287.742188 158.800781 281.675781 158.671875 275.585938 C 158.671875 263.390625 158.035156 251.191406 157.714844 239.015625 L 159.355469 240.65625 C 152.542969 240.890625 145.769531 240.910156 138.980469 240.890625 C 132.1875 240.867188 125.394531 240.761719 118.539062 240.570312 C 111.683594 240.378906 104.808594 240.230469 97.84375 239.996094 Z M 76.660156 239.035156 " fill-opacity="1" fill-rule="nonzero"/><path fill="#000000" d="M 162.035156 231.011719 C 161.652344 230.199219 161.046875 229.613281 160.226562 229.246094 C 159.457031 228.855469 158.664062 228.53125 157.84375 228.265625 C 156.191406 227.757812 154.519531 227.351562 152.816406 227.050781 C 149.410156 226.433594 145.960938 226.074219 142.535156 225.796875 C 135.636719 225.242188 128.738281 225.074219 121.820312 225.136719 C 114.898438 225.199219 108.023438 225.519531 101.167969 226.199219 C 97.738281 226.5625 94.3125 227.011719 90.96875 227.691406 C 89.296875 228.015625 87.648438 228.441406 86.027344 228.96875 C 85.25 229.234375 84.496094 229.5625 83.773438 229.949219 C 83.125 230.25 82.617188 230.703125 82.238281 231.308594 L 80.832031 230.714844 C 81.894531 228.304688 82.703125 225.8125 83.261719 223.242188 C 83.371094 222.621094 83.449219 221.996094 83.496094 221.367188 C 83.527344 221.09375 83.527344 220.816406 83.496094 220.539062 C 83.511719 220.460938 83.511719 220.382812 83.496094 220.304688 C 83.496094 220.304688 83.496094 220.304688 83.621094 220.433594 C 83.777344 220.503906 83.933594 220.503906 84.089844 220.433594 C 84.324219 220.433594 83.984375 220.433594 83.855469 220.75 C 83.730469 221.070312 83.539062 221.242188 83.386719 221.519531 C 83.238281 221.792969 82.8125 222.644531 82.535156 223.242188 L 79.746094 229.289062 L 80.832031 222.710938 C 81.769531 217.152344 82.664062 211.621094 83.515625 206.0625 L 84.6875 197.742188 C 84.859375 196.355469 85.027344 194.972656 85.15625 193.484375 C 85.269531 192.171875 85.269531 190.859375 85.15625 189.546875 L 85.15625 189.203125 L 85.285156 188.90625 C 87.199219 184.648438 89.160156 180.625 91.328125 176.582031 C 92.4375 174.453125 93.585938 172.558594 94.84375 170.601562 C 96.109375 168.5625 97.609375 166.710938 99.335938 165.042969 L 99.1875 165.191406 C 105.152344 157.90625 111.730469 151.222656 118.921875 145.140625 C 125.96875 138.988281 133.273438 133.175781 140.660156 127.472656 L 140.53125 127.578125 C 144.246094 124.054688 147.609375 120.222656 150.625 116.085938 C 153.585938 111.984375 155.75 107.5 157.117188 102.632812 L 157.117188 103.714844 L 150.113281 85.558594 L 151.476562 86.730469 C 144.175781 85.214844 137.078125 83.039062 130.1875 80.195312 L 131.464844 80.195312 C 122.945312 83.132812 114.792969 86.390625 106.746094 90.113281 L 107.640625 89.242188 C 102.457031 100.347656 98.320312 111.828125 95.226562 123.683594 L 93.265625 121.214844 C 92.902344 121.222656 92.578125 121.335938 92.289062 121.554688 C 92.144531 121.660156 92.015625 121.78125 91.90625 121.917969 C 91.742188 122.128906 91.625 122.363281 91.542969 122.621094 C 91.367188 123.246094 91.480469 123.8125 91.882812 124.324219 C 92.121094 124.621094 92.417969 124.835938 92.777344 124.960938 L 91.925781 124.960938 L 90.671875 124.769531 L 88.113281 124.40625 L 83.113281 123.789062 L 72.828125 122.492188 L 52.238281 119.957031 L 31.652344 117.488281 C 24.816406 116.722656 17.875 115.871094 11.128906 115.359375 L 8.253906 115.0625 L 9.382812 112.421875 C 14.597656 100.140625 19.878906 87.859375 25.390625 75.703125 C 30.90625 63.546875 36.570312 51.414062 42.425781 39.367188 L 42.808594 38.644531 L 43.488281 38.324219 C 71.785156 25.871094 101.761719 17.613281 131.824219 10.777344 L 132.316406 10.777344 L 132.785156 10.925781 C 157.351562 18.230469 182.136719 24.828125 207.171875 30.234375 L 207.8125 30.363281 L 208.175781 30.851562 C 216.320312 41.476562 223.652344 52.640625 230.167969 64.335938 C 236.648438 76.074219 242.097656 88.269531 246.519531 100.929688 L 246.753906 101.589844 L 246.371094 102.140625 C 242.734375 107.046875 239.894531 112.375 237.855469 118.128906 C 236.875 120.984375 236.273438 123.917969 236.050781 126.929688 C 235.828125 129.941406 235.988281 132.933594 236.535156 135.902344 L 236.660156 136.648438 L 236.023438 137.050781 C 227.921875 142.257812 220.519531 148.316406 213.816406 155.230469 C 207.125 162.1875 200.953125 169.574219 195.292969 177.390625 L 195.164062 177.5625 L 194.972656 177.5625 C 188.417969 179.546875 182.40625 182.605469 176.941406 186.734375 C 174.261719 188.863281 172.132812 191.445312 170.554688 194.484375 C 169.039062 197.558594 168.230469 200.808594 168.125 204.234375 L 168.125 204.550781 L 167.808594 204.550781 C 166.574219 204.515625 165.464844 204.871094 164.484375 205.617188 C 163.476562 206.398438 162.769531 207.390625 162.355469 208.597656 C 161.53125 210.976562 161.121094 213.421875 161.121094 215.941406 C 161.035156 218.457031 161.101562 220.96875 161.3125 223.476562 C 161.527344 225.96875 161.824219 228.542969 162.035156 231.011719 Z M 162.035156 231.011719 C 161.695312 228.480469 161.335938 226.03125 161.101562 223.496094 C 160.839844 220.984375 160.71875 218.464844 160.738281 215.941406 C 160.753906 213.355469 161.183594 210.84375 162.035156 208.40625 C 162.441406 207.125 163.148438 206.046875 164.167969 205.167969 C 165.25 204.304688 166.484375 203.878906 167.871094 203.890625 L 167.53125 204.210938 C 167.53125 200.65625 168.277344 197.265625 169.765625 194.035156 C 171.308594 190.859375 173.4375 188.144531 176.152344 185.882812 C 181.675781 181.589844 187.773438 178.382812 194.441406 176.261719 L 194.121094 176.519531 C 199.722656 168.578125 205.847656 161.0625 212.496094 153.976562 C 219.183594 146.8125 226.628906 140.546875 234.832031 135.179688 L 234.339844 136.328125 C 233.730469 133.171875 233.527344 129.988281 233.734375 126.777344 C 233.9375 123.566406 234.546875 120.4375 235.554688 117.382812 C 237.632812 111.355469 240.558594 105.773438 244.324219 100.628906 L 244.15625 101.820312 C 239.660156 89.351562 234.152344 77.347656 227.632812 65.804688 C 221.046875 54.308594 213.65625 43.355469 205.46875 32.9375 L 206.472656 33.578125 C 181.242188 28.46875 156.351562 21.742188 131.71875 14.417969 L 132.675781 14.417969 C 102.742188 21.316406 73.0625 29.554688 45.066406 42.089844 L 46.066406 41.113281 C 34.546875 65.1875 23.644531 89.5625 13.191406 114.0625 L 11.425781 111.167969 C 18.453125 111.828125 25.242188 112.679688 32.140625 113.488281 L 52.730469 116 L 73.316406 118.617188 L 83.621094 119.957031 L 88.773438 120.660156 L 91.351562 121.042969 L 92.648438 121.234375 L 93.332031 121.34375 L 94.117188 121.34375 C 94.484375 121.476562 94.789062 121.699219 95.035156 122.003906 C 95.445312 122.515625 95.574219 123.089844 95.417969 123.726562 C 95.34375 123.992188 95.222656 124.230469 95.054688 124.449219 C 94.933594 124.59375 94.789062 124.714844 94.628906 124.8125 C 94.316406 125.027344 93.96875 125.148438 93.585938 125.171875 L 90.882812 125.28125 L 91.628906 122.703125 C 94.824219 110.632812 99.082031 98.945312 104.402344 87.644531 L 104.699219 87.070312 L 105.296875 86.792969 C 113.492188 83.027344 121.902344 79.769531 130.378906 76.808594 L 131.015625 76.597656 L 131.65625 76.832031 C 138.296875 79.597656 145.140625 81.726562 152.179688 83.21875 L 153.179688 83.410156 L 153.542969 84.386719 L 160.3125 102.441406 L 160.523438 103.015625 L 160.375 103.546875 C 158.859375 108.789062 156.480469 113.605469 153.242188 118 C 150.058594 122.273438 146.511719 126.21875 142.597656 129.835938 C 135.1875 135.457031 127.863281 141.160156 120.816406 147.183594 C 113.699219 153.089844 107.167969 159.589844 101.230469 166.683594 C 99.65625 168.1875 98.285156 169.863281 97.121094 171.707031 C 95.886719 173.578125 94.757812 175.515625 93.652344 177.496094 C 91.523438 181.457031 89.390625 185.523438 87.539062 189.628906 L 87.539062 188.992188 C 87.632812 190.488281 87.582031 191.976562 87.390625 193.460938 C 87.261719 194.886719 87.070312 196.292969 86.878906 197.71875 C 86.496094 200.507812 86.070312 203.296875 85.601562 206.0625 C 84.664062 211.621094 83.664062 217.152344 82.644531 222.6875 L 80.960938 222.15625 C 81.257812 221.539062 81.558594 220.941406 81.917969 220.324219 C 82.089844 220.003906 82.289062 219.699219 82.515625 219.410156 C 82.816406 218.945312 83.230469 218.621094 83.75 218.429688 C 84.101562 218.351562 84.421875 218.421875 84.707031 218.644531 C 84.890625 218.785156 85.023438 218.964844 85.113281 219.175781 C 85.210938 219.410156 85.265625 219.648438 85.285156 219.898438 C 85.316406 220.285156 85.316406 220.667969 85.285156 221.050781 C 85.230469 221.765625 85.132812 222.476562 84.984375 223.179688 C 84.410156 225.847656 83.574219 228.429688 82.472656 230.925781 L 81.066406 230.332031 C 81.570312 229.367188 82.316406 228.65625 83.304688 228.203125 C 84.109375 227.777344 84.945312 227.429688 85.816406 227.160156 C 87.496094 226.625 89.207031 226.207031 90.945312 225.902344 C 94.375 225.265625 97.824219 224.882812 101.292969 224.582031 C 108.191406 223.988281 115.132812 223.796875 122.050781 223.839844 C 128.972656 223.878906 135.914062 224.179688 142.8125 224.882812 C 146.261719 225.242188 149.6875 225.691406 153.09375 226.394531 C 154.792969 226.71875 156.460938 227.15625 158.097656 227.710938 C 158.921875 227.992188 159.71875 228.339844 160.484375 228.753906 C 161.300781 229.300781 161.816406 230.054688 162.035156 231.011719 Z M 162.035156 231.011719 " fill-opacity="1" fill-rule="nonzero"/><g clip-path="url(#d3459617a7)"><path fill="#000000" d="M 79.109375 245.914062 C 80.832031 246.472656 82.597656 246.765625 84.410156 246.785156 C 86.199219 246.914062 88.007812 246.976562 89.796875 247.019531 C 93.394531 247.148438 97.015625 247.210938 100.613281 247.234375 C 107.808594 247.234375 115.027344 247.234375 122.222656 247.019531 C 129.417969 246.808594 136.636719 246.742188 143.8125 246.421875 C 147.410156 246.273438 151.007812 246.082031 154.457031 245.828125 C 156.246094 245.679688 158.035156 245.550781 159.78125 245.339844 C 160.675781 245.339844 161.527344 245.105469 162.378906 244.976562 C 162.78125 244.976562 163.230469 244.847656 163.570312 244.742188 L 164.082031 244.59375 C 164.207031 244.59375 164.082031 244.59375 164.082031 244.59375 L 166.335938 247.148438 C 166.335938 247.148438 166.488281 247.148438 166.464844 247.148438 L 166.335938 247.550781 C 166.246094 247.878906 166.175781 248.214844 166.125 248.550781 C 165.996094 249.253906 165.871094 250.019531 165.804688 250.679688 C 165.636719 252.214844 165.507812 253.789062 165.378906 255.34375 C 165.144531 258.492188 165.019531 261.730469 164.910156 264.816406 C 164.699219 271.203125 164.632812 277.585938 164.675781 283.972656 C 164.71875 290.359375 164.824219 296.746094 165.082031 303.003906 C 165.230469 306.175781 165.402344 309.390625 165.65625 312.476562 C 165.785156 314.03125 165.910156 315.605469 166.125 317.117188 C 166.125 317.882812 166.359375 318.628906 166.488281 319.246094 C 166.488281 319.542969 166.636719 319.992188 166.722656 320.183594 L 166.847656 320.542969 C 166.847656 320.542969 166.847656 320.332031 166.613281 320.308594 L 163.804688 323.503906 C 163.804688 323.503906 164.015625 323.671875 163.933594 323.628906 L 163.441406 323.503906 C 163.144531 323.503906 162.675781 323.375 162.292969 323.289062 C 161.460938 323.164062 160.609375 323.054688 159.714844 322.972656 C 157.96875 322.78125 156.203125 322.652344 154.414062 322.523438 C 150.859375 322.3125 147.261719 322.140625 143.769531 322.035156 C 136.617188 321.757812 129.417969 321.757812 122.222656 321.757812 C 115.027344 321.757812 107.832031 321.757812 100.632812 321.949219 L 89.988281 322.3125 C 88.199219 322.3125 86.410156 322.480469 84.664062 322.628906 C 83.773438 322.628906 82.921875 322.800781 82.070312 322.90625 C 81.664062 322.90625 81.195312 323.035156 80.855469 323.121094 L 80.324219 323.246094 C 80.195312 323.246094 80.324219 323.246094 80.324219 323.246094 L 78.195312 320.90625 C 78.195312 320.90625 78.085938 320.90625 78.195312 320.90625 L 78.320312 320.5 C 78.433594 320.167969 78.527344 319.824219 78.597656 319.480469 C 78.753906 318.757812 78.882812 318.011719 78.980469 317.246094 C 79.214844 315.710938 79.363281 314.136719 79.511719 312.5625 C 79.8125 309.433594 80.003906 306.175781 80.171875 303.089844 C 80.515625 296.703125 80.640625 290.316406 80.8125 283.929688 C 80.984375 277.542969 81.003906 271.160156 80.917969 264.773438 C 80.917969 261.601562 80.792969 258.386719 80.640625 255.234375 C 80.640625 253.640625 80.472656 252.042969 80.324219 250.46875 C 80.203125 248.875 79.796875 247.355469 79.109375 245.914062 Z M 79.109375 245.914062 C 79.839844 247.355469 80.277344 248.878906 80.429688 250.488281 C 80.683594 252.066406 80.875 253.660156 81.046875 255.234375 C 81.386719 258.429688 81.601562 261.621094 81.8125 264.792969 C 82.195312 271.179688 82.429688 277.566406 82.578125 283.953125 C 82.726562 290.339844 82.578125 296.722656 82.578125 303.109375 C 82.578125 306.304688 82.386719 309.496094 82.195312 312.730469 C 82.089844 314.328125 81.984375 315.945312 81.769531 317.5625 C 81.769531 318.371094 81.578125 319.203125 81.429688 320.035156 C 81.347656 320.480469 81.242188 320.917969 81.109375 321.351562 L 80.875 322.078125 C 80.6875 322.460938 80.453125 322.816406 80.171875 323.140625 L 78.042969 320.800781 C 78.398438 320.539062 78.78125 320.335938 79.195312 320.183594 L 79.980469 319.96875 C 80.515625 319.820312 80.941406 319.777344 81.429688 319.671875 L 84.199219 319.289062 C 86.027344 319.074219 87.839844 318.949219 89.648438 318.796875 C 93.289062 318.523438 96.910156 318.351562 100.507812 318.246094 C 107.746094 317.988281 114.984375 317.882812 122.203125 317.839844 C 129.417969 317.796875 136.660156 317.839844 143.898438 318.03125 C 147.515625 318.03125 151.136719 318.246094 154.777344 318.4375 C 156.585938 318.542969 158.394531 318.648438 160.25 318.839844 C 161.164062 318.839844 162.101562 319.03125 163.058594 319.160156 C 163.546875 319.265625 163.996094 319.308594 164.550781 319.4375 L 165.378906 319.671875 C 165.867188 319.828125 166.3125 320.0625 166.722656 320.375 L 163.910156 323.566406 C 163.566406 323.1875 163.285156 322.769531 163.058594 322.3125 L 162.78125 321.523438 C 162.652344 321.074219 162.546875 320.621094 162.460938 320.160156 C 162.292969 319.289062 162.164062 318.457031 162.058594 317.648438 C 161.84375 316.011719 161.71875 314.390625 161.609375 312.773438 C 161.375 309.558594 161.226562 306.386719 161.121094 303.152344 C 160.910156 296.765625 160.867188 290.382812 160.886719 283.996094 C 160.910156 277.609375 161.035156 271.222656 161.3125 264.835938 C 161.441406 261.621094 161.609375 258.449219 161.867188 255.214844 C 162.015625 253.597656 162.144531 252 162.398438 250.363281 C 162.398438 249.554688 162.65625 248.742188 162.824219 247.890625 C 162.953125 247.445312 162.996094 247.0625 163.164062 246.550781 L 163.441406 245.828125 C 163.632812 245.421875 163.882812 245.050781 164.1875 244.71875 L 166.445312 247.273438 C 166.070312 247.539062 165.664062 247.746094 165.230469 247.890625 L 164.441406 248.105469 C 163.910156 248.234375 163.464844 248.277344 162.972656 248.359375 C 162.035156 248.359375 161.121094 248.59375 160.207031 248.660156 C 158.375 248.808594 156.542969 248.914062 154.734375 249 C 151.113281 249.148438 147.496094 249.234375 143.875 249.296875 C 136.636719 249.296875 129.417969 249.296875 122.203125 249.296875 C 114.984375 249.296875 107.765625 248.894531 100.550781 248.507812 C 96.949219 248.316406 93.332031 248.105469 89.734375 247.808594 C 87.945312 247.636719 86.136719 247.464844 84.347656 247.234375 C 82.53125 247.0625 80.785156 246.621094 79.109375 245.914062 Z M 79.109375 245.914062 " fill-opacity="1" fill-rule="nonzero"/></g></svg>
