<svg xmlns="http://www.w3.org/2000/svg" xmlns:xlink="http://www.w3.org/1999/xlink" width="121" zoomAndPan="magnify" viewBox="0 0 90.75 90.749999" height="121" preserveAspectRatio="xMidYMid meet" version="1.0"><defs><clipPath id="58b0645ccc"><path d="M 0 0 L 90.253906 0 L 90.253906 90.253906 L 0 90.253906 Z M 0 0 " clip-rule="nonzero"/></clipPath><clipPath id="0a1f3b117f"><path d="M 45.128906 0 C 20.203125 0 0 20.203125 0 45.128906 C 0 70.050781 20.203125 90.253906 45.128906 90.253906 C 70.050781 90.253906 90.253906 70.050781 90.253906 45.128906 C 90.253906 20.203125 70.050781 0 45.128906 0 Z M 45.128906 0 " clip-rule="nonzero"/></clipPath><clipPath id="15bb59f63b"><path d="M 0 0 L 90.253906 0 L 90.253906 90.253906 L 0 90.253906 Z M 0 0 " clip-rule="nonzero"/></clipPath><clipPath id="56c0c8d1a6"><path d="M 45.128906 0 C 20.203125 0 0 20.203125 0 45.128906 C 0 70.050781 20.203125 90.253906 45.128906 90.253906 C 70.050781 90.253906 90.253906 70.050781 90.253906 45.128906 C 90.253906 20.203125 70.050781 0 45.128906 0 Z M 45.128906 0 " clip-rule="nonzero"/></clipPath><clipPath id="5834b69962"><rect x="0" width="91" y="0" height="91"/></clipPath><clipPath id="5721bbe4dc"><path d="M 17.71875 17.71875 L 72.316406 17.71875 L 72.316406 72.316406 L 17.71875 72.316406 Z M 17.71875 17.71875 " clip-rule="nonzero"/></clipPath></defs><g clip-path="url(#58b0645ccc)"><g clip-path="url(#0a1f3b117f)"><g transform="matrix(1, 0, 0, 1, 0, -0.000000000000001434)"><g clip-path="url(#5834b69962)"><g clip-path="url(#15bb59f63b)"><g clip-path="url(#56c0c8d1a6)"><path fill="#ffffff" d="M 0 0 L 90.253906 0 L 90.253906 90.253906 L 0 90.253906 Z M 0 0 " fill-opacity="1" fill-rule="nonzero"/></g></g></g></g></g></g><g clip-path="url(#5721bbe4dc)"><path fill="#7f7f7f" d="M 45.121094 17.71875 C 44.222656 17.71875 43.328125 17.761719 42.4375 17.847656 C 41.542969 17.9375 40.65625 18.070312 39.777344 18.242188 C 38.894531 18.417969 38.027344 18.636719 37.167969 18.898438 C 36.308594 19.15625 35.464844 19.460938 34.632812 19.804688 C 33.804688 20.144531 32.996094 20.53125 32.203125 20.953125 C 31.410156 21.375 30.644531 21.835938 29.898438 22.335938 C 29.148438 22.835938 28.429688 23.367188 27.738281 23.9375 C 27.042969 24.507812 26.378906 25.109375 25.742188 25.742188 C 25.109375 26.378906 24.507812 27.042969 23.9375 27.738281 C 23.367188 28.429688 22.835938 29.148438 22.335938 29.898438 C 21.835938 30.644531 21.375 31.410156 20.953125 32.203125 C 20.53125 32.996094 20.144531 33.804688 19.804688 34.632812 C 19.460938 35.464844 19.15625 36.308594 18.898438 37.167969 C 18.636719 38.027344 18.417969 38.894531 18.242188 39.777344 C 18.070312 40.65625 17.9375 41.542969 17.847656 42.4375 C 17.761719 43.328125 17.71875 44.222656 17.71875 45.121094 C 17.71875 46.019531 17.761719 46.914062 17.847656 47.808594 C 17.9375 48.703125 18.070312 49.589844 18.242188 50.46875 C 18.417969 51.347656 18.636719 52.21875 18.898438 53.078125 C 19.15625 53.9375 19.460938 54.78125 19.804688 55.609375 C 20.144531 56.4375 20.53125 57.25 20.953125 58.039062 C 21.375 58.832031 21.835938 59.601562 22.335938 60.347656 C 22.835938 61.09375 23.367188 61.8125 23.9375 62.507812 C 24.507812 63.203125 25.109375 63.867188 25.742188 64.5 C 26.378906 65.136719 27.042969 65.738281 27.738281 66.304688 C 28.429688 66.875 29.148438 67.410156 29.898438 67.910156 C 30.644531 68.40625 31.410156 68.867188 32.203125 69.289062 C 32.996094 69.714844 33.804688 70.097656 34.632812 70.441406 C 35.464844 70.785156 36.308594 71.085938 37.167969 71.347656 C 38.027344 71.605469 38.894531 71.824219 39.777344 72 C 40.65625 72.175781 41.542969 72.308594 42.4375 72.394531 C 43.328125 72.484375 44.222656 72.527344 45.121094 72.527344 C 46.019531 72.527344 46.914062 72.484375 47.808594 72.394531 C 48.703125 72.308594 49.589844 72.175781 50.46875 72 C 51.347656 71.824219 52.21875 71.605469 53.078125 71.347656 C 53.9375 71.085938 54.78125 70.785156 55.609375 70.441406 C 56.4375 70.097656 57.25 69.714844 58.039062 69.289062 C 58.832031 68.867188 59.601562 68.40625 60.347656 67.910156 C 61.09375 67.410156 61.8125 66.875 62.507812 66.304688 C 63.203125 65.738281 63.867188 65.136719 64.5 64.5 C 65.136719 63.867188 65.738281 63.203125 66.304688 62.507812 C 66.875 61.8125 67.410156 61.09375 67.910156 60.347656 C 68.40625 59.601562 68.867188 58.832031 69.289062 58.039062 C 69.714844 57.25 70.097656 56.4375 70.441406 55.609375 C 70.785156 54.78125 71.085938 53.9375 71.347656 53.078125 C 71.605469 52.21875 71.824219 51.347656 72 50.46875 C 72.175781 49.589844 72.308594 48.703125 72.394531 47.808594 C 72.484375 46.914062 72.527344 46.019531 72.527344 45.121094 C 72.527344 44.222656 72.480469 43.328125 72.390625 42.4375 C 72.304688 41.542969 72.171875 40.65625 71.996094 39.777344 C 71.820312 38.898438 71.601562 38.027344 71.339844 37.167969 C 71.078125 36.3125 70.777344 35.46875 70.433594 34.636719 C 70.089844 33.808594 69.707031 33 69.285156 32.207031 C 68.859375 31.417969 68.398438 30.648438 67.898438 29.902344 C 67.402344 29.15625 66.867188 28.4375 66.296875 27.742188 C 65.730469 27.050781 65.128906 26.386719 64.492188 25.75 C 63.859375 25.117188 63.195312 24.515625 62.5 23.945312 C 61.808594 23.375 61.085938 22.84375 60.339844 22.34375 C 59.59375 21.84375 58.828125 21.382812 58.035156 20.960938 C 57.246094 20.539062 56.433594 20.152344 55.605469 19.808594 C 54.777344 19.464844 53.933594 19.164062 53.074219 18.902344 C 52.214844 18.640625 51.347656 18.421875 50.464844 18.246094 C 49.585938 18.070312 48.699219 17.941406 47.808594 17.851562 C 46.914062 17.761719 46.019531 17.71875 45.121094 17.71875 Z M 45.121094 69.917969 C 44.308594 69.917969 43.5 69.878906 42.691406 69.796875 C 41.882812 69.71875 41.082031 69.597656 40.285156 69.441406 C 39.488281 69.28125 38.703125 69.085938 37.925781 68.847656 C 37.148438 68.613281 36.382812 68.339844 35.632812 68.03125 C 34.882812 67.71875 34.148438 67.371094 33.433594 66.988281 C 32.71875 66.605469 32.023438 66.1875 31.347656 65.738281 C 30.671875 65.285156 30.019531 64.804688 29.390625 64.289062 C 28.765625 63.773438 28.164062 63.230469 27.589844 62.65625 C 27.015625 62.082031 26.46875 61.480469 25.957031 60.851562 C 25.441406 60.222656 24.957031 59.574219 24.503906 58.898438 C 24.054688 58.222656 23.636719 57.527344 23.253906 56.808594 C 22.871094 56.09375 22.523438 55.359375 22.214844 54.609375 C 21.902344 53.859375 21.628906 53.097656 21.394531 52.320312 C 21.160156 51.542969 20.960938 50.753906 20.804688 49.960938 C 20.644531 49.164062 20.527344 48.359375 20.445312 47.550781 C 20.367188 46.742188 20.328125 45.933594 20.328125 45.121094 C 20.328125 44.308594 20.367188 43.5 20.445312 42.691406 C 20.527344 41.882812 20.644531 41.082031 20.804688 40.285156 C 20.960938 39.488281 21.160156 38.703125 21.394531 37.925781 C 21.628906 37.148438 21.902344 36.382812 22.214844 35.632812 C 22.523438 34.882812 22.871094 34.148438 23.253906 33.433594 C 23.636719 32.71875 24.054688 32.023438 24.503906 31.347656 C 24.957031 30.671875 25.441406 30.019531 25.957031 29.390625 C 26.46875 28.765625 27.015625 28.164062 27.589844 27.589844 C 28.164062 27.015625 28.765625 26.46875 29.390625 25.957031 C 30.019531 25.441406 30.671875 24.957031 31.347656 24.503906 C 32.023438 24.054688 32.71875 23.636719 33.433594 23.253906 C 34.148438 22.871094 34.882812 22.523438 35.632812 22.214844 C 36.382812 21.902344 37.148438 21.628906 37.925781 21.394531 C 38.703125 21.160156 39.488281 20.960938 40.285156 20.804688 C 41.082031 20.644531 41.882812 20.527344 42.691406 20.445312 C 43.5 20.367188 44.308594 20.328125 45.121094 20.328125 C 45.933594 20.328125 46.742188 20.367188 47.550781 20.445312 C 48.359375 20.527344 49.164062 20.644531 49.960938 20.804688 C 50.753906 20.960938 51.542969 21.160156 52.320312 21.394531 C 53.097656 21.628906 53.859375 21.902344 54.609375 22.214844 C 55.359375 22.523438 56.09375 22.871094 56.808594 23.253906 C 57.527344 23.636719 58.222656 24.054688 58.898438 24.503906 C 59.574219 24.957031 60.222656 25.441406 60.851562 25.957031 C 61.480469 26.46875 62.082031 27.015625 62.65625 27.589844 C 63.230469 28.164062 63.773438 28.765625 64.289062 29.390625 C 64.804688 30.019531 65.285156 30.671875 65.738281 31.347656 C 66.1875 32.023438 66.605469 32.71875 66.988281 33.433594 C 67.371094 34.148438 67.71875 34.882812 68.03125 35.632812 C 68.339844 36.382812 68.613281 37.148438 68.847656 37.925781 C 69.085938 38.703125 69.28125 39.488281 69.441406 40.285156 C 69.597656 41.082031 69.71875 41.882812 69.796875 42.691406 C 69.878906 43.5 69.917969 44.308594 69.917969 45.121094 C 69.914062 45.933594 69.875 46.742188 69.796875 47.550781 C 69.714844 48.359375 69.59375 49.160156 69.4375 49.957031 C 69.277344 50.753906 69.078125 51.539062 68.84375 52.316406 C 68.605469 53.09375 68.332031 53.855469 68.023438 54.605469 C 67.710938 55.355469 67.363281 56.089844 66.980469 56.804688 C 66.597656 57.519531 66.179688 58.214844 65.730469 58.890625 C 65.277344 59.566406 64.796875 60.21875 64.28125 60.84375 C 63.765625 61.472656 63.222656 62.074219 62.648438 62.648438 C 62.074219 63.222656 61.472656 63.765625 60.84375 64.28125 C 60.21875 64.796875 59.566406 65.277344 58.890625 65.730469 C 58.214844 66.179688 57.519531 66.597656 56.804688 66.980469 C 56.089844 67.363281 55.355469 67.710938 54.605469 68.023438 C 53.855469 68.332031 53.09375 68.605469 52.316406 68.84375 C 51.539062 69.078125 50.753906 69.277344 49.957031 69.4375 C 49.160156 69.59375 48.359375 69.714844 47.550781 69.796875 C 46.742188 69.875 45.933594 69.914062 45.121094 69.917969 Z M 45.121094 69.917969 " fill-opacity="1" fill-rule="nonzero"/></g><path fill="#7f7f7f" d="M 43.816406 37.292969 L 42.511719 38.597656 L 42.511719 63.390625 L 43.816406 64.695312 L 46.425781 64.695312 L 47.730469 63.390625 L 47.730469 38.597656 L 46.425781 37.292969 Z M 43.816406 37.292969 " fill-opacity="1" fill-rule="nonzero"/><path fill="#7f7f7f" d="M 49.035156 30.765625 C 49.035156 31.285156 48.9375 31.785156 48.738281 32.265625 C 48.539062 32.746094 48.257812 33.167969 47.890625 33.535156 C 47.523438 33.902344 47.101562 34.183594 46.621094 34.382812 C 46.140625 34.582031 45.640625 34.683594 45.121094 34.683594 C 44.601562 34.683594 44.101562 34.582031 43.625 34.382812 C 43.144531 34.183594 42.71875 33.902344 42.355469 33.535156 C 41.988281 33.167969 41.703125 32.746094 41.503906 32.265625 C 41.304688 31.785156 41.207031 31.285156 41.207031 30.765625 C 41.207031 30.246094 41.304688 29.75 41.503906 29.269531 C 41.703125 28.789062 41.988281 28.367188 42.355469 28 C 42.71875 27.632812 43.144531 27.347656 43.625 27.148438 C 44.101562 26.953125 44.601562 26.851562 45.121094 26.851562 C 45.640625 26.851562 46.140625 26.953125 46.621094 27.148438 C 47.101562 27.347656 47.523438 27.632812 47.890625 28 C 48.257812 28.367188 48.539062 28.789062 48.738281 29.269531 C 48.9375 29.75 49.035156 30.246094 49.035156 30.765625 Z M 49.035156 30.765625 " fill-opacity="1" fill-rule="nonzero"/></svg>