<?xml version="1.0" encoding="UTF-8"?>
<svg xmlns="http://www.w3.org/2000/svg" xmlns:xlink="http://www.w3.org/1999/xlink" width="28px" height="28px" viewBox="0 0 28 26" version="1.1">
<defs>
<clipPath id="clip1">
  <path d="M 6.304688 5.703125 L 21.566406 5.703125 L 21.566406 20.207031 L 6.304688 20.207031 Z M 6.304688 5.703125 "/>
</clipPath>
<clipPath id="clip2">
  <path d="M 0 0.0546875 L 27.796875 0.0546875 L 27.796875 25.824219 L 0 25.824219 Z M 0 0.0546875 "/>
</clipPath>
</defs>
<g id="surface1">
<g clip-path="url(#clip1)" clip-rule="nonzero">
<path style=" stroke:none;fill-rule:nonzero;fill:rgb(96.078432%,76.862746%,0%);fill-opacity:1;" d="M 17.957031 14.839844 C 17.894531 14.898438 17.867188 14.984375 17.878906 15.070312 L 18.699219 19.804688 C 18.734375 20.019531 18.511719 20.179688 18.316406 20.082031 L 14.035156 17.84375 C 13.957031 17.804688 13.867188 17.804688 13.789062 17.84375 L 9.507812 20.082031 C 9.3125 20.179688 9.089844 20.019531 9.125 19.804688 L 9.945312 15.070312 C 9.957031 14.984375 9.929688 14.898438 9.867188 14.839844 L 6.402344 11.484375 C 6.246094 11.332031 6.332031 11.070312 6.550781 11.039062 L 11.335938 10.347656 C 11.421875 10.335938 11.496094 10.28125 11.535156 10.207031 L 13.675781 5.898438 C 13.773438 5.703125 14.050781 5.703125 14.148438 5.898438 L 16.289062 10.207031 C 16.328125 10.28125 16.402344 10.335938 16.488281 10.347656 L 21.273438 11.039062 C 21.492188 11.070312 21.578125 11.332031 21.421875 11.484375 Z M 17.957031 14.839844 "/>
</g>
<path style=" stroke:none;fill-rule:nonzero;fill:rgb(100%,80.392158%,14.509805%);fill-opacity:1;" d="M 26.039062 21.691406 L 0.542969 25.363281 L 0.542969 1.449219 C 0.550781 1.382812 0.558594 1.324219 0.578125 1.261719 C 0.59375 1.203125 0.617188 1.144531 0.644531 1.085938 C 0.675781 1.03125 0.710938 0.976562 0.75 0.929688 C 0.789062 0.878906 0.832031 0.832031 0.878906 0.792969 C 0.929688 0.75 0.980469 0.714844 1.035156 0.683594 C 1.089844 0.652344 1.148438 0.625 1.210938 0.609375 C 1.269531 0.585938 1.332031 0.574219 1.394531 0.566406 C 1.457031 0.558594 1.519531 0.558594 1.585938 0.5625 L 10.429688 0.5625 C 10.492188 0.558594 10.554688 0.558594 10.621094 0.566406 C 10.683594 0.574219 10.746094 0.585938 10.804688 0.609375 C 10.863281 0.628906 10.921875 0.652344 10.980469 0.683594 C 11.035156 0.714844 11.085938 0.75 11.132812 0.792969 C 11.183594 0.832031 11.226562 0.878906 11.265625 0.929688 C 11.304688 0.976562 11.339844 1.03125 11.367188 1.085938 C 11.394531 1.144531 11.417969 1.203125 11.4375 1.261719 C 11.453125 1.324219 11.464844 1.382812 11.46875 1.449219 L 11.46875 3.21875 L 25.507812 3.21875 C 25.570312 3.214844 25.632812 3.222656 25.695312 3.242188 C 25.757812 3.261719 25.8125 3.292969 25.863281 3.335938 C 25.910156 3.378906 25.949219 3.429688 25.976562 3.488281 C 26.007812 3.546875 26.023438 3.605469 26.027344 3.671875 Z M 26.039062 21.691406 "/>
<path style=" stroke:none;fill-rule:nonzero;fill:rgb(95.294118%,38.431373%,33.725491%);fill-opacity:1;" d="M 20.011719 24.445312 L 3.324219 24.445312 C 3.265625 24.445312 3.203125 24.441406 3.144531 24.429688 C 3.085938 24.417969 3.027344 24.398438 2.96875 24.375 C 2.914062 24.351562 2.859375 24.324219 2.808594 24.292969 C 2.757812 24.257812 2.710938 24.21875 2.667969 24.175781 C 2.625 24.132812 2.589844 24.085938 2.554688 24.039062 C 2.519531 23.988281 2.492188 23.933594 2.46875 23.878906 C 2.445312 23.824219 2.429688 23.765625 2.417969 23.707031 C 2.402344 23.648438 2.398438 23.585938 2.398438 23.527344 L 2.398438 8.828125 L 6.570312 5.15625 L 19.085938 5.15625 C 19.144531 5.15625 19.207031 5.160156 19.265625 5.171875 C 19.324219 5.183594 19.382812 5.203125 19.4375 5.222656 C 19.496094 5.246094 19.550781 5.277344 19.601562 5.308594 C 19.648438 5.34375 19.695312 5.382812 19.738281 5.421875 C 19.785156 5.464844 19.820312 5.511719 19.855469 5.5625 C 19.890625 5.613281 19.917969 5.667969 19.941406 5.722656 C 19.964844 5.777344 19.980469 5.835938 19.992188 5.894531 C 20.003906 5.953125 20.011719 6.011719 20.011719 6.074219 Z M 20.011719 24.445312 "/>
<path style=" stroke:none;fill-rule:nonzero;fill:rgb(78.431374%,27.450982%,27.058825%);fill-opacity:1;" d="M 6.570312 5.15625 L 6.570312 7.910156 C 6.570312 7.972656 6.5625 8.03125 6.550781 8.089844 C 6.539062 8.148438 6.523438 8.207031 6.5 8.261719 C 6.476562 8.316406 6.449219 8.371094 6.414062 8.421875 C 6.378906 8.472656 6.339844 8.515625 6.296875 8.558594 C 6.253906 8.601562 6.207031 8.640625 6.15625 8.675781 C 6.105469 8.707031 6.054688 8.734375 5.996094 8.757812 C 5.941406 8.78125 5.882812 8.800781 5.824219 8.8125 C 5.765625 8.824219 5.703125 8.828125 5.644531 8.828125 L 2.398438 8.828125 Z M 6.570312 5.15625 "/>
<path style=" stroke:none;fill-rule:nonzero;fill:rgb(35.686275%,79.607844%,98.039216%);fill-opacity:1;" d="M 6.570312 23.070312 L 6.570312 11.125 L 10.742188 7.449219 L 23.257812 7.449219 C 23.316406 7.449219 23.378906 7.457031 23.4375 7.46875 C 23.496094 7.480469 23.554688 7.5 23.609375 7.519531 C 23.667969 7.542969 23.722656 7.574219 23.769531 7.605469 C 23.820312 7.640625 23.867188 7.675781 23.910156 7.71875 C 23.953125 7.761719 23.992188 7.808594 24.027344 7.859375 C 24.0625 7.910156 24.089844 7.960938 24.113281 8.019531 C 24.136719 8.074219 24.152344 8.132812 24.164062 8.191406 C 24.175781 8.25 24.183594 8.308594 24.183594 8.371094 L 24.183594 22.148438 Z M 6.570312 23.070312 "/>
<path style=" stroke:none;fill-rule:nonzero;fill:rgb(21.568628%,50.196081%,91.764706%);fill-opacity:1;" d="M 10.742188 7.449219 L 10.742188 10.207031 C 10.742188 10.265625 10.734375 10.328125 10.722656 10.386719 C 10.710938 10.445312 10.695312 10.503906 10.671875 10.558594 C 10.648438 10.613281 10.617188 10.667969 10.585938 10.71875 C 10.550781 10.765625 10.511719 10.8125 10.46875 10.855469 C 10.425781 10.898438 10.378906 10.9375 10.328125 10.96875 C 10.277344 11.003906 10.226562 11.03125 10.167969 11.054688 C 10.113281 11.078125 10.054688 11.097656 9.996094 11.109375 C 9.9375 11.121094 9.875 11.125 9.8125 11.125 L 6.570312 11.125 Z M 10.742188 7.449219 "/>
<path style=" stroke:none;fill-rule:nonzero;fill:rgb(100%,89.411765%,39.215687%);fill-opacity:1;" d="M 25.695312 25.363281 L 0.542969 25.363281 L 2.644531 14.691406 C 2.664062 14.628906 2.6875 14.570312 2.714844 14.511719 C 2.742188 14.453125 2.773438 14.398438 2.808594 14.347656 C 2.847656 14.292969 2.890625 14.246094 2.933594 14.199219 C 2.980469 14.152344 3.03125 14.113281 3.082031 14.078125 C 3.136719 14.039062 3.191406 14.007812 3.25 13.980469 C 3.308594 13.953125 3.367188 13.933594 3.429688 13.914062 C 3.492188 13.898438 3.558594 13.886719 3.621094 13.882812 C 3.6875 13.875 3.75 13.875 3.8125 13.882812 L 26.132812 13.882812 C 26.839844 13.882812 27.386719 14.363281 27.300781 14.910156 Z M 25.695312 25.363281 "/>
<g clip-path="url(#clip2)" clip-rule="nonzero">
<path style=" stroke:none;fill-rule:nonzero;fill:rgb(0%,0%,0%);fill-opacity:1;" d="M 22.328125 10.207031 L 12.59375 10.207031 L 12.59375 11.125 L 22.328125 11.125 Z M 27.761719 14.980469 L 26.152344 25.433594 C 26.144531 25.488281 26.125 25.539062 26.101562 25.585938 C 26.074219 25.632812 26.039062 25.675781 25.996094 25.710938 C 25.953125 25.746094 25.90625 25.777344 25.855469 25.796875 C 25.804688 25.8125 25.75 25.824219 25.695312 25.824219 L 1.472656 25.824219 C 1.378906 25.824219 1.289062 25.816406 1.199219 25.796875 C 1.109375 25.78125 1.023438 25.753906 0.9375 25.71875 C 0.855469 25.683594 0.773438 25.640625 0.699219 25.59375 C 0.621094 25.542969 0.550781 25.484375 0.488281 25.421875 C 0.421875 25.355469 0.367188 25.289062 0.316406 25.210938 C 0.265625 25.136719 0.222656 25.058594 0.1875 24.972656 C 0.152344 24.890625 0.125 24.804688 0.105469 24.714844 C 0.0898438 24.625 0.0820312 24.535156 0.0820312 24.445312 L 0.0820312 1.449219 C 0.0859375 1.355469 0.101562 1.261719 0.125 1.171875 C 0.144531 1.082031 0.179688 0.996094 0.21875 0.910156 C 0.257812 0.828125 0.308594 0.75 0.363281 0.675781 C 0.417969 0.597656 0.480469 0.53125 0.550781 0.46875 C 0.621094 0.40625 0.695312 0.351562 0.777344 0.304688 C 0.855469 0.253906 0.941406 0.214844 1.03125 0.183594 C 1.117188 0.152344 1.210938 0.128906 1.300781 0.117188 C 1.394531 0.101562 1.488281 0.0976562 1.582031 0.101562 L 10.429688 0.101562 C 10.523438 0.0976562 10.617188 0.101562 10.710938 0.117188 C 10.804688 0.128906 10.894531 0.152344 10.984375 0.183594 C 11.070312 0.214844 11.15625 0.253906 11.234375 0.304688 C 11.316406 0.351562 11.390625 0.40625 11.460938 0.46875 C 11.53125 0.53125 11.59375 0.597656 11.648438 0.675781 C 11.707031 0.75 11.753906 0.828125 11.792969 0.910156 C 11.835938 0.996094 11.867188 1.082031 11.890625 1.171875 C 11.914062 1.261719 11.925781 1.355469 11.933594 1.449219 L 11.933594 2.761719 L 25.503906 2.761719 C 25.640625 2.757812 25.773438 2.785156 25.898438 2.835938 C 26.027344 2.886719 26.140625 2.960938 26.238281 3.054688 C 26.320312 3.140625 26.382812 3.234375 26.425781 3.34375 C 26.472656 3.449219 26.492188 3.5625 26.492188 3.679688 L 26.496094 13.457031 C 26.683594 13.492188 26.859375 13.550781 27.023438 13.644531 C 27.1875 13.734375 27.332031 13.847656 27.460938 13.988281 C 27.582031 14.121094 27.667969 14.277344 27.722656 14.449219 C 27.773438 14.625 27.789062 14.800781 27.761719 14.980469 Z M 1.007812 20.628906 L 1.933594 15.917969 L 1.933594 8.828125 C 1.933594 8.691406 1.984375 8.574219 2.09375 8.484375 L 6.265625 4.808594 C 6.351562 4.734375 6.453125 4.695312 6.570312 4.695312 L 19.085938 4.695312 C 19.175781 4.695312 19.265625 4.703125 19.355469 4.722656 C 19.445312 4.738281 19.53125 4.765625 19.617188 4.800781 C 19.699219 4.835938 19.78125 4.878906 19.855469 4.929688 C 19.933594 4.980469 20 5.035156 20.066406 5.101562 C 20.132812 5.164062 20.1875 5.234375 20.238281 5.308594 C 20.289062 5.382812 20.332031 5.464844 20.367188 5.546875 C 20.402344 5.628906 20.429688 5.714844 20.449219 5.804688 C 20.464844 5.894531 20.476562 5.984375 20.476562 6.074219 L 20.476562 6.992188 L 23.257812 6.992188 C 23.347656 6.992188 23.4375 7 23.527344 7.019531 C 23.617188 7.035156 23.703125 7.0625 23.789062 7.097656 C 23.871094 7.132812 23.953125 7.175781 24.027344 7.226562 C 24.105469 7.277344 24.171875 7.332031 24.238281 7.398438 C 24.304688 7.460938 24.359375 7.53125 24.410156 7.605469 C 24.460938 7.679688 24.503906 7.757812 24.539062 7.84375 C 24.574219 7.925781 24.601562 8.011719 24.621094 8.101562 C 24.636719 8.191406 24.644531 8.277344 24.648438 8.371094 L 24.648438 13.421875 L 25.570312 13.421875 L 25.5625 3.683594 C 25.558594 3.691406 25.535156 3.679688 25.503906 3.679688 L 11.46875 3.679688 C 11.40625 3.679688 11.347656 3.667969 11.292969 3.644531 C 11.234375 3.621094 11.183594 3.589844 11.140625 3.546875 C 11.097656 3.503906 11.0625 3.453125 11.042969 3.398438 C 11.019531 3.339844 11.003906 3.28125 11.003906 3.21875 L 11.003906 1.449219 C 11.003906 1.21875 10.742188 1.019531 10.429688 1.019531 L 1.582031 1.019531 C 1.273438 1.019531 1.007812 1.21875 1.007812 1.449219 Z M 2.863281 9.289062 L 2.863281 13.683594 C 3.152344 13.507812 3.472656 13.421875 3.8125 13.421875 L 6.105469 13.421875 L 6.105469 11.125 C 6.105469 10.988281 6.15625 10.871094 6.265625 10.78125 L 10.4375 7.105469 C 10.523438 7.03125 10.625 6.992188 10.742188 6.992188 L 19.546875 6.992188 L 19.546875 6.074219 C 19.546875 6.011719 19.535156 5.953125 19.511719 5.898438 C 19.488281 5.839844 19.457031 5.792969 19.414062 5.75 C 19.367188 5.703125 19.320312 5.671875 19.261719 5.648438 C 19.207031 5.625 19.144531 5.613281 19.085938 5.613281 L 7.035156 5.613281 L 7.035156 7.910156 C 7.03125 8 7.023438 8.089844 7.003906 8.179688 C 6.988281 8.269531 6.960938 8.355469 6.925781 8.4375 C 6.890625 8.519531 6.847656 8.601562 6.796875 8.675781 C 6.746094 8.75 6.6875 8.820312 6.625 8.882812 C 6.5625 8.949219 6.488281 9.003906 6.414062 9.054688 C 6.339844 9.105469 6.257812 9.148438 6.175781 9.183594 C 6.089844 9.21875 6.003906 9.242188 5.914062 9.261719 C 5.824219 9.277344 5.734375 9.289062 5.644531 9.289062 Z M 5.644531 8.371094 C 5.703125 8.371094 5.761719 8.359375 5.820312 8.335938 C 5.875 8.3125 5.925781 8.277344 5.96875 8.234375 C 6.015625 8.191406 6.046875 8.140625 6.070312 8.085938 C 6.09375 8.03125 6.105469 7.972656 6.105469 7.910156 L 6.105469 6.179688 L 3.617188 8.371094 Z M 7.789062 10.667969 L 9.8125 10.667969 C 9.875 10.667969 9.933594 10.65625 9.992188 10.632812 C 10.046875 10.609375 10.097656 10.574219 10.140625 10.53125 C 10.1875 10.488281 10.21875 10.4375 10.242188 10.382812 C 10.265625 10.328125 10.277344 10.269531 10.277344 10.207031 L 10.277344 8.476562 Z M 7.035156 13.421875 L 23.71875 13.421875 L 23.71875 8.371094 C 23.71875 8.308594 23.707031 8.25 23.683594 8.195312 C 23.660156 8.136719 23.628906 8.089844 23.582031 8.042969 C 23.539062 8.003906 23.492188 7.96875 23.433594 7.945312 C 23.375 7.921875 23.316406 7.910156 23.257812 7.910156 L 11.207031 7.910156 L 11.207031 10.207031 C 11.203125 10.296875 11.195312 10.386719 11.175781 10.476562 C 11.160156 10.5625 11.132812 10.648438 11.097656 10.734375 C 11.0625 10.816406 11.019531 10.898438 10.96875 10.972656 C 10.917969 11.046875 10.859375 11.117188 10.796875 11.179688 C 10.730469 11.242188 10.660156 11.300781 10.585938 11.351562 C 10.511719 11.402344 10.429688 11.445312 10.347656 11.480469 C 10.261719 11.511719 10.175781 11.539062 10.085938 11.558594 C 9.996094 11.574219 9.90625 11.585938 9.8125 11.585938 L 7.035156 11.585938 Z M 26.84375 14.84375 C 26.855469 14.742188 26.828125 14.65625 26.753906 14.585938 C 26.675781 14.503906 26.578125 14.441406 26.472656 14.398438 C 26.363281 14.355469 26.25 14.335938 26.132812 14.339844 L 3.8125 14.339844 C 3.414062 14.339844 3.136719 14.558594 3.105469 14.757812 L 1.136719 24.761719 C 1.230469 24.859375 1.339844 24.90625 1.472656 24.90625 L 25.296875 24.90625 Z M 26.84375 14.84375 "/>
</g>
</g>
</svg>
