<svg xmlns="http://www.w3.org/2000/svg" width="216" height="216" viewBox="0 0 162 162" preserveAspectRatio="xMidYMid meet">
  <path fill="#afbcc5" d="M 115.714844 63.488281 C 116.078125 63.851562 116.359375 64.269531 116.558594 64.742188 C 116.757812 65.21875 116.855469 65.714844 116.855469 66.226562 C 116.855469 66.742188 116.757812 67.234375 116.558594 67.710938 C 116.359375 68.183594 116.078125 68.605469 115.714844 68.964844 C 114.972656 69.71875 114.070312 70.078125 113.015625 70.046875 C 111.929688 70.042969 111.003906 69.65625 110.238281 68.886719 L 84.855469 43.507812 L 84.855469 126.976562 C 84.855469 127.488281 84.757812 127.980469 84.5625 128.453125 C 84.367188 128.925781 84.089844 129.34375 83.726562 129.703125 C 83.367188 130.066406 82.949219 130.34375 82.476562 130.539062 C 82.003906 130.738281 81.511719 130.835938 81 130.835938 C 80.488281 130.835938 79.996094 130.738281 79.523438 130.539062 C 79.050781 130.34375 78.632812 130.066406 78.273438 129.703125 C 77.910156 129.34375 77.632812 128.925781 77.4375 128.453125 C 77.242188 127.980469 77.144531 127.488281 77.144531 126.976562 L 77.144531 43.507812 L 52.226562 68.886719 C 51.867188 69.257812 51.453125 69.542969 50.980469 69.746094 C 50.507812 69.949219 50.015625 70.054688 49.503906 70.0625 C 48.988281 70.070312 48.492188 69.980469 48.015625 69.789062 C 47.539062 69.601562 47.113281 69.324219 46.746094 68.96875 C 46.378906 68.609375 46.09375 68.195312 45.890625 67.722656 C 45.6875 67.25 45.582031 66.757812 45.574219 66.242188 C 45.566406 65.730469 45.660156 65.234375 45.847656 64.757812 C 46.039062 64.28125 46.3125 63.855469 46.671875 63.488281 L 78.222656 31.398438 C 78.601562 31.046875 79.03125 30.777344 79.507812 30.589844 C 79.988281 30.402344 80.484375 30.308594 81 30.308594 C 81.515625 30.308594 82.011719 30.402344 82.492188 30.589844 C 82.96875 30.777344 83.398438 31.046875 83.777344 31.398438 Z"/>
</svg>
